<?xml version="1.0" encoding="utf-8"?>
<!-- Generator: Adobe Illustrator 21.0.0, SVG Export Plug-In . SVG Version: 6.00 Build 0)  -->
<svg version="1.1" xmlns="http://www.w3.org/2000/svg" xmlns:xlink="http://www.w3.org/1999/xlink" x="0px" y="0px"
	 viewBox="0 0 744 2003" style="enable-background:new 0 0 744 2003;" xml:space="preserve">
<style type="text/css">
	.st0{display:none;}
	.st1{display:inline;fill:#0A0B0C;}
	.st2{fill:#30566D;stroke:#30566D;stroke-width:10;stroke-miterlimit:10;}
	.st3{fill:#30566D;stroke:#30566D;stroke-miterlimit:10;}
	.st4{fill:#30566D;}
	.st5{fill:#FFFFFF;}
	.st6{font-family:'MicrosoftYaHei';}
	.st7{font-size:28px;}
</style>
<g id="图层_2" class="st0">
	<rect class="st1" width="744" height="2003"/>
</g>
<g id="图层_1">
	<g>
		<line class="st2" x1="367.8" y1="144" x2="367.8" y2="222.5"/>
		<polyline class="st3" points="381.3,217.1 367.8,231 354.4,217.1 		"/>
	</g>
	<path class="st4" d="M591.8,171h-448c-27.6,0-50-22.4-50-50v0c0-27.6,22.4-50,50-50h448c27.6,0,50,22.4,50,50v0
		C641.8,148.6,619.4,171,591.8,171z"/>
	<text transform="matrix(1 0 0 1 284.1154 129.7297)" class="st5 st6 st7">确认主变火情</text>
	<g>
		<line class="st2" x1="367.8" y1="256.3" x2="367.8" y2="396.5"/>
		<polyline class="st3" points="381.3,391.1 367.8,405 354.4,391.1 		"/>
	</g>
	<path class="st4" d="M591.8,345h-448c-27.6,0-50-22.4-50-50v0c0-27.6,22.4-50,50-50h448c27.6,0,50,22.4,50,50v0
		C641.8,322.6,619.4,345,591.8,345z"/>
	<text transform="matrix(1 0 0 1 214.1154 303.7297)" class="st5 st6 st7">观察水喷淋系统是否启动</text>
	<g>
		<line class="st2" x1="367.8" y1="430.3" x2="367.8" y2="570.5"/>
		<polyline class="st3" points="381.3,565.1 367.8,579 354.4,565.1 		"/>
	</g>
	<path class="st4" d="M591.8,519h-448c-27.6,0-50-22.4-50-50v0c0-27.6,22.4-50,50-50h448c27.6,0,50,22.4,50,50v0
		C641.8,496.6,619.4,519,591.8,519z"/>
	<text transform="matrix(1 0 0 1 200.1154 477.7297)" class="st5 st6 st7">检查主变三侧开关是否跳开</text>
	<g>
		<line class="st2" x1="367.8" y1="604.3" x2="367.8" y2="744.5"/>
		<polyline class="st3" points="381.3,739.1 367.8,753 354.4,739.1 		"/>
	</g>
	<path class="st4" d="M591.8,693h-448c-27.6,0-50-22.4-50-50v0c0-27.6,22.4-50,50-50h448c27.6,0,50,22.4,50,50v0
		C641.8,670.6,619.4,693,591.8,693z"/>
	<text transform="matrix(1 0 0 1 228.1154 651.7297)" class="st5 st6 st7">遥控拉开主变三侧开关</text>
	<g>
		<line class="st2" x1="367.8" y1="778.3" x2="367.8" y2="918.5"/>
		<polyline class="st3" points="381.3,913.1 367.8,927 354.4,913.1 		"/>
	</g>
	<path class="st4" d="M591.8,867h-448c-27.6,0-50-22.4-50-50v0c0-27.6,22.4-50,50-50h448c27.6,0,50,22.4,50,50v0
		C641.8,844.6,619.4,867,591.8,867z"/>
	<text transform="matrix(1 0 0 1 214.1154 825.7297)" class="st5 st6 st7">观察水喷淋系统是否启动</text>
	<g>
		<line class="st2" x1="367.8" y1="952.3" x2="367.8" y2="1092.5"/>
		<polyline class="st3" points="381.3,1087.1 367.8,1101 354.4,1087.1 		"/>
	</g>
	<path class="st4" d="M591.8,1041h-448c-27.6,0-50-22.4-50-50v0c0-27.6,22.4-50,50-50h448c27.6,0,50,22.4,50,50v0
		C641.8,1018.6,619.4,1041,591.8,1041z"/>
	<text transform="matrix(1 0 0 1 242.1154 999.7297)" class="st5 st6 st7">手动方式启动水喷淋</text>
	<g>
		<line class="st2" x1="367.8" y1="1126.3" x2="367.8" y2="1266.5"/>
		<polyline class="st3" points="381.3,1261.1 367.8,1275 354.4,1261.1 		"/>
	</g>
	<path class="st4" d="M591.8,1215h-448c-27.6,0-50-22.4-50-50l0,0c0-27.6,22.4-50,50-50h448c27.6,0,50,22.4,50,50l0,0
		C641.8,1192.6,619.4,1215,591.8,1215z"/>
	<text transform="matrix(1 0 0 1 228.1154 1173.7297)" class="st5 st6 st7">手动方式启动是否成功</text>
	<g>
		<line class="st2" x1="367.8" y1="1300.3" x2="367.8" y2="1440.5"/>
		<polyline class="st3" points="381.3,1435.1 367.8,1449 354.4,1435.1 		"/>
	</g>
	<path class="st4" d="M591.8,1389h-448c-27.6,0-50-22.4-50-50l0,0c0-27.6,22.4-50,50-50h448c27.6,0,50,22.4,50,50l0,0
		C641.8,1366.6,619.4,1389,591.8,1389z"/>
	<text transform="matrix(1 0 0 1 256.1154 1347.7297)" class="st5 st6 st7">应急机械方式启动</text>
	<line class="st2" x1="33" y1="1514.7" x2="66.7" y2="1514.7"/>
	<line class="st2" x1="33" y1="289.7" x2="83" y2="289.7"/>
	<line class="st2" x1="37.8" y1="1515" x2="37.8" y2="295"/>
	<line class="st2" x1="658" y1="460.7" x2="708" y2="460.7"/>
	<line class="st2" x1="703.2" y1="466" x2="703.2" y2="991"/>
	<polyline class="st3" points="61.3,1501.2 75.2,1514.7 61.3,1528.1 	"/>
	<line class="st2" x1="698.2" y1="985.6" x2="664.5" y2="985.6"/>
	<polyline class="st3" points="669.9,999.1 656,985.6 669.9,972.2 	"/>
	<line class="st2" x1="99.2" y1="816.6" x2="65.5" y2="816.6"/>
	<polyline class="st3" points="70.9,830.1 57,816.6 70.9,803.2 	"/>
	<path class="st4" d="M591.8,1563h-448c-27.6,0-50-22.4-50-50l0,0c0-27.6,22.4-50,50-50h448c27.6,0,50,22.4,50,50l0,0
		C641.8,1540.6,619.4,1563,591.8,1563z"/>
	<text transform="matrix(1 0 0 1 133.4855 1521.7297)" class="st5 st6 st7">拨打119火警，并汇报调控及相关领导</text>
	<text transform="matrix(1 0 0 1 396.0879 384.1328)" class="st5 st6 st7">否</text>
	<text transform="matrix(1 0 0 1 396.0879 565.1328)" class="st5 st6 st7">否</text>
	<text transform="matrix(1 0 0 1 396.0879 913.1328)" class="st5 st6 st7">否</text>
	<text transform="matrix(1 0 0 1 396.0879 1261.1328)" class="st5 st6 st7">否</text>
	<text transform="matrix(1 0 0 1 62.0879 266.1328)" class="st5 st6 st7">是</text>
	<text transform="matrix(1 0 0 1 62.0879 791.1328)" class="st5 st6 st7">是</text>
	<text transform="matrix(1 0 0 1 649.0879 437.1328)" class="st5 st6 st7">是</text>
	<line class="st2" x1="658" y1="1162.7" x2="708" y2="1162.7"/>
	<line class="st2" x1="703.2" y1="1168" x2="703.2" y2="1520"/>
	<line class="st2" x1="698.2" y1="1515.6" x2="664.5" y2="1515.6"/>
	<polyline class="st3" points="669.9,1529.1 656,1515.6 669.9,1502.2 	"/>
	<text transform="matrix(1 0 0 1 649.0879 1139.1328)" class="st5 st6 st7">是</text>
</g>
</svg>
