<?xml version="1.0" encoding="utf-8"?>
<!-- Generator: Adobe Illustrator 21.0.0, SVG Export Plug-In . SVG Version: 6.00 Build 0)  -->
<svg version="1.1" id="图层_1" xmlns="http://www.w3.org/2000/svg" xmlns:xlink="http://www.w3.org/1999/xlink" x="0px" y="0px"
	 viewBox="0 0 1808 820" style="enable-background:new 0 0 1808 820;" xml:space="preserve">
<style type="text/css">
	.st0{display:none;}
	.st1{display:inline;fill:#141A26;}
	.st2{fill:none;stroke:#FFCE00;stroke-miterlimit:10;}
	.st3{display:inline;fill:none;stroke:#FF0000;stroke-width:2;stroke-miterlimit:10;}
</style>
<g id="图层_4" class="st0">
	<rect class="st1" width="1808" height="820.2"/>
</g>
<g id="图层_11">
	<g>
		<g>
			<path class="st2" d="M169.6,100c0,0,7.4-4.2,16.9,0s16.6,0,16.6,0"/>
			<path class="st2" d="M136.2,100c0,0,7.4-4.2,16.9,0s16.6,0,16.6,0"/>
			<path class="st2" d="M102.7,99.9c0,0,7.4-4.2,16.9,0s16.6,0,16.6,0"/>
		</g>
		<g>
			<path class="st2" d="M72.5,98.7c3-0.8,8-1.3,13.6,1.2c9.5,4.2,16.6,0,16.6,0"/>
		</g>
	</g>
	<g>
		<g>
			<g>
				<path class="st2" d="M74.2,195.4c0,0-4.2,7.4,0,16.9"/>
				<path class="st2" d="M74.1,162c0,0-4.2,7.4,0,16.9s0,16.6,0,16.6"/>
				<path class="st2" d="M74.1,128.6c0,0-4.2,7.4,0,16.9s0,16.6,0,16.6"/>
			</g>
			<g>
				<path class="st2" d="M72.8,98.4c-0.8,3-1.3,8,1.2,13.6c4.2,9.5,0,16.6,0,16.6"/>
			</g>
		</g>
		<g>
			<g>
				<g>
					<path class="st2" d="M72.7,308.9c0,0,4.2,7.4,0,16.9"/>
					<path class="st2" d="M72.8,275.5c0,0,4.2,7.4,0,16.9s0,16.6,0,16.6"/>
					<path class="st2" d="M72.8,242c0,0,4.2,7.4,0,16.9s0,16.6,0,16.6"/>
				</g>
				<g>
					<path class="st2" d="M74.1,211.9c0.8,3,1.3,8-1.2,13.6c-4.2,9.5,0,16.6,0,16.6"/>
				</g>
			</g>
			<g>
				<g>
					<path class="st2" d="M72.7,409.1c0,0,4.2,7.4,0,16.9"/>
					<path class="st2" d="M72.8,375.7c0,0,4.2,7.4,0,16.9s0,16.6,0,16.6"/>
					<path class="st2" d="M72.8,342.2c0,0,4.2,7.4,0,16.9s0,16.6,0,16.6"/>
				</g>
				<g>
					<path class="st2" d="M74.1,312c0.8,3,1.3,8-1.2,13.6c-4.2,9.5,0,16.6,0,16.6"/>
				</g>
			</g>
		</g>
		<g>
			<g>
				<g>
					<path class="st2" d="M72.7,509.6c0,0,4.2,7.4,0,16.9"/>
					<path class="st2" d="M72.8,476.2c0,0,4.2,7.4,0,16.9s0,16.6,0,16.6"/>
					<path class="st2" d="M72.8,442.7c0,0,4.2,7.4,0,16.9s0,16.6,0,16.6"/>
				</g>
				<g>
					<path class="st2" d="M74.1,412.5c0.8,3,1.3,8-1.2,13.6c-4.2,9.5,0,16.6,0,16.6"/>
				</g>
			</g>
			<g>
				<g>
					<path class="st2" d="M72.8,576.3c0,0,4.2,7.4,0,16.9c-0.9,2.1-1.5,4.1-1.7,5.9"/>
					<path class="st2" d="M72.8,542.9c0,0,4.2,7.4,0,16.9s0,16.6,0,16.6"/>
				</g>
				<g>
					<path class="st2" d="M74.1,512.7c0.8,3,1.3,8-1.2,13.6c-4.2,9.5,0,16.6,0,16.6"/>
				</g>
			</g>
		</g>
	</g>
	<g>
		<g>
			<g>
				<path class="st2" d="M1124.2,751.8c0,0-4.2,7.4,0,16.9s0.7,14.4,0.7,14.4"/>
				<path class="st2" d="M1124.2,718.3c0,0-4.2,7.4,0,16.9s0,16.6,0,16.6"/>
			</g>
			<g>
				<path class="st2" d="M1124.2,701.7c4.2,9.5,0,16.6,0,16.6"/>
			</g>
		</g>
	</g>
	<g>
		<g>
			<g>
				<g>
					<path class="st2" d="M297.2,128.3c0,0-4.2,7.4,0,16.9"/>
					<path class="st2" d="M297.2,94.9c0,0-4.2,7.4,0,16.9s0,16.6,0,16.6"/>
					<path class="st2" d="M297.1,61.4c0,0-4.2,7.4,0,16.9s0,16.6,0,16.6"/>
				</g>
				<g>
					<path class="st2" d="M295.9,31.2c-0.8,3-1.3,8,1.2,13.6c4.2,9.5,0,16.6,0,16.6"/>
				</g>
			</g>
			<g>
				<g>
					<g>
						<path class="st2" d="M295.8,241.7c0,0,4.2,7.4,0,16.9"/>
						<path class="st2" d="M295.8,208.4c0,0,4.2,7.4,0,16.9s0,16.6,0,16.6"/>
						<path class="st2" d="M295.8,174.9c0,0,4.2,7.4,0,16.9s0,16.6,0,16.6"/>
					</g>
					<g>
						<path class="st2" d="M297.1,144.7c0.8,3,1.3,8-1.2,13.6c-4.2,9.5,0,16.6,0,16.6"/>
					</g>
				</g>
				<g>
					<g>
						<path class="st2" d="M295.8,341.9c0,0,4.2,7.4,0,16.9"/>
						<path class="st2" d="M295.8,308.5c0,0,4.2,7.4,0,16.9s0,16.6,0,16.6"/>
						<path class="st2" d="M295.8,275.1c0,0,4.2,7.4,0,16.9s0,16.6,0,16.6"/>
					</g>
					<g>
						<path class="st2" d="M297.1,244.9c0.8,3,1.3,8-1.2,13.6c-4.2,9.5,0,16.6,0,16.6"/>
					</g>
				</g>
			</g>
			<g>
				<g>
					<g>
						<path class="st2" d="M295.8,442.4c0,0,4.2,7.4,0,16.9"/>
						<path class="st2" d="M295.8,409c0,0,4.2,7.4,0,16.9s0,16.6,0,16.6"/>
						<path class="st2" d="M295.8,375.6c0,0,4.2,7.4,0,16.9s0,16.6,0,16.6"/>
					</g>
					<g>
						<path class="st2" d="M297.1,345.4c0.8,3,1.3,8-1.2,13.6c-4.2,9.5,0,16.6,0,16.6"/>
					</g>
				</g>
				<g>
					<g>
						<path class="st2" d="M295.8,509.2c0,0,4.2,7.4,0,16.9c-0.9,2.1-1.5,4.1-1.7,5.9"/>
						<path class="st2" d="M295.8,475.7c0,0,4.2,7.4,0,16.9s0,16.6,0,16.6"/>
					</g>
					<g>
						<path class="st2" d="M297.1,445.5c0.8,3,1.3,8-1.2,13.6c-4.2,9.5,0,16.6,0,16.6"/>
					</g>
				</g>
			</g>
		</g>
		<g>
			<g>
				<g>
					<g>
						<path class="st2" d="M295.4,577.9c0,0,4.2,7.4,0,16.9c-0.9,2.1-1.5,4.1-1.7,5.9"/>
						<path class="st2" d="M295.4,544.5c0,0,4.2,7.4,0,16.9s0,16.6,0,16.6"/>
					</g>
					<g>
						<path class="st2" d="M295.2,527.8c-3.6,9.7,0.3,16.7,0.3,16.7"/>
					</g>
				</g>
			</g>
		</g>
		<g>
			<g>
				<g>
					<g>
						<path class="st2" d="M295.4,646.1c0,0,4.2,7.4,0,16.9c-0.9,2.1-1.5,4.1-1.7,5.9"/>
						<path class="st2" d="M295.4,612.7c0,0,4.2,7.4,0,16.9s0,16.6,0,16.6"/>
					</g>
					<g>
						<path class="st2" d="M295.2,596c-3.6,9.7,0.3,16.7,0.3,16.7"/>
					</g>
				</g>
			</g>
		</g>
		<g>
			<g>
				<g>
					<g>
						<path class="st2" d="M295.5,679.5c0,0,1.4,3.8,1.6,8.4"/>
						<path class="st2" d="M295.5,646.1c0,0,4.2,7.4,0,16.9s0,16.6,0,16.6"/>
					</g>
				</g>
			</g>
		</g>
	</g>
	<g>
		<g>
			<g>
				<g>
					<path class="st2" d="M664.8,150.9c0,0-4.2,7.4,0,16.9"/>
					<path class="st2" d="M664.7,117.5c0,0-4.2,7.4,0,16.9s0,16.6,0,16.6"/>
					<path class="st2" d="M664.7,84c0,0-4.2,7.4,0,16.9s0,16.6,0,16.6"/>
				</g>
				<g>
					<path class="st2" d="M666.6,75.5c0.1,5.2-1.9,8.5-1.9,8.5"/>
				</g>
			</g>
			<g>
				<g>
					<g>
						<path class="st2" d="M663.3,264.4c0,0,4.2,7.4,0,16.9"/>
						<path class="st2" d="M663.4,231c0,0,4.2,7.4,0,16.9s0,16.6,0,16.6"/>
						<path class="st2" d="M663.4,197.5c0,0,4.2,7.4,0,16.9s0,16.6,0,16.6"/>
					</g>
					<g>
						<path class="st2" d="M664.6,167.3c0.8,3,1.3,8-1.2,13.6c-4.2,9.5,0,16.6,0,16.6"/>
					</g>
				</g>
				<g>
					<g>
						<path class="st2" d="M663.3,364.5c0,0,4.2,7.4,0,16.9"/>
						<path class="st2" d="M663.4,331.1c0,0,4.2,7.4,0,16.9s0,16.6,0,16.6"/>
						<path class="st2" d="M663.4,297.7c0,0,4.2,7.4,0,16.9s0,16.6,0,16.6"/>
					</g>
					<g>
						<path class="st2" d="M664.6,267.5c0.8,3,1.3,8-1.2,13.6c-4.2,9.5,0,16.6,0,16.6"/>
					</g>
				</g>
			</g>
			<g>
				<g>
					<g>
						<path class="st2" d="M663.3,465c0,0,4.2,7.4,0,16.9"/>
						<path class="st2" d="M663.4,431.6c0,0,4.2,7.4,0,16.9s0,16.6,0,16.6"/>
						<path class="st2" d="M663.4,398.2c0,0,4.2,7.4,0,16.9s0,16.6,0,16.6"/>
					</g>
					<g>
						<path class="st2" d="M664.6,368c0.8,3,1.3,8-1.2,13.6c-4.2,9.5,0,16.6,0,16.6"/>
					</g>
				</g>
				<g>
					<g>
						<path class="st2" d="M663.4,531.8c0,0,4.2,7.4,0,16.9c-0.9,2.1-1.5,4.1-1.7,5.9"/>
						<path class="st2" d="M663.4,498.3c0,0,4.2,7.4,0,16.9c-4.2,9.5,0,16.6,0,16.6"/>
					</g>
					<g>
						<path class="st2" d="M664.6,468.2c0.8,3,1.3,8-1.2,13.6c-4.2,9.5,0,16.6,0,16.6"/>
					</g>
				</g>
			</g>
		</g>
		<g>
			<g>
				<g>
					<g>
						<path class="st2" d="M663,600.5c0,0,4.2,7.4,0,16.9c-0.9,2.1-1.5,4.1-1.7,5.9"/>
						<path class="st2" d="M663,567.1c0,0,4.2,7.4,0,16.9s0,16.6,0,16.6"/>
					</g>
					<g>
						<path class="st2" d="M662.7,550.4c-3.6,9.7,0.3,16.7,0.3,16.7"/>
					</g>
				</g>
			</g>
		</g>
		<g>
			<g>
				<g>
					<g>
						<path class="st2" d="M663,668.7c0,0,4.2,7.4,0,16.9c-0.9,2.1-1.5,4.1-1.7,5.9"/>
						<path class="st2" d="M663,635.3c0,0,4.2,7.4,0,16.9s0,16.6,0,16.6"/>
					</g>
					<g>
						<path class="st2" d="M662.7,618.6c-3.6,9.7,0.3,16.7,0.3,16.7"/>
					</g>
				</g>
			</g>
		</g>
		<g>
			<g>
				<g>
					<g>
						<path class="st2" d="M663.1,702.2c0,0,1.4,3.8,1.6,8.4"/>
						<path class="st2" d="M663.1,668.7c0,0,4.2,7.4,0,16.9s0,16.6,0,16.6"/>
					</g>
				</g>
			</g>
		</g>
	</g>
	<g>
		<g>
			<g>
				<g>
					<g>
						<path class="st2" d="M1016,155.9c0,0-7.4-4.2-16.9,0"/>
						<path class="st2" d="M1049.4,155.9c0,0-7.4-4.2-16.9,0s-16.6,0-16.6,0"/>
						<path class="st2" d="M1082.9,155.8c0,0-7.4-4.2-16.9,0s-16.6,0-16.6,0"/>
					</g>
					<g>
						<path class="st2" d="M1091.4,157.7c-5.2,0.1-8.5-1.9-8.5-1.9"/>
					</g>
				</g>
				<g>
					<g>
						<g>
							<path class="st2" d="M902.6,154.5c0,0-7.4,4.2-16.9,0"/>
							<path class="st2" d="M935.9,154.5c0,0-7.4,4.2-16.9,0s-16.6,0-16.6,0"/>
							<path class="st2" d="M969.4,154.5c0,0-7.4,4.2-16.9,0s-16.6,0-16.6,0"/>
						</g>
						<g>
							<path class="st2" d="M999.6,155.8c-3,0.8-8,1.3-13.6-1.2c-9.5-4.2-16.6,0-16.6,0"/>
						</g>
					</g>
					<g>
						<g>
							<path class="st2" d="M802.4,154.5c0,0-7.4,4.2-16.9,0"/>
							<path class="st2" d="M835.8,154.5c0,0-7.4,4.2-16.9,0s-16.6,0-16.6,0"/>
							<path class="st2" d="M869.2,154.5c0,0-7.4,4.2-16.9,0s-16.6,0-16.6,0"/>
						</g>
						<g>
							<path class="st2" d="M899.4,155.8c-3,0.8-8,1.3-13.6-1.2c-9.5-4.2-16.6,0-16.6,0"/>
						</g>
					</g>
				</g>
				<g>
					<g>
						<g>
							<path class="st2" d="M701.9,154.5c0,0-7.4,4.2-16.9,0"/>
							<path class="st2" d="M735.3,154.5c0,0-7.4,4.2-16.9,0s-16.6,0-16.6,0"/>
							<path class="st2" d="M768.8,154.5c0,0-7.4,4.2-16.9,0s-16.6,0-16.6,0"/>
						</g>
						<g>
							<path class="st2" d="M798.9,155.8c-3,0.8-8,1.3-13.6-1.2c-9.5-4.2-16.6,0-16.6,0"/>
						</g>
					</g>
					<g>
						<g>
							<path class="st2" d="M635.1,154.5c0,0-7.4,4.2-16.9,0c-2.1-0.9-4.1-1.5-5.9-1.7"/>
							<path class="st2" d="M668.6,154.5c0,0-7.4,4.2-16.9,0s-16.6,0-16.6,0"/>
						</g>
						<g>
							<path class="st2" d="M698.8,155.8c-3,0.8-8,1.3-13.6-1.2c-9.5-4.2-16.6,0-16.6,0"/>
						</g>
					</g>
				</g>
			</g>
			<g>
				<g>
					<g>
						<g>
							<path class="st2" d="M566.4,154.1c0,0-7.4,4.2-16.9,0c-2.1-0.9-4.1-1.5-5.9-1.7"/>
							<path class="st2" d="M599.8,154.2c0,0-7.4,4.2-16.9,0s-16.6,0-16.6,0"/>
						</g>
						<g>
							<path class="st2" d="M616.5,153.9c-9.7-3.6-16.7,0.3-16.7,0.3"/>
						</g>
					</g>
				</g>
			</g>
			<g>
				<g>
					<g>
						<g>
							<path class="st2" d="M498.2,154.1c0,0-7.4,4.2-16.9,0c-2.1-0.9-4.1-1.5-5.9-1.7"/>
							<path class="st2" d="M531.7,154.2c0,0-7.4,4.2-16.9,0s-16.6,0-16.6,0"/>
						</g>
						<g>
							<path class="st2" d="M548.3,153.9c-9.7-3.6-16.7,0.3-16.7,0.3"/>
						</g>
					</g>
				</g>
			</g>
			<g>
				<g>
					<g>
						<g>
							<path class="st2" d="M464.8,154.2c0,0-3.8,1.4-8.4,1.6"/>
							<path class="st2" d="M498.2,154.2c0,0-7.4,4.2-16.9,0s-16.6,0-16.6,0"/>
						</g>
					</g>
				</g>
			</g>
		</g>
		<g>
			<g>
				<g>
					<g>
						<g>
							<path class="st2" d="M1303.4,156.2c0,0-7.4,4.2-16.9,0"/>
							<path class="st2" d="M1336.8,156.2c0,0-7.4,4.2-16.9,0s-16.6,0-16.6,0"/>
							<path class="st2" d="M1353.4,156.2c-9.5-4.2-16.6,0-16.6,0"/>
						</g>
					</g>
					<g>
						<g>
							<path class="st2" d="M1236.6,156.2c0,0-7.4,4.2-16.9,0c-2.1-0.9-4.1-1.5-5.9-1.7"/>
							<path class="st2" d="M1270.1,156.2c0,0-7.4,4.2-16.9,0s-16.6,0-16.6,0"/>
						</g>
						<g>
							<path class="st2" d="M1300.2,157.5c-3,0.8-8,1.3-13.6-1.2c-9.5-4.2-16.6,0-16.6,0"/>
						</g>
					</g>
				</g>
			</g>
			<g>
				<g>
					<g>
						<g>
							<path class="st2" d="M1167.9,155.8c0,0-7.4,4.2-16.9,0c-2.1-0.9-4.1-1.5-5.9-1.7"/>
							<path class="st2" d="M1201.3,155.8c0,0-7.4,4.2-16.9,0s-16.6,0-16.6,0"/>
						</g>
						<g>
							<path class="st2" d="M1218,155.6c-9.7-3.6-16.7,0.3-16.7,0.3"/>
						</g>
					</g>
				</g>
			</g>
			<g>
				<g>
					<g>
						<g>
							<path class="st2" d="M1099.7,155.8c0,0-7.4,4.2-16.9,0c-2.1-0.9-4.1-1.5-5.9-1.7"/>
							<path class="st2" d="M1133.1,155.8c0,0-7.4,4.2-16.9,0s-16.6,0-16.6,0"/>
						</g>
						<g>
							<path class="st2" d="M1149.8,155.6c-9.7-3.6-16.7,0.3-16.7,0.3"/>
						</g>
					</g>
				</g>
			</g>
			<g>
				<g>
					<g>
						<g>
							<path class="st2" d="M1066.3,155.9c0,0-3.8,1.4-8.4,1.6"/>
							<path class="st2" d="M1099.7,155.9c0,0-7.4,4.2-16.9,0s-16.6,0-16.6,0"/>
						</g>
					</g>
				</g>
			</g>
		</g>
	</g>
	<g>
		<g>
			<g>
				<g>
					<g>
						<path class="st2" d="M1016,266.3c0,0-7.4-4.2-16.9,0"/>
						<path class="st2" d="M1049.4,266.3c0,0-7.4-4.2-16.9,0s-16.6,0-16.6,0"/>
						<path class="st2" d="M1082.9,266.3c0,0-7.4-4.2-16.9,0s-16.6,0-16.6,0"/>
					</g>
					<g>
						<path class="st2" d="M1091.4,268.1c-5.2,0.1-8.5-1.9-8.5-1.9"/>
					</g>
				</g>
				<g>
					<g>
						<g>
							<path class="st2" d="M902.6,264.9c0,0-7.4,4.2-16.9,0"/>
							<path class="st2" d="M935.9,264.9c0,0-7.4,4.2-16.9,0s-16.6,0-16.6,0"/>
							<path class="st2" d="M969.4,264.9c0,0-7.4,4.2-16.9,0s-16.6,0-16.6,0"/>
						</g>
						<g>
							<path class="st2" d="M999.6,266.2c-3,0.8-8,1.3-13.6-1.2c-9.5-4.2-16.6,0-16.6,0"/>
						</g>
					</g>
					<g>
						<g>
							<path class="st2" d="M802.4,264.9c0,0-7.4,4.2-16.9,0"/>
							<path class="st2" d="M835.8,264.9c0,0-7.4,4.2-16.9,0s-16.6,0-16.6,0"/>
							<path class="st2" d="M869.2,264.9c0,0-7.4,4.2-16.9,0s-16.6,0-16.6,0"/>
						</g>
						<g>
							<path class="st2" d="M899.4,266.2c-3,0.8-8,1.3-13.6-1.2c-9.5-4.2-16.6,0-16.6,0"/>
						</g>
					</g>
				</g>
				<g>
					<g>
						<g>
							<path class="st2" d="M701.9,264.9c0,0-7.4,4.2-16.9,0"/>
							<path class="st2" d="M735.3,264.9c0,0-7.4,4.2-16.9,0s-16.6,0-16.6,0"/>
							<path class="st2" d="M768.8,264.9c0,0-7.4,4.2-16.9,0s-16.6,0-16.6,0"/>
						</g>
						<g>
							<path class="st2" d="M798.9,266.2c-3,0.8-8,1.3-13.6-1.2c-9.5-4.2-16.6,0-16.6,0"/>
						</g>
					</g>
					<g>
						<g>
							<path class="st2" d="M635.1,264.9c0,0-7.4,4.2-16.9,0c-2.1-0.9-4.1-1.5-5.9-1.7"/>
							<path class="st2" d="M668.6,264.9c0,0-7.4,4.2-16.9,0s-16.6,0-16.6,0"/>
						</g>
						<g>
							<path class="st2" d="M698.8,266.2c-3,0.8-8,1.3-13.6-1.2c-9.5-4.2-16.6,0-16.6,0"/>
						</g>
					</g>
				</g>
			</g>
			<g>
				<g>
					<g>
						<g>
							<path class="st2" d="M566.4,264.5c0,0-7.4,4.2-16.9,0c-2.1-0.9-4.1-1.5-5.9-1.7"/>
							<path class="st2" d="M599.8,264.6c0,0-7.4,4.2-16.9,0s-16.6,0-16.6,0"/>
						</g>
						<g>
							<path class="st2" d="M616.5,264.3c-9.7-3.6-16.7,0.3-16.7,0.3"/>
						</g>
					</g>
				</g>
			</g>
			<g>
				<g>
					<g>
						<g>
							<path class="st2" d="M498.2,264.5c0,0-7.4,4.2-16.9,0c-2.1-0.9-4.1-1.5-5.9-1.7"/>
							<path class="st2" d="M531.7,264.6c0,0-7.4,4.2-16.9,0s-16.6,0-16.6,0"/>
						</g>
						<g>
							<path class="st2" d="M548.3,264.3c-9.7-3.6-16.7,0.3-16.7,0.3"/>
						</g>
					</g>
				</g>
			</g>
			<g>
				<g>
					<g>
						<g>
							<path class="st2" d="M464.8,264.6c0,0-3.8,1.4-8.4,1.6"/>
							<path class="st2" d="M498.2,264.6c0,0-7.4,4.2-16.9,0s-16.6,0-16.6,0"/>
						</g>
					</g>
				</g>
			</g>
		</g>
		<g>
			<g>
				<g>
					<g>
						<g>
							<path class="st2" d="M1303.4,266.6c0,0-7.4,4.2-16.9,0"/>
							<path class="st2" d="M1336.8,266.6c0,0-7.4,4.2-16.9,0s-16.6,0-16.6,0"/>
							<path class="st2" d="M1353.4,266.6c-9.5-4.2-16.6,0-16.6,0"/>
						</g>
					</g>
					<g>
						<g>
							<path class="st2" d="M1236.6,266.6c0,0-7.4,4.2-16.9,0c-2.1-0.9-4.1-1.5-5.9-1.7"/>
							<path class="st2" d="M1270.1,266.6c0,0-7.4,4.2-16.9,0s-16.6,0-16.6,0"/>
						</g>
						<g>
							<path class="st2" d="M1300.2,267.9c-3,0.8-8,1.3-13.6-1.2c-9.5-4.2-16.6,0-16.6,0"/>
						</g>
					</g>
				</g>
			</g>
			<g>
				<g>
					<g>
						<g>
							<path class="st2" d="M1167.9,266.2c0,0-7.4,4.2-16.9,0c-2.1-0.9-4.1-1.5-5.9-1.7"/>
							<path class="st2" d="M1201.3,266.3c0,0-7.4,4.2-16.9,0s-16.6,0-16.6,0"/>
						</g>
						<g>
							<path class="st2" d="M1218,266c-9.7-3.6-16.7,0.3-16.7,0.3"/>
						</g>
					</g>
				</g>
			</g>
			<g>
				<g>
					<g>
						<g>
							<path class="st2" d="M1099.7,266.2c0,0-7.4,4.2-16.9,0c-2.1-0.9-4.1-1.5-5.9-1.7"/>
							<path class="st2" d="M1133.1,266.3c0,0-7.4,4.2-16.9,0s-16.6,0-16.6,0"/>
						</g>
						<g>
							<path class="st2" d="M1149.8,266c-9.7-3.6-16.7,0.3-16.7,0.3"/>
						</g>
					</g>
				</g>
			</g>
			<g>
				<g>
					<g>
						<g>
							<path class="st2" d="M1066.3,266.3c0,0-3.8,1.4-8.4,1.6"/>
							<path class="st2" d="M1099.7,266.3c0,0-7.4,4.2-16.9,0s-16.6,0-16.6,0"/>
						</g>
					</g>
				</g>
			</g>
		</g>
	</g>
	<g>
		<g>
			<g>
				<g>
					<g>
						<path class="st2" d="M1016,374.8c0,0-7.4-4.2-16.9,0"/>
						<path class="st2" d="M1049.4,374.7c0,0-7.4-4.2-16.9,0s-16.6,0-16.6,0"/>
						<path class="st2" d="M1082.9,374.7c0,0-7.4-4.2-16.9,0s-16.6,0-16.6,0"/>
					</g>
					<g>
						<path class="st2" d="M1091.4,376.5c-5.2,0.1-8.5-1.9-8.5-1.9"/>
					</g>
				</g>
				<g>
					<g>
						<g>
							<path class="st2" d="M902.6,373.3c0,0-7.4,4.2-16.9,0"/>
							<path class="st2" d="M935.9,373.4c0,0-7.4,4.2-16.9,0s-16.6,0-16.6,0"/>
							<path class="st2" d="M969.4,373.4c0,0-7.4,4.2-16.9,0s-16.6,0-16.6,0"/>
						</g>
						<g>
							<path class="st2" d="M999.6,374.6c-3,0.8-8,1.3-13.6-1.2c-9.5-4.2-16.6,0-16.6,0"/>
						</g>
					</g>
					<g>
						<g>
							<path class="st2" d="M802.4,373.3c0,0-7.4,4.2-16.9,0"/>
							<path class="st2" d="M835.8,373.4c0,0-7.4,4.2-16.9,0s-16.6,0-16.6,0"/>
							<path class="st2" d="M869.2,373.4c0,0-7.4,4.2-16.9,0s-16.6,0-16.6,0"/>
						</g>
						<g>
							<path class="st2" d="M899.4,374.6c-3,0.8-8,1.3-13.6-1.2c-9.5-4.2-16.6,0-16.6,0"/>
						</g>
					</g>
				</g>
				<g>
					<g>
						<g>
							<path class="st2" d="M701.9,373.3c0,0-7.4,4.2-16.9,0"/>
							<path class="st2" d="M735.3,373.4c0,0-7.4,4.2-16.9,0s-16.6,0-16.6,0"/>
							<path class="st2" d="M768.8,373.4c0,0-7.4,4.2-16.9,0s-16.6,0-16.6,0"/>
						</g>
						<g>
							<path class="st2" d="M798.9,374.6c-3,0.8-8,1.3-13.6-1.2c-9.5-4.2-16.6,0-16.6,0"/>
						</g>
					</g>
					<g>
						<g>
							<path class="st2" d="M635.1,373.4c0,0-7.4,4.2-16.9,0c-2.1-0.9-4.1-1.5-5.9-1.7"/>
							<path class="st2" d="M668.6,373.4c0,0-7.4,4.2-16.9,0s-16.6,0-16.6,0"/>
						</g>
						<g>
							<path class="st2" d="M698.8,374.6c-3,0.8-8,1.3-13.6-1.2c-9.5-4.2-16.6,0-16.6,0"/>
						</g>
					</g>
				</g>
			</g>
			<g>
				<g>
					<g>
						<g>
							<path class="st2" d="M566.4,373c0,0-7.4,4.2-16.9,0c-2.1-0.9-4.1-1.5-5.9-1.7"/>
							<path class="st2" d="M599.8,373c0,0-7.4,4.2-16.9,0s-16.6,0-16.6,0"/>
						</g>
						<g>
							<path class="st2" d="M616.5,372.7c-9.7-3.6-16.7,0.3-16.7,0.3"/>
						</g>
					</g>
				</g>
			</g>
			<g>
				<g>
					<g>
						<g>
							<path class="st2" d="M498.2,373c0,0-7.4,4.2-16.9,0c-2.1-0.9-4.1-1.5-5.9-1.7"/>
							<path class="st2" d="M531.7,373c0,0-7.4,4.2-16.9,0s-16.6,0-16.6,0"/>
						</g>
						<g>
							<path class="st2" d="M548.3,372.7c-9.7-3.6-16.7,0.3-16.7,0.3"/>
						</g>
					</g>
				</g>
			</g>
			<g>
				<g>
					<g>
						<g>
							<path class="st2" d="M464.8,373.1c0,0-3.8,1.4-8.4,1.6"/>
							<path class="st2" d="M498.2,373.1c0,0-7.4,4.2-16.9,0s-16.6,0-16.6,0"/>
						</g>
					</g>
				</g>
			</g>
		</g>
		<g>
			<g>
				<g>
					<g>
						<g>
							<path class="st2" d="M1303.4,375c0,0-7.4,4.2-16.9,0"/>
							<path class="st2" d="M1336.8,375.1c0,0-7.4,4.2-16.9,0s-16.6,0-16.6,0"/>
							<path class="st2" d="M1353.4,375.1c-9.5-4.2-16.6,0-16.6,0"/>
						</g>
					</g>
					<g>
						<g>
							<path class="st2" d="M1236.6,375.1c0,0-7.4,4.2-16.9,0c-2.1-0.9-4.1-1.5-5.9-1.7"/>
							<path class="st2" d="M1270.1,375.1c0,0-7.4,4.2-16.9,0s-16.6,0-16.6,0"/>
						</g>
						<g>
							<path class="st2" d="M1300.2,376.3c-3,0.8-8,1.3-13.6-1.2c-9.5-4.2-16.6,0-16.6,0"/>
						</g>
					</g>
				</g>
			</g>
			<g>
				<g>
					<g>
						<g>
							<path class="st2" d="M1167.9,374.7c0,0-7.4,4.2-16.9,0c-2.1-0.9-4.1-1.5-5.9-1.7"/>
							<path class="st2" d="M1201.3,374.7c0,0-7.4,4.2-16.9,0s-16.6,0-16.6,0"/>
						</g>
						<g>
							<path class="st2" d="M1218,374.4c-9.7-3.6-16.7,0.3-16.7,0.3"/>
						</g>
					</g>
				</g>
			</g>
			<g>
				<g>
					<g>
						<g>
							<path class="st2" d="M1099.7,374.7c0,0-7.4,4.2-16.9,0c-2.1-0.9-4.1-1.5-5.9-1.7"/>
							<path class="st2" d="M1133.1,374.7c0,0-7.4,4.2-16.9,0s-16.6,0-16.6,0"/>
						</g>
						<g>
							<path class="st2" d="M1149.8,374.4c-9.7-3.6-16.7,0.3-16.7,0.3"/>
						</g>
					</g>
				</g>
			</g>
			<g>
				<g>
					<g>
						<g>
							<path class="st2" d="M1066.3,374.8c0,0-3.8,1.4-8.4,1.6"/>
							<path class="st2" d="M1099.7,374.8c0,0-7.4,4.2-16.9,0s-16.6,0-16.6,0"/>
						</g>
					</g>
				</g>
			</g>
		</g>
	</g>
	<g>
		<g>
			<g>
				<g>
					<g>
						<path class="st2" d="M1016,481.5c0,0-7.4-4.2-16.9,0"/>
						<path class="st2" d="M1049.4,481.4c0,0-7.4-4.2-16.9,0s-16.6,0-16.6,0"/>
						<path class="st2" d="M1082.9,481.4c0,0-7.4-4.2-16.9,0s-16.6,0-16.6,0"/>
					</g>
					<g>
						<path class="st2" d="M1091.4,483.3c-5.2,0.1-8.5-1.9-8.5-1.9"/>
					</g>
				</g>
				<g>
					<g>
						<g>
							<path class="st2" d="M902.6,480c0,0-7.4,4.2-16.9,0"/>
							<path class="st2" d="M935.9,480.1c0,0-7.4,4.2-16.9,0s-16.6,0-16.6,0"/>
							<path class="st2" d="M969.4,480.1c0,0-7.4,4.2-16.9,0s-16.6,0-16.6,0"/>
						</g>
						<g>
							<path class="st2" d="M999.6,481.3c-3,0.8-8,1.3-13.6-1.2c-9.5-4.2-16.6,0-16.6,0"/>
						</g>
					</g>
					<g>
						<g>
							<path class="st2" d="M802.4,480c0,0-7.4,4.2-16.9,0"/>
							<path class="st2" d="M835.8,480.1c0,0-7.4,4.2-16.9,0s-16.6,0-16.6,0"/>
							<path class="st2" d="M869.2,480.1c0,0-7.4,4.2-16.9,0s-16.6,0-16.6,0"/>
						</g>
						<g>
							<path class="st2" d="M899.4,481.3c-3,0.8-8,1.3-13.6-1.2c-9.5-4.2-16.6,0-16.6,0"/>
						</g>
					</g>
				</g>
				<g>
					<g>
						<g>
							<path class="st2" d="M701.9,480c0,0-7.4,4.2-16.9,0"/>
							<path class="st2" d="M735.3,480.1c0,0-7.4,4.2-16.9,0s-16.6,0-16.6,0"/>
							<path class="st2" d="M768.8,480.1c0,0-7.4,4.2-16.9,0s-16.6,0-16.6,0"/>
						</g>
						<g>
							<path class="st2" d="M798.9,481.3c-3,0.8-8,1.3-13.6-1.2c-9.5-4.2-16.6,0-16.6,0"/>
						</g>
					</g>
					<g>
						<g>
							<path class="st2" d="M635.1,480.1c0,0-7.4,4.2-16.9,0c-2.1-0.9-4.1-1.5-5.9-1.7"/>
							<path class="st2" d="M668.6,480.1c0,0-7.4,4.2-16.9,0s-16.6,0-16.6,0"/>
						</g>
						<g>
							<path class="st2" d="M698.8,481.3c-3,0.8-8,1.3-13.6-1.2c-9.5-4.2-16.6,0-16.6,0"/>
						</g>
					</g>
				</g>
			</g>
			<g>
				<g>
					<g>
						<g>
							<path class="st2" d="M566.4,479.7c0,0-7.4,4.2-16.9,0c-2.1-0.9-4.1-1.5-5.9-1.7"/>
							<path class="st2" d="M599.8,479.7c0,0-7.4,4.2-16.9,0s-16.6,0-16.6,0"/>
						</g>
						<g>
							<path class="st2" d="M616.5,479.4c-9.7-3.6-16.7,0.3-16.7,0.3"/>
						</g>
					</g>
				</g>
			</g>
			<g>
				<g>
					<g>
						<g>
							<path class="st2" d="M498.2,479.7c0,0-7.4,4.2-16.9,0c-2.1-0.9-4.1-1.5-5.9-1.7"/>
							<path class="st2" d="M531.7,479.7c0,0-7.4,4.2-16.9,0s-16.6,0-16.6,0"/>
						</g>
						<g>
							<path class="st2" d="M548.3,479.4c-9.7-3.6-16.7,0.3-16.7,0.3"/>
						</g>
					</g>
				</g>
			</g>
			<g>
				<g>
					<g>
						<g>
							<path class="st2" d="M464.8,479.8c0,0-3.8,1.4-8.4,1.6"/>
							<path class="st2" d="M498.2,479.8c0,0-7.4,4.2-16.9,0s-16.6,0-16.6,0"/>
						</g>
					</g>
				</g>
			</g>
		</g>
		<g>
			<g>
				<g>
					<g>
						<g>
							<path class="st2" d="M1303.4,481.7c0,0-7.4,4.2-16.9,0"/>
							<path class="st2" d="M1336.8,481.8c0,0-7.4,4.2-16.9,0s-16.6,0-16.6,0"/>
							<path class="st2" d="M1353.4,481.8c-9.5-4.2-16.6,0-16.6,0"/>
						</g>
					</g>
					<g>
						<g>
							<path class="st2" d="M1236.6,481.8c0,0-7.4,4.2-16.9,0c-2.1-0.9-4.1-1.5-5.9-1.7"/>
							<path class="st2" d="M1270.1,481.8c0,0-7.4,4.2-16.9,0s-16.6,0-16.6,0"/>
						</g>
						<g>
							<path class="st2" d="M1300.2,483c-3,0.8-8,1.3-13.6-1.2c-9.5-4.2-16.6,0-16.6,0"/>
						</g>
					</g>
				</g>
			</g>
			<g>
				<g>
					<g>
						<g>
							<path class="st2" d="M1167.9,481.4c0,0-7.4,4.2-16.9,0c-2.1-0.9-4.1-1.5-5.9-1.7"/>
							<path class="st2" d="M1201.3,481.4c0,0-7.4,4.2-16.9,0s-16.6,0-16.6,0"/>
						</g>
						<g>
							<path class="st2" d="M1218,481.1c-9.7-3.6-16.7,0.3-16.7,0.3"/>
						</g>
					</g>
				</g>
			</g>
			<g>
				<g>
					<g>
						<g>
							<path class="st2" d="M1099.7,481.4c0,0-7.4,4.2-16.9,0c-2.1-0.9-4.1-1.5-5.9-1.7"/>
							<path class="st2" d="M1133.1,481.4c0,0-7.4,4.2-16.9,0s-16.6,0-16.6,0"/>
						</g>
						<g>
							<path class="st2" d="M1149.8,481.1c-9.7-3.6-16.7,0.3-16.7,0.3"/>
						</g>
					</g>
				</g>
			</g>
			<g>
				<g>
					<g>
						<g>
							<path class="st2" d="M1066.3,481.5c0,0-3.8,1.4-8.4,1.6"/>
							<path class="st2" d="M1099.7,481.5c0,0-7.4,4.2-16.9,0s-16.6,0-16.6,0"/>
						</g>
					</g>
				</g>
			</g>
		</g>
	</g>
	<g>
		<g>
			<g>
				<g>
					<g>
						<path class="st2" d="M1019,593.5c0,0-7.4-4.2-16.9,0"/>
						<path class="st2" d="M1052.4,593.5c0,0-7.4-4.2-16.9,0s-16.6,0-16.6,0"/>
						<path class="st2" d="M1085.9,593.5c0,0-7.4-4.2-16.9,0s-16.6,0-16.6,0"/>
					</g>
					<g>
						<path class="st2" d="M1094.4,595.3c-5.2,0.1-8.5-1.9-8.5-1.9"/>
					</g>
				</g>
				<g>
					<g>
						<g>
							<path class="st2" d="M905.6,592.1c0,0-7.4,4.2-16.9,0"/>
							<path class="st2" d="M938.9,592.1c0,0-7.4,4.2-16.9,0s-16.6,0-16.6,0"/>
							<path class="st2" d="M972.4,592.1c0,0-7.4,4.2-16.9,0s-16.6,0-16.6,0"/>
						</g>
						<g>
							<path class="st2" d="M1002.6,593.4c-3,0.8-8,1.3-13.6-1.2c-9.5-4.2-16.6,0-16.6,0"/>
						</g>
					</g>
					<g>
						<g>
							<path class="st2" d="M805.4,592.1c0,0-7.4,4.2-16.9,0"/>
							<path class="st2" d="M838.8,592.1c0,0-7.4,4.2-16.9,0s-16.6,0-16.6,0"/>
							<path class="st2" d="M872.2,592.1c0,0-7.4,4.2-16.9,0s-16.6,0-16.6,0"/>
						</g>
						<g>
							<path class="st2" d="M902.4,593.4c-3,0.8-8,1.3-13.6-1.2c-9.5-4.2-16.6,0-16.6,0"/>
						</g>
					</g>
				</g>
				<g>
					<g>
						<g>
							<path class="st2" d="M704.9,592.1c0,0-7.4,4.2-16.9,0"/>
							<path class="st2" d="M738.3,592.1c0,0-7.4,4.2-16.9,0s-16.6,0-16.6,0"/>
							<path class="st2" d="M771.8,592.1c0,0-7.4,4.2-16.9,0s-16.6,0-16.6,0"/>
						</g>
						<g>
							<path class="st2" d="M801.9,593.4c-3,0.8-8,1.3-13.6-1.2c-9.5-4.2-16.6,0-16.6,0"/>
						</g>
					</g>
					<g>
						<g>
							<path class="st2" d="M638.1,592.1c0,0-7.4,4.2-16.9,0c-2.1-0.9-4.1-1.5-5.9-1.7"/>
							<path class="st2" d="M671.6,592.1c0,0-7.4,4.2-16.9,0s-16.6,0-16.6,0"/>
						</g>
						<g>
							<path class="st2" d="M701.8,593.4c-3,0.8-8,1.3-13.6-1.2c-9.5-4.2-16.6,0-16.6,0"/>
						</g>
					</g>
				</g>
			</g>
			<g>
				<g>
					<g>
						<g>
							<path class="st2" d="M569.4,591.7c0,0-7.4,4.2-16.9,0c-2.1-0.9-4.1-1.5-5.9-1.7"/>
							<path class="st2" d="M602.8,591.8c0,0-7.4,4.2-16.9,0s-16.6,0-16.6,0"/>
						</g>
						<g>
							<path class="st2" d="M619.5,591.5c-9.7-3.6-16.7,0.3-16.7,0.3"/>
						</g>
					</g>
				</g>
			</g>
			<g>
				<g>
					<g>
						<g>
							<path class="st2" d="M501.2,591.7c0,0-7.4,4.2-16.9,0"/>
							<path class="st2" d="M534.7,591.8c0,0-7.4,4.2-16.9,0s-16.6,0-16.6,0"/>
						</g>
						<g>
							<path class="st2" d="M551.3,591.5c-9.7-3.6-16.7,0.3-16.7,0.3"/>
						</g>
					</g>
				</g>
			</g>
			<g>
				<g>
					<g>
						<g>
							<path class="st2" d="M501.2,591.8c0,0-7.4,4.2-16.9,0c-4.2-1.9-8.1-1.1-11-0.8"/>
						</g>
					</g>
				</g>
			</g>
		</g>
		<g>
			<g>
				<g>
					<g>
						<g>
							<path class="st2" d="M1306.4,593.8c0,0-7.4,4.2-16.9,0"/>
							<path class="st2" d="M1339.8,593.8c0,0-7.4,4.2-16.9,0s-16.6,0-16.6,0"/>
							<path class="st2" d="M1356.4,593.8c-9.5-4.2-16.6,0-16.6,0"/>
						</g>
					</g>
					<g>
						<g>
							<path class="st2" d="M1239.6,593.8c0,0-7.4,4.2-16.9,0c-2.1-0.9-4.1-1.5-5.9-1.7"/>
							<path class="st2" d="M1273.1,593.8c0,0-7.4,4.2-16.9,0s-16.6,0-16.6,0"/>
						</g>
						<g>
							<path class="st2" d="M1303.2,595.1c-3,0.8-8,1.3-13.6-1.2c-9.5-4.2-16.6,0-16.6,0"/>
						</g>
					</g>
				</g>
			</g>
			<g>
				<g>
					<g>
						<g>
							<path class="st2" d="M1170.9,593.4c0,0-7.4,4.2-16.9,0c-2.1-0.9-4.1-1.5-5.9-1.7"/>
							<path class="st2" d="M1204.3,593.5c0,0-7.4,4.2-16.9,0s-16.6,0-16.6,0"/>
						</g>
						<g>
							<path class="st2" d="M1221,593.2c-9.7-3.6-16.7,0.3-16.7,0.3"/>
						</g>
					</g>
				</g>
			</g>
			<g>
				<g>
					<g>
						<g>
							<path class="st2" d="M1102.7,593.4c0,0-7.4,4.2-16.9,0c-2.1-0.9-4.1-1.5-5.9-1.7"/>
							<path class="st2" d="M1136.1,593.5c0,0-7.4,4.2-16.9,0s-16.6,0-16.6,0"/>
						</g>
						<g>
							<path class="st2" d="M1152.8,593.2c-9.7-3.6-16.7,0.3-16.7,0.3"/>
						</g>
					</g>
				</g>
			</g>
			<g>
				<g>
					<g>
						<g>
							<path class="st2" d="M1069.3,593.5c0,0-3.8,1.4-8.4,1.6"/>
							<path class="st2" d="M1102.7,593.5c0,0-7.4,4.2-16.9,0s-16.6,0-16.6,0"/>
						</g>
					</g>
				</g>
			</g>
		</g>
	</g>
	<g>
		<g>
			<g>
				<g>
					<g>
						<path class="st2" d="M1019,711.8c0,0-7.4-4.2-16.9,0"/>
						<path class="st2" d="M1052.4,711.7c0,0-7.4-4.2-16.9,0s-16.6,0-16.6,0"/>
						<path class="st2" d="M1085.9,711.7c0,0-7.4-4.2-16.9,0s-16.6,0-16.6,0"/>
					</g>
					<g>
						<path class="st2" d="M1094.4,713.6c-5.2,0.1-8.5-1.9-8.5-1.9"/>
					</g>
				</g>
				<g>
					<g>
						<g>
							<path class="st2" d="M905.6,710.3c0,0-7.4,4.2-16.9,0"/>
							<path class="st2" d="M938.9,710.4c0,0-7.4,4.2-16.9,0s-16.6,0-16.6,0"/>
							<path class="st2" d="M972.4,710.4c0,0-7.4,4.2-16.9,0s-16.6,0-16.6,0"/>
						</g>
						<g>
							<path class="st2" d="M1002.6,711.6c-3,0.8-8,1.3-13.6-1.2c-9.5-4.2-16.6,0-16.6,0"/>
						</g>
					</g>
					<g>
						<g>
							<path class="st2" d="M805.4,710.3c0,0-7.4,4.2-16.9,0"/>
							<path class="st2" d="M838.8,710.4c0,0-7.4,4.2-16.9,0s-16.6,0-16.6,0"/>
							<path class="st2" d="M872.2,710.4c0,0-7.4,4.2-16.9,0s-16.6,0-16.6,0"/>
						</g>
						<g>
							<path class="st2" d="M902.4,711.6c-3,0.8-8,1.3-13.6-1.2c-9.5-4.2-16.6,0-16.6,0"/>
						</g>
					</g>
				</g>
				<g>
					<g>
						<g>
							<path class="st2" d="M704.9,710.3c0,0-7.4,4.2-16.9,0"/>
							<path class="st2" d="M738.3,710.4c0,0-7.4,4.2-16.9,0s-16.6,0-16.6,0"/>
							<path class="st2" d="M771.8,710.4c0,0-7.4,4.2-16.9,0s-16.6,0-16.6,0"/>
						</g>
						<g>
							<path class="st2" d="M801.9,711.6c-3,0.8-8,1.3-13.6-1.2c-9.5-4.2-16.6,0-16.6,0"/>
						</g>
					</g>
					<g>
						<g>
							<path class="st2" d="M638.1,710.4c0,0-7.4,4.2-16.9,0c-2.1-0.9-4.1-1.5-5.9-1.7"/>
							<path class="st2" d="M671.6,710.4c0,0-7.4,4.2-16.9,0s-16.6,0-16.6,0"/>
						</g>
						<g>
							<path class="st2" d="M701.8,711.6c-3,0.8-8,1.3-13.6-1.2c-9.5-4.2-16.6,0-16.6,0"/>
						</g>
					</g>
				</g>
			</g>
			<g>
				<g>
					<g>
						<g>
							<path class="st2" d="M569.4,710c0,0-7.4,4.2-16.9,0c-2.1-0.9-4.1-1.5-5.9-1.7"/>
							<path class="st2" d="M602.8,710c0,0-7.4,4.2-16.9,0s-16.6,0-16.6,0"/>
						</g>
						<g>
							<path class="st2" d="M619.5,709.7c-9.7-3.6-16.7,0.3-16.7,0.3"/>
						</g>
					</g>
				</g>
			</g>
			<g>
				<g>
					<g>
						<g>
							<path class="st2" d="M501.2,710c0,0-7.4,4.2-16.9,0c-2.1-0.9-4.1-1.5-5.9-1.7"/>
							<path class="st2" d="M534.7,710c0,0-7.4,4.2-16.9,0s-16.6,0-16.6,0"/>
						</g>
						<g>
							<path class="st2" d="M551.3,709.7c-9.7-3.6-16.7,0.3-16.7,0.3"/>
						</g>
					</g>
				</g>
			</g>
			<g>
				<g>
					<g>
						<g>
							<path class="st2" d="M467.8,710.1c0,0-3.8,1.4-8.4,1.6"/>
							<path class="st2" d="M501.2,710.1c0,0-7.4,4.2-16.9,0s-16.6,0-16.6,0"/>
						</g>
					</g>
				</g>
			</g>
		</g>
		<g>
			<g>
				<g>
					<g>
						<g>
							<path class="st2" d="M1306.4,712c0,0-7.4,4.2-16.9,0"/>
							<path class="st2" d="M1339.8,712.1c0,0-7.4,4.2-16.9,0s-16.6,0-16.6,0"/>
							<path class="st2" d="M1356.4,712.1c-9.5-4.2-16.6,0-16.6,0"/>
						</g>
					</g>
					<g>
						<g>
							<path class="st2" d="M1239.6,712.1c0,0-7.4,4.2-16.9,0c-2.1-0.9-4.1-1.5-5.9-1.7"/>
							<path class="st2" d="M1273.1,712.1c0,0-7.4,4.2-16.9,0s-16.6,0-16.6,0"/>
						</g>
						<g>
							<path class="st2" d="M1303.2,713.3c-3,0.8-8,1.3-13.6-1.2c-9.5-4.2-16.6,0-16.6,0"/>
						</g>
					</g>
				</g>
			</g>
			<g>
				<g>
					<g>
						<g>
							<path class="st2" d="M1170.9,711.7c0,0-7.4,4.2-16.9,0c-2.1-0.9-4.1-1.5-5.9-1.7"/>
							<path class="st2" d="M1204.3,711.7c0,0-7.4,4.2-16.9,0s-16.6,0-16.6,0"/>
						</g>
						<g>
							<path class="st2" d="M1221,711.4c-9.7-3.6-16.7,0.3-16.7,0.3"/>
						</g>
					</g>
				</g>
			</g>
			<g>
				<g>
					<g>
						<g>
							<path class="st2" d="M1102.7,711.7c0,0-7.4,4.2-16.9,0c-2.1-0.9-4.1-1.5-5.9-1.7"/>
							<path class="st2" d="M1136.1,711.7c0,0-7.4,4.2-16.9,0s-16.6,0-16.6,0"/>
						</g>
						<g>
							<path class="st2" d="M1152.8,711.4c-9.7-3.6-16.7,0.3-16.7,0.3"/>
						</g>
					</g>
				</g>
			</g>
			<g>
				<g>
					<g>
						<g>
							<path class="st2" d="M1069.3,711.8c0,0-3.8,1.4-8.4,1.6"/>
							<path class="st2" d="M1102.7,711.8c0,0-7.4,4.2-16.9,0s-16.6,0-16.6,0"/>
						</g>
					</g>
				</g>
			</g>
		</g>
	</g>
	<g>
		<g>
			<g>
				<g>
					<g>
						<path class="st2" d="M180.3,709.6c0,0-7.4-4.2-16.9,0"/>
						<path class="st2" d="M213.7,709.6c0,0-7.4-4.2-16.9,0s-16.6,0-16.6,0"/>
					</g>
					<g>
						<path class="st2" d="M222.2,711.4c-5.2,0.1-8.5-1.9-8.5-1.9"/>
					</g>
				</g>
			</g>
		</g>
		<g>
			<g>
				<g>
					<g>
						<g>
							<path class="st2" d="M434.2,709.9c0,0-7.4,4.2-16.9,0"/>
							<path class="st2" d="M467.6,710c0,0-7.4,4.2-16.9,0s-16.6,0-16.6,0"/>
							<path class="st2" d="M484.2,710c-9.5-4.2-16.6,0-16.6,0"/>
						</g>
					</g>
					<g>
						<g>
							<path class="st2" d="M367.5,710c0,0-7.4,4.2-16.9,0c-2.1-0.9-4.1-1.5-5.9-1.7"/>
							<path class="st2" d="M400.9,710c0,0-7.4,4.2-16.9,0s-16.6,0-16.6,0"/>
						</g>
						<g>
							<path class="st2" d="M431.1,711.2c-3,0.8-8,1.3-13.6-1.2c-9.5-4.2-16.6,0-16.6,0"/>
						</g>
					</g>
				</g>
			</g>
			<g>
				<g>
					<g>
						<g>
							<path class="st2" d="M298.7,709.6c0,0-7.4,4.2-16.9,0c-2.1-0.9-4.1-1.5-5.9-1.7"/>
							<path class="st2" d="M332.2,709.6c0,0-7.4,4.2-16.9,0s-16.6,0-16.6,0"/>
						</g>
						<g>
							<path class="st2" d="M348.9,709.3c-9.7-3.6-16.7,0.3-16.7,0.3"/>
						</g>
					</g>
				</g>
			</g>
			<g>
				<g>
					<g>
						<g>
							<path class="st2" d="M230.5,709.6c0,0-7.4,4.2-16.9,0c-2.1-0.9-4.1-1.5-5.9-1.7"/>
							<path class="st2" d="M264,709.6c0,0-7.4,4.2-16.9,0s-16.6,0-16.6,0"/>
						</g>
						<g>
							<path class="st2" d="M280.7,709.3c-9.7-3.6-16.7,0.3-16.7,0.3"/>
						</g>
					</g>
				</g>
			</g>
			<g>
				<g>
					<g>
						<g>
							<path class="st2" d="M197.1,709.6c0,0-3.8,1.4-8.4,1.6"/>
							<path class="st2" d="M230.6,709.7c0,0-7.4,4.2-16.9,0s-16.6,0-16.6,0"/>
						</g>
					</g>
				</g>
			</g>
		</g>
	</g>
	<g>
		<g>
			<g>
				<g>
					<g>
						<g>
							<g>
								<path class="st2" d="M503.8,736.6c0,0-10.1,5.2-19.5,1c-2.1-0.9-4.1-1.5-5.9-1.7"/>
							</g>
						</g>
					</g>
				</g>
				<g>
					<g>
						<g>
							<g>
								<path class="st2" d="M467.8,737.7c0,0-3.8,1.4-8.4,1.6"/>
								<path class="st2" d="M503.9,736.7c0,0-10.1,5.2-19.5,1c-9.5-4.2-16.6,0-16.6,0"/>
							</g>
						</g>
					</g>
				</g>
			</g>
		</g>
		<g>
			<g>
				<g>
					<g>
						<g>
							<path class="st2" d="M180.3,737.2c0,0-7.4-4.2-16.9,0"/>
							<path class="st2" d="M213.7,737.2c0,0-7.4-4.2-16.9,0s-16.6,0-16.6,0"/>
						</g>
						<g>
							<path class="st2" d="M222.2,739.1c-5.2,0.1-8.5-1.9-8.5-1.9"/>
						</g>
					</g>
				</g>
			</g>
			<g>
				<g>
					<g>
						<g>
							<g>
								<path class="st2" d="M434.2,737.5c0,0-7.4,4.2-16.9,0"/>
								<path class="st2" d="M467.6,737.6c0,0-7.4,4.2-16.9,0s-16.6,0-16.6,0"/>
								<path class="st2" d="M484.2,737.6c-9.5-4.2-16.6,0-16.6,0"/>
							</g>
						</g>
						<g>
							<g>
								<path class="st2" d="M367.5,737.6c0,0-7.4,4.2-16.9,0c-2.1-0.9-4.1-1.5-5.9-1.7"/>
								<path class="st2" d="M400.9,737.6c0,0-7.4,4.2-16.9,0s-16.6,0-16.6,0"/>
							</g>
							<g>
								<path class="st2" d="M431.1,738.9c-3,0.8-8,1.3-13.6-1.2c-9.5-4.2-16.6,0-16.6,0"/>
							</g>
						</g>
					</g>
				</g>
				<g>
					<g>
						<g>
							<g>
								<path class="st2" d="M298.7,737.2c0,0-7.4,4.2-16.9,0c-2.1-0.9-4.1-1.5-5.9-1.7"/>
								<path class="st2" d="M332.2,737.2c0,0-7.4,4.2-16.9,0s-16.6,0-16.6,0"/>
							</g>
							<g>
								<path class="st2" d="M348.9,737c-9.7-3.6-16.7,0.3-16.7,0.3"/>
							</g>
						</g>
					</g>
				</g>
				<g>
					<g>
						<g>
							<g>
								<path class="st2" d="M230.5,737.2c0,0-7.4,4.2-16.9,0c-2.1-0.9-4.1-1.5-5.9-1.7"/>
								<path class="st2" d="M264,737.2c0,0-7.4,4.2-16.9,0s-16.6,0-16.6,0"/>
							</g>
							<g>
								<path class="st2" d="M280.7,737c-9.7-3.6-16.7,0.3-16.7,0.3"/>
							</g>
						</g>
					</g>
				</g>
				<g>
					<g>
						<g>
							<g>
								<path class="st2" d="M197.1,737.3c0,0-3.8,1.4-8.4,1.6"/>
								<path class="st2" d="M230.6,737.3c0,0-7.4,4.2-16.9,0s-16.6,0-16.6,0"/>
							</g>
						</g>
					</g>
				</g>
			</g>
		</g>
	</g>
	<g>
		<g>
			<g>
				<g>
					<g>
						<g>
							<path class="st2" d="M1037,784.6c0,0-7.4-4.2-16.9,0"/>
							<path class="st2" d="M1070.4,784.5c0,0-7.4-4.2-16.9,0s-16.6,0-16.6,0"/>
							<path class="st2" d="M1103.9,784.5c0,0-7.4-4.2-16.9,0s-16.6,0-16.6,0"/>
						</g>
						<g>
							<path class="st2" d="M1112.4,786.4c-5.2,0.1-8.5-1.9-8.5-1.9"/>
						</g>
					</g>
					<g>
						<g>
							<g>
								<path class="st2" d="M923.5,783.2c0,0-7.4,4.2-16.9,0"/>
								<path class="st2" d="M956.9,783.2c0,0-7.4,4.2-16.9,0s-16.6,0-16.6,0"/>
								<path class="st2" d="M990.4,783.2c0,0-7.4,4.2-16.9,0s-16.6,0-16.6,0"/>
							</g>
							<g>
								<path class="st2" d="M1020.6,784.5c-3,0.8-8,1.3-13.6-1.2c-9.5-4.2-16.6,0-16.6,0"/>
							</g>
						</g>
						<g>
							<g>
								<path class="st2" d="M823.4,783.2c0,0-7.4,4.2-16.9,0"/>
								<path class="st2" d="M856.8,783.2c0,0-7.4,4.2-16.9,0s-16.6,0-16.6,0"/>
								<path class="st2" d="M890.2,783.2c0,0-7.4,4.2-16.9,0s-16.6,0-16.6,0"/>
							</g>
							<g>
								<path class="st2" d="M920.4,784.5c-3,0.8-8,1.3-13.6-1.2c-9.5-4.2-16.6,0-16.6,0"/>
							</g>
						</g>
					</g>
					<g>
						<g>
							<g>
								<path class="st2" d="M722.9,783.2c0,0-7.4,4.2-16.9,0"/>
								<path class="st2" d="M756.3,783.2c0,0-7.4,4.2-16.9,0s-16.6,0-16.6,0"/>
								<path class="st2" d="M789.7,783.2c0,0-7.4,4.2-16.9,0s-16.6,0-16.6,0"/>
							</g>
							<g>
								<path class="st2" d="M819.9,784.5c-3,0.8-8,1.3-13.6-1.2c-9.5-4.2-16.6,0-16.6,0"/>
							</g>
						</g>
						<g>
							<g>
								<path class="st2" d="M656.1,783.2c0,0-7.4,4.2-16.9,0c-2.1-0.9-4.1-1.5-5.9-1.7"/>
								<path class="st2" d="M689.6,783.2c0,0-7.4,4.2-16.9,0s-16.6,0-16.6,0"/>
							</g>
							<g>
								<path class="st2" d="M719.7,784.5c-3,0.8-8,1.3-13.6-1.2c-9.5-4.2-16.6,0-16.6,0"/>
							</g>
						</g>
					</g>
				</g>
				<g>
					<g>
						<g>
							<g>
								<path class="st2" d="M587.4,782.8c0,0-7.4,4.2-16.9,0c-2.1-0.9-4.1-1.5-5.9-1.7"/>
								<path class="st2" d="M620.8,782.8c0,0-7.4,4.2-16.9,0s-16.6,0-16.6,0"/>
							</g>
							<g>
								<path class="st2" d="M637.5,782.6c-9.7-3.6-16.7,0.3-16.7,0.3"/>
							</g>
						</g>
					</g>
				</g>
				<g>
					<g>
						<g>
							<g>
								<path class="st2" d="M552.6,782.8c0,0-7.4,4.2-16.9,0s-16.6,0-16.6,0"/>
							</g>
							<g>
								<path class="st2" d="M569.3,782.6c-9.7-3.6-16.7,0.3-16.7,0.3"/>
							</g>
						</g>
					</g>
				</g>
				<g>
					<g>
						<g>
							<g>
								<path class="st2" d="M519.2,782.9c0,0-5.5,2.5-12.3,1.4"/>
							</g>
						</g>
					</g>
				</g>
			</g>
			<g>
				<g>
					<g>
						<g>
							<g>
								<path class="st2" d="M1120.6,784.5c0,0-7.4,4.2-16.9,0c-2.1-0.9-4.1-1.5-5.9-1.7"/>
								<path class="st2" d="M1137.3,784.5c-9.5-4.2-16.6,0-16.6,0"/>
							</g>
						</g>
					</g>
				</g>
				<g>
					<g>
						<g>
							<g>
								<path class="st2" d="M1087.2,784.6c0,0-3.8,1.4-8.4,1.6"/>
								<path class="st2" d="M1120.7,784.6c0,0-7.4,4.2-16.9,0s-16.6,0-16.6,0"/>
							</g>
						</g>
					</g>
				</g>
			</g>
		</g>
	</g>
	<g>
		<g>
			<g>
				<g>
					<path class="st2" d="M909.1,150.9c0,0-4.2,7.4,0,16.9"/>
					<path class="st2" d="M909.1,117.5c0,0-4.2,7.4,0,16.9s0,16.6,0,16.6"/>
					<path class="st2" d="M909,84c0,0-4.2,7.4,0,16.9s0,16.6,0,16.6"/>
				</g>
				<g>
					<path class="st2" d="M910.9,75.5C911,80.7,909,84,909,84"/>
				</g>
			</g>
			<g>
				<g>
					<g>
						<path class="st2" d="M907.7,264.4c0,0,4.2,7.4,0,16.9"/>
						<path class="st2" d="M907.7,231c0,0,4.2,7.4,0,16.9s0,16.6,0,16.6"/>
						<path class="st2" d="M907.7,197.5c0,0,4.2,7.4,0,16.9s0,16.6,0,16.6"/>
					</g>
					<g>
						<path class="st2" d="M909,167.3c0.8,3,1.3,8-1.2,13.6c-4.2,9.5,0,16.6,0,16.6"/>
					</g>
				</g>
				<g>
					<g>
						<path class="st2" d="M907.7,364.5c0,0,4.2,7.4,0,16.9"/>
						<path class="st2" d="M907.7,331.1c0,0,4.2,7.4,0,16.9s0,16.6,0,16.6"/>
						<path class="st2" d="M907.7,297.7c0,0,4.2,7.4,0,16.9s0,16.6,0,16.6"/>
					</g>
					<g>
						<path class="st2" d="M909,267.5c0.8,3,1.3,8-1.2,13.6c-4.2,9.5,0,16.6,0,16.6"/>
					</g>
				</g>
			</g>
			<g>
				<g>
					<g>
						<path class="st2" d="M907.7,465c0,0,4.2,7.4,0,16.9"/>
						<path class="st2" d="M907.7,431.6c0,0,4.2,7.4,0,16.9s0,16.6,0,16.6"/>
						<path class="st2" d="M907.7,398.2c0,0,4.2,7.4,0,16.9s0,16.6,0,16.6"/>
					</g>
					<g>
						<path class="st2" d="M909,368c0.8,3,1.3,8-1.2,13.6c-4.2,9.5,0,16.6,0,16.6"/>
					</g>
				</g>
				<g>
					<g>
						<path class="st2" d="M907.7,531.8c0,0,4.2,7.4,0,16.9c-0.9,2.1-1.5,4.1-1.7,5.9"/>
						<path class="st2" d="M907.7,498.3c0,0,4.2,7.4,0,16.9c-4.2,9.5,0,16.6,0,16.6"/>
					</g>
					<g>
						<path class="st2" d="M909,468.2c0.8,3,1.3,8-1.2,13.6c-4.2,9.5,0,16.6,0,16.6"/>
					</g>
				</g>
			</g>
		</g>
		<g>
			<g>
				<g>
					<g>
						<path class="st2" d="M907.3,600.5c0,0,4.2,7.4,0,16.9c-0.9,2.1-1.5,4.1-1.7,5.9"/>
						<path class="st2" d="M907.4,567.1c0,0,4.2,7.4,0,16.9s0,16.6,0,16.6"/>
					</g>
					<g>
						<path class="st2" d="M907.1,550.4c-3.6,9.7,0.3,16.7,0.3,16.7"/>
					</g>
				</g>
			</g>
		</g>
		<g>
			<g>
				<g>
					<g>
						<path class="st2" d="M907.3,668.7c0,0,4.2,7.4,0,16.9c-0.9,2.1-1.5,4.1-1.7,5.9"/>
						<path class="st2" d="M907.4,635.3c0,0,4.2,7.4,0,16.9s0,16.6,0,16.6"/>
					</g>
					<g>
						<path class="st2" d="M907.1,618.6c-3.6,9.7,0.3,16.7,0.3,16.7"/>
					</g>
				</g>
			</g>
		</g>
		<g>
			<g>
				<g>
					<g>
						<path class="st2" d="M907.4,702.2c0,0,1.4,3.8,1.6,8.4"/>
						<path class="st2" d="M907.4,668.7c0,0,4.2,7.4,0,16.9s0,16.6,0,16.6"/>
					</g>
				</g>
			</g>
		</g>
	</g>
	<g>
		<g>
			<g>
				<g>
					<path class="st2" d="M1125.9,150.9c0,0-4.2,7.4,0,16.9"/>
					<path class="st2" d="M1125.8,117.5c0,0-4.2,7.4,0,16.9s0,16.6,0,16.6"/>
					<path class="st2" d="M1125.8,84c0,0-4.2,7.4,0,16.9s0,16.6,0,16.6"/>
				</g>
				<g>
					<path class="st2" d="M1127.7,75.5c0.1,5.2-1.9,8.5-1.9,8.5"/>
				</g>
			</g>
			<g>
				<g>
					<g>
						<path class="st2" d="M1124.5,264.4c0,0,4.2,7.4,0,16.9"/>
						<path class="st2" d="M1124.5,231c0,0,4.2,7.4,0,16.9s0,16.6,0,16.6"/>
						<path class="st2" d="M1124.5,197.5c0,0,4.2,7.4,0,16.9s0,16.6,0,16.6"/>
					</g>
					<g>
						<path class="st2" d="M1125.8,167.3c0.8,3,1.3,8-1.2,13.6c-4.2,9.5,0,16.6,0,16.6"/>
					</g>
				</g>
				<g>
					<g>
						<path class="st2" d="M1124.5,364.5c0,0,4.2,7.4,0,16.9"/>
						<path class="st2" d="M1124.5,331.1c0,0,4.2,7.4,0,16.9s0,16.6,0,16.6"/>
						<path class="st2" d="M1124.5,297.7c0,0,4.2,7.4,0,16.9s0,16.6,0,16.6"/>
					</g>
					<g>
						<path class="st2" d="M1125.8,267.5c0.8,3,1.3,8-1.2,13.6c-4.2,9.5,0,16.6,0,16.6"/>
					</g>
				</g>
			</g>
			<g>
				<g>
					<g>
						<path class="st2" d="M1124.5,465c0,0,4.2,7.4,0,16.9"/>
						<path class="st2" d="M1124.5,431.6c0,0,4.2,7.4,0,16.9s0,16.6,0,16.6"/>
						<path class="st2" d="M1124.5,398.2c0,0,4.2,7.4,0,16.9s0,16.6,0,16.6"/>
					</g>
					<g>
						<path class="st2" d="M1125.8,368c0.8,3,1.3,8-1.2,13.6c-4.2,9.5,0,16.6,0,16.6"/>
					</g>
				</g>
				<g>
					<g>
						<path class="st2" d="M1124.5,531.8c0,0,4.2,7.4,0,16.9c-0.9,2.1-1.5,4.1-1.7,5.9"/>
						<path class="st2" d="M1124.5,498.3c0,0,4.2,7.4,0,16.9c-4.2,9.5,0,16.6,0,16.6"/>
					</g>
					<g>
						<path class="st2" d="M1125.8,468.2c0.8,3,1.3,8-1.2,13.6c-4.2,9.5,0,16.6,0,16.6"/>
					</g>
				</g>
			</g>
		</g>
		<g>
			<g>
				<g>
					<g>
						<path class="st2" d="M1124.1,600.5c0,0,4.2,7.4,0,16.9c-0.9,2.1-1.5,4.1-1.7,5.9"/>
						<path class="st2" d="M1124.1,567.1c0,0,4.2,7.4,0,16.9s0,16.6,0,16.6"/>
					</g>
					<g>
						<path class="st2" d="M1123.9,550.4c-3.6,9.7,0.3,16.7,0.3,16.7"/>
					</g>
				</g>
			</g>
		</g>
		<g>
			<g>
				<g>
					<g>
						<path class="st2" d="M1124.1,668.7c0,0,4.2,7.4,0,16.9c-0.9,2.1-1.5,4.1-1.7,5.9"/>
						<path class="st2" d="M1124.1,635.3c0,0,4.2,7.4,0,16.9s0,16.6,0,16.6"/>
					</g>
					<g>
						<path class="st2" d="M1123.9,618.6c-3.6,9.7,0.3,16.7,0.3,16.7"/>
					</g>
				</g>
			</g>
		</g>
		<g>
			<g>
				<g>
					<g>
						<path class="st2" d="M1124.2,702.2c0,0,1.4,3.8,1.6,8.4"/>
						<path class="st2" d="M1124.2,668.7c0,0,4.2,7.4,0,16.9s0,16.6,0,16.6"/>
					</g>
				</g>
			</g>
		</g>
	</g>
	<g>
		<g>
			<g>
				<path class="st2" d="M160.2,600.3c0,0-7.4,4.2-16.9,0"/>
				<path class="st2" d="M193.6,600.4c0,0-7.4,4.2-16.9,0s-16.6,0-16.6,0"/>
				<path class="st2" d="M227,600.4c0,0-7.4,4.2-16.9,0s-16.6,0-16.6,0"/>
			</g>
			<g>
				<path class="st2" d="M257.2,601.7c-3,0.8-8,1.3-13.6-1.2c-9.5-4.2-16.6,0-16.6,0"/>
			</g>
		</g>
		<g>
			<g>
				<path class="st2" d="M93.4,600.4c0,0-7.4,4.2-16.9,0c-2.1-0.9-4.1-1.5-5.9-1.7"/>
				<path class="st2" d="M126.9,600.4c0,0-7.4,4.2-16.9,0s-16.6,0-16.6,0"/>
			</g>
			<g>
				<path class="st2" d="M157,601.7c-3,0.8-8,1.3-13.6-1.2c-9.5-4.2-16.6,0-16.6,0"/>
			</g>
		</g>
	</g>
	<g>
		<g>
			<g>
				<path class="st2" d="M263.9,687.8c0,0-7.4,4.2-16.9,0"/>
				<path class="st2" d="M297.5,687.8c0,0-7.6,4.3-17.1,0.1s-16.6,0-16.6,0"/>
			</g>
		</g>
		<g>
			<g>
				<path class="st2" d="M197.2,687.8c0,0-7.4,4.2-16.9,0c-2.1-0.9-4.1-1.5-5.9-1.7"/>
				<path class="st2" d="M230.6,687.9c0,0-7.4,4.2-16.9,0s-16.6,0-16.6,0"/>
			</g>
			<g>
				<path class="st2" d="M260.8,689.1c-3,0.8-8,1.3-13.6-1.2c-9.5-4.2-16.6,0-16.6,0"/>
			</g>
		</g>
	</g>
	<g>
		<g>
			<g>
				<path class="st2" d="M473.6,674.5c0,0-4.2-7.4,0-16.9"/>
				<path class="st2" d="M473.7,708.1c0,0-4.3-7.6-0.1-17.1c4.2-9.5,0-16.6,0-16.6"/>
			</g>
		</g>
		<g>
			<g>
				<path class="st2" d="M473.6,607.8c0,0-4.2-7.4,0-16.9"/>
				<path class="st2" d="M473.6,641.2c0,0-4.2-7.4,0-16.9s0-16.6,0-16.6"/>
			</g>
			<g>
				<path class="st2" d="M472.3,671.4c-0.8-3-1.3-8,1.2-13.6c4.2-9.5,0-16.6,0-16.6"/>
			</g>
		</g>
	</g>
	<g>
		<g>
			<g>
				<path class="st2" d="M505.3,759.2c0,0,4.2-7.4,0-16.9c-0.9-2.1-1.5-4.1-1.7-5.9"/>
				<path class="st2" d="M505.3,759.2c0,0-4.2,7.1,0,16.6c1.4,3.2,1.9,6.1,1.9,8.6"/>
			</g>
		</g>
	</g>
	<g>
		<g>
			<g>
				<path class="st2" d="M260.8,600.4c0,0-7.4,4.2-16.9,0c-2.1-0.9-4.1-1.5-5.9-1.7"/>
				<path class="st2" d="M294.3,600.4c0,0-7.4,4.2-16.9,0s-16.6,0-16.6,0"/>
			</g>
		</g>
	</g>
</g>
<g id="图层_8" class="st0">
	<line class="st3" x1="1441.8" y1="664.6" x2="1220.8" y2="664.6"/>
	<line class="st3" x1="1439.4" y1="662.5" x2="1439.4" y2="664.6"/>
	<line class="st3" x1="1310.1" y1="662.6" x2="1310.1" y2="664.6"/>
	<line class="st3" x1="1203" y1="690.3" x2="1013.1" y2="690.3"/>
	<polyline class="st3" points="1209.9,690.3 1211.7,690.3 1211.7,661.7 	"/>
	<line class="st3" x1="1214.8" y1="664.8" x2="1013.9" y2="664.8"/>
	<line class="st3" x1="1150" y1="662.6" x2="1150" y2="664.8"/>
	<line class="st3" x1="1008.5" y1="664.8" x2="760.8" y2="664.8"/>
	<line class="st3" x1="1005.7" y1="661.3" x2="1005.7" y2="664.8"/>
	<line class="st3" x1="929.4" y1="662.4" x2="929.4" y2="664.8"/>
	<line class="st3" x1="833.6" y1="662.6" x2="833.6" y2="664.8"/>
	<polyline class="st3" points="1007.6,690 565.4,690 565.4,685.5 	"/>
	<line class="st3" x1="754.1" y1="664.6" x2="577.1" y2="664.6"/>
	<line class="st3" x1="751.5" y1="660.7" x2="751.5" y2="664.6"/>
	<line class="st3" x1="661.1" y1="662.6" x2="661.1" y2="664.5"/>
	<line class="st3" x1="571.4" y1="664.7" x2="548.5" y2="664.7"/>
	<line class="st3" x1="553.9" y1="664.5" x2="553.9" y2="627.2"/>
	<line class="st3" x1="553.9" y1="630.1" x2="553.9" y2="606.5"/>
	<line class="st3" x1="553.9" y1="609" x2="553.9" y2="584.8"/>
	<polyline class="st3" points="565.4,680.3 565.4,668.3 548.9,668.3 	"/>
	<line class="st3" x1="544" y1="668.3" x2="515.3" y2="668.3"/>
	<line class="st3" x1="516.4" y1="668" x2="254.4" y2="668"/>
	<line class="st3" x1="543.8" y1="664.8" x2="515.1" y2="664.8"/>
	<line class="st3" x1="516.4" y1="664.3" x2="254.4" y2="664.3"/>
	<polyline class="st3" points="369.2,661.1 373,661.1 373,607.1 	"/>
	<line class="st3" x1="373.2" y1="609.9" x2="373.2" y2="601.3"/>
	<line class="st3" x1="364.5" y1="661" x2="254.4" y2="661"/>
	<line class="st3" x1="373" y1="621.2" x2="368.9" y2="621.2"/>
	<polyline class="st3" points="364.8,621.2 171.7,621.2 171.7,606.8 	"/>
	<line class="st3" x1="171.6" y1="610.1" x2="171.6" y2="602.4"/>
	<line class="st3" x1="171.6" y1="598.6" x2="171.6" y2="487.1"/>
	<line class="st3" x1="174.9" y1="596.4" x2="171.7" y2="596.4"/>
	<line class="st3" x1="171.6" y1="490.3" x2="171.6" y2="411.3"/>
	<line class="st3" x1="174.9" y1="443.2" x2="171.6" y2="443.2"/>
	<line class="st3" x1="171.7" y1="406.2" x2="171.7" y2="388.7"/>
	<line class="st3" x1="171.6" y1="392" x2="171.6" y2="287"/>
	<line class="st3" x1="171.6" y1="290.4" x2="171.6" y2="191.4"/>
	<line class="st3" x1="174.6" y1="227.8" x2="171.6" y2="227.8"/>
	<line class="st3" x1="171.6" y1="275.7" x2="168.8" y2="275.7"/>
	<line class="st3" x1="171.6" y1="329.9" x2="169" y2="329.9"/>
	<line class="st3" x1="174.7" y1="349.1" x2="171.6" y2="349.1"/>
	<polyline class="st3" points="171.6,186.2 171.6,113.6 224.9,113.6 	"/>
	<polyline class="st3" points="290.5,118 290.5,113.5 290.5,84.8 	"/>
	<line class="st3" x1="229.7" y1="113.4" x2="290.4" y2="113.4"/>
	<line class="st3" x1="373.2" y1="186.2" x2="373.2" y2="47.4"/>
	<line class="st3" x1="373.2" y1="431.2" x2="373.2" y2="192.1"/>
	<line class="st3" x1="370.4" y1="221.5" x2="373.2" y2="221.5"/>
	<line class="st3" x1="370.7" y1="393.8" x2="373.2" y2="393.8"/>
	<line class="st3" x1="373.2" y1="596.7" x2="373.2" y2="437.4"/>
	<line class="st3" x1="370.8" y1="537.4" x2="373.2" y2="537.4"/>
	<line class="st3" x1="751.6" y1="221.2" x2="751.6" y2="169.9"/>
	<line class="st3" x1="751.6" y1="183.5" x2="751.6" y2="159.3"/>
	<line class="st3" x1="751.8" y1="162.4" x2="751.8" y2="141.7"/>
	<line class="st3" x1="754.8" y1="217.9" x2="548.1" y2="217.9"/>
	<line class="st3" x1="661.1" y1="217.8" x2="661.1" y2="215.6"/>
	<line class="st3" x1="754.8" y1="307.3" x2="548.1" y2="307.3"/>
	<line class="st3" x1="751.8" y1="310.6" x2="751.8" y2="270"/>
	<line class="st3" x1="751.8" y1="272.9" x2="751.8" y2="249.1"/>
	<line class="st3" x1="751.8" y1="251.7" x2="751.8" y2="226.9"/>
	<line class="st3" x1="661.1" y1="307.3" x2="661.1" y2="305.2"/>
	<line class="st3" x1="1009.1" y1="218" x2="760.3" y2="218"/>
	<line class="st3" x1="1005.7" y1="221.9" x2="1005.7" y2="170.5"/>
	<line class="st3" x1="1005.5" y1="183.5" x2="1005.5" y2="159.9"/>
	<line class="st3" x1="1005.7" y1="162.4" x2="1005.7" y2="141.7"/>
	<line class="st3" x1="929.4" y1="218" x2="929.4" y2="215.6"/>
	<line class="st3" x1="833.6" y1="218" x2="833.6" y2="215.9"/>
	<line class="st3" x1="1214.8" y1="218" x2="1014.5" y2="218"/>
	<line class="st3" x1="1211.9" y1="221.9" x2="1211.9" y2="170.5"/>
	<line class="st3" x1="1211.9" y1="183.5" x2="1211.9" y2="159"/>
	<line class="st3" x1="1211.9" y1="162.4" x2="1211.9" y2="141.7"/>
	<line class="st3" x1="1150" y1="218" x2="1150" y2="216.1"/>
	<line class="st3" x1="1068.5" y1="218" x2="1068.5" y2="215.9"/>
	<line class="st3" x1="1005.6" y1="297.5" x2="1005.6" y2="270"/>
	<line class="st3" x1="1005.5" y1="272.9" x2="1005.5" y2="249.1"/>
	<line class="st3" x1="1005.5" y1="251.7" x2="1005.5" y2="227.5"/>
	<line class="st3" x1="1008.8" y1="396.6" x2="1002.6" y2="396.6"/>
	<line class="st3" x1="1441.8" y1="217.9" x2="1220.5" y2="217.9"/>
	<line class="st3" x1="1439.4" y1="215.6" x2="1439.4" y2="217.9"/>
	<line class="st3" x1="1367.5" y1="215.7" x2="1367.5" y2="217.9"/>
	<line class="st3" x1="1310.1" y1="216" x2="1310.1" y2="217.9"/>
	<line class="st3" x1="1008.7" y1="307.4" x2="759.8" y2="307.4"/>
	<line class="st3" x1="929.4" y1="305" x2="929.4" y2="307.4"/>
	<line class="st3" x1="833.6" y1="305.2" x2="833.6" y2="307.4"/>
	<line class="st3" x1="1211.9" y1="297.5" x2="1211.9" y2="270"/>
	<line class="st3" x1="1211.9" y1="272.6" x2="1211.9" y2="248.9"/>
	<line class="st3" x1="1211.9" y1="251.7" x2="1211.9" y2="226.8"/>
	<line class="st3" x1="1441.8" y1="307.2" x2="1220.6" y2="307.2"/>
	<line class="st3" x1="1439.4" y1="305" x2="1439.4" y2="307.2"/>
	<line class="st3" x1="1310.1" y1="305.1" x2="1310.1" y2="307.2"/>
	<line class="st3" x1="1211.8" y1="400.5" x2="1211.8" y2="359.2"/>
	<line class="st3" x1="1211.9" y1="362.1" x2="1211.9" y2="338.1"/>
	<line class="st3" x1="1211.9" y1="341" x2="1211.9" y2="302.9"/>
	<line class="st3" x1="1215" y1="307.4" x2="1013.8" y2="307.4"/>
	<line class="st3" x1="1150" y1="305" x2="1150" y2="307.1"/>
	<line class="st3" x1="1068.5" y1="305.2" x2="1068.5" y2="307.3"/>
	<line class="st3" x1="1005.9" y1="400.5" x2="1005.9" y2="358.5"/>
	<line class="st3" x1="1005.6" y1="362" x2="1005.6" y2="338.5"/>
	<line class="st3" x1="1005.8" y1="342" x2="1005.8" y2="303.6"/>
	<line class="st3" x1="1215" y1="396.7" x2="1013.8" y2="396.7"/>
	<line class="st3" x1="1441.8" y1="397.2" x2="1220.6" y2="397.2"/>
	<line class="st3" x1="1310.1" y1="397.1" x2="1310.1" y2="394.1"/>
	<line class="st3" x1="997.3" y1="396.6" x2="748.8" y2="396.6"/>
	<line class="st3" x1="751.8" y1="400.2" x2="751.8" y2="359.4"/>
	<line class="st3" x1="929.4" y1="396.4" x2="929.4" y2="393.6"/>
	<line class="st3" x1="833.6" y1="396.6" x2="833.6" y2="393.6"/>
	<polyline class="st3" points="743.3,396.6 573.6,396.6 547.4,396.6 	"/>
	<line class="st3" x1="573.6" y1="394.2" x2="573.6" y2="396.6"/>
	<line class="st3" x1="557.7" y1="394.2" x2="557.7" y2="396.6"/>
	<line class="st3" x1="751.8" y1="362" x2="751.8" y2="338"/>
	<line class="st3" x1="751.6" y1="341" x2="751.6" y2="315.9"/>
	<line class="st3" x1="1441.8" y1="486" x2="1209" y2="486"/>
	<line class="st3" x1="1439.4" y1="484" x2="1439.4" y2="486.1"/>
	<line class="st3" x1="1310.1" y1="483.9" x2="1310.1" y2="486.1"/>
	<line class="st3" x1="1211.9" y1="476.2" x2="1211.9" y2="449"/>
	<line class="st3" x1="1211.8" y1="451.2" x2="1211.8" y2="427.9"/>
	<line class="st3" x1="1211.7" y1="430.4" x2="1211.7" y2="406.2"/>
	<line class="st3" x1="1005.8" y1="476.7" x2="1005.8" y2="448.9"/>
	<line class="st3" x1="1005.6" y1="451.2" x2="1005.6" y2="428"/>
	<line class="st3" x1="1005.6" y1="430.4" x2="1005.6" y2="405.3"/>
	<line class="st3" x1="1211.9" y1="565.4" x2="1211.9" y2="537.2"/>
	<line class="st3" x1="1211.7" y1="540.8" x2="1211.7" y2="517.3"/>
	<line class="st3" x1="1211.9" y1="520" x2="1211.9" y2="481.9"/>
	<line class="st3" x1="1203" y1="485.9" x2="1002.9" y2="485.9"/>
	<line class="st3" x1="1005.6" y1="520" x2="1005.6" y2="481.9"/>
	<line class="st3" x1="1005.8" y1="540.8" x2="1005.8" y2="517.3"/>
	<line class="st3" x1="1005.8" y1="566.4" x2="1005.8" y2="537.2"/>
	<line class="st3" x1="996.8" y1="486.1" x2="748.1" y2="486.1"/>
	<line class="st3" x1="929.3" y1="483.8" x2="929.3" y2="486"/>
	<line class="st3" x1="833.6" y1="483.8" x2="833.6" y2="486.1"/>
	<line class="st3" x1="751.8" y1="489.4" x2="751.8" y2="447.9"/>
	<line class="st3" x1="751.5" y1="451.1" x2="751.5" y2="428.2"/>
	<line class="st3" x1="751.6" y1="430.4" x2="751.6" y2="406.2"/>
	<line class="st3" x1="742.9" y1="486.1" x2="547.4" y2="486.1"/>
	<line class="st3" x1="661.1" y1="483.8" x2="661.1" y2="486"/>
	<polyline class="st3" points="554.1,579.5 554.1,575.4 759.8,575.4 	"/>
	<line class="st3" x1="751.1" y1="579" x2="751.1" y2="570.6"/>
	<line class="st3" x1="661.1" y1="572.9" x2="661.1" y2="575.1"/>
	<line class="st3" x1="573.6" y1="573.1" x2="573.6" y2="575.4"/>
	<line class="st3" x1="1005.8" y1="655.7" x2="1005.8" y2="626.6"/>
	<line class="st3" x1="1005.8" y1="630" x2="1005.8" y2="605.7"/>
	<line class="st3" x1="1005.5" y1="609.4" x2="1005.5" y2="571"/>
	<line class="st3" x1="1008.5" y1="575.1" x2="764.6" y2="575.1"/>
	<line class="st3" x1="929.3" y1="572.9" x2="929.3" y2="575.1"/>
	<line class="st3" x1="833.5" y1="573" x2="833.5" y2="575.1"/>
	<line class="st3" x1="1211.9" y1="655.7" x2="1211.9" y2="626.6"/>
	<line class="st3" x1="1211.7" y1="630" x2="1211.7" y2="606.3"/>
	<line class="st3" x1="1211.9" y1="609.4" x2="1211.9" y2="571.7"/>
	<line class="st3" x1="1214.9" y1="575.3" x2="1014" y2="575.3"/>
	<line class="st3" x1="1441.8" y1="575.1" x2="1220.8" y2="575.1"/>
	<line class="st3" x1="1439.6" y1="572.8" x2="1439.6" y2="575.1"/>
	<line class="st3" x1="1367.5" y1="572.8" x2="1367.5" y2="575.1"/>
	<line class="st3" x1="1310.3" y1="572.9" x2="1310.3" y2="575.1"/>
	<line class="st3" x1="751.6" y1="655.7" x2="751.6" y2="627.2"/>
	<line class="st3" x1="751.6" y1="630.1" x2="751.6" y2="606.4"/>
	<line class="st3" x1="751.8" y1="609.3" x2="751.8" y2="584.6"/>
</g>
</svg>
