<?xml version="1.0" encoding="utf-8"?>
<!-- Generator: Adobe Illustrator 21.0.0, SVG Export Plug-In . SVG Version: 6.00 Build 0)  -->
<svg version="1.1" id="图层_1" xmlns="http://www.w3.org/2000/svg" xmlns:xlink="http://www.w3.org/1999/xlink" x="0px" y="0px"
	 viewBox="0 0 1808 820" style="enable-background:new 0 0 1808 820;" xml:space="preserve">
<style type="text/css">
	.st0{display:none;}
	.st1{display:inline;fill:none;stroke:#FF0000;stroke-width:2;stroke-miterlimit:10;}
	.st2{fill:#0E1D2D;}
	.st3{opacity:0.6;}
	.st4{fill:#B02053;}
	.st5{fill:#FF6464;stroke:#BC0606;stroke-width:0.5;stroke-miterlimit:10;}
	.st6{fill:#BC0C0C;}
	.st7{fill:none;stroke:#9E0000;stroke-width:0.5;stroke-miterlimit:10;}
	.st8{fill:#FF0000;}
	.st9{fill:none;stroke:#FF0000;stroke-width:0.5;stroke-miterlimit:10;}
</style>
<g id="图层_8" class="st0">
	<line class="st1" x1="1441.8" y1="664.6" x2="1220.8" y2="664.6"/>
	<line class="st1" x1="1439.4" y1="662.5" x2="1439.4" y2="664.6"/>
	<line class="st1" x1="1310.1" y1="662.6" x2="1310.1" y2="664.6"/>
	<line class="st1" x1="1203" y1="690.3" x2="1013.1" y2="690.3"/>
	<polyline class="st1" points="1209.9,690.3 1211.7,690.3 1211.7,661.7 	"/>
	<line class="st1" x1="1214.8" y1="664.8" x2="1013.9" y2="664.8"/>
	<line class="st1" x1="1150" y1="662.6" x2="1150" y2="664.8"/>
	<line class="st1" x1="1008.5" y1="664.8" x2="760.8" y2="664.8"/>
	<line class="st1" x1="1005.7" y1="661.3" x2="1005.7" y2="664.8"/>
	<line class="st1" x1="929.4" y1="662.4" x2="929.4" y2="664.8"/>
	<line class="st1" x1="833.6" y1="662.6" x2="833.6" y2="664.8"/>
	<polyline class="st1" points="1007.6,690 565.4,690 565.4,685.5 	"/>
	<line class="st1" x1="754.1" y1="664.6" x2="577.1" y2="664.6"/>
	<line class="st1" x1="751.5" y1="660.7" x2="751.5" y2="664.6"/>
	<line class="st1" x1="661.1" y1="662.6" x2="661.1" y2="664.5"/>
	<line class="st1" x1="571.4" y1="664.7" x2="548.5" y2="664.7"/>
	<line class="st1" x1="553.9" y1="664.5" x2="553.9" y2="627.2"/>
	<line class="st1" x1="553.9" y1="630.1" x2="553.9" y2="606.5"/>
	<line class="st1" x1="553.9" y1="609" x2="553.9" y2="584.8"/>
	<polyline class="st1" points="565.4,680.3 565.4,668.3 548.9,668.3 	"/>
	<line class="st1" x1="544" y1="668.3" x2="515.3" y2="668.3"/>
	<line class="st1" x1="516.4" y1="668" x2="254.4" y2="668"/>
	<line class="st1" x1="543.8" y1="664.8" x2="515.1" y2="664.8"/>
	<line class="st1" x1="516.4" y1="664.3" x2="254.4" y2="664.3"/>
	<polyline class="st1" points="369.2,661.1 373,661.1 373,607.1 	"/>
	<line class="st1" x1="373.2" y1="609.9" x2="373.2" y2="601.3"/>
	<line class="st1" x1="364.5" y1="661" x2="254.4" y2="661"/>
	<line class="st1" x1="373" y1="621.2" x2="368.9" y2="621.2"/>
	<polyline class="st1" points="364.8,621.2 171.7,621.2 171.7,606.8 	"/>
	<line class="st1" x1="171.6" y1="610.1" x2="171.6" y2="602.4"/>
	<line class="st1" x1="171.6" y1="598.6" x2="171.6" y2="487.1"/>
	<line class="st1" x1="174.9" y1="596.4" x2="171.7" y2="596.4"/>
	<line class="st1" x1="171.6" y1="490.3" x2="171.6" y2="411.3"/>
	<line class="st1" x1="174.9" y1="443.2" x2="171.6" y2="443.2"/>
	<line class="st1" x1="171.7" y1="406.2" x2="171.7" y2="388.7"/>
	<line class="st1" x1="171.6" y1="392" x2="171.6" y2="287"/>
	<line class="st1" x1="171.6" y1="290.4" x2="171.6" y2="191.4"/>
	<line class="st1" x1="174.6" y1="227.8" x2="171.6" y2="227.8"/>
	<line class="st1" x1="171.6" y1="275.7" x2="168.8" y2="275.7"/>
	<line class="st1" x1="171.6" y1="329.9" x2="169" y2="329.9"/>
	<line class="st1" x1="174.7" y1="349.1" x2="171.6" y2="349.1"/>
	<polyline class="st1" points="171.6,186.2 171.6,113.6 224.9,113.6 	"/>
	<polyline class="st1" points="290.5,118 290.5,113.5 290.5,84.8 	"/>
	<line class="st1" x1="229.7" y1="113.4" x2="290.4" y2="113.4"/>
	<line class="st1" x1="373.2" y1="186.2" x2="373.2" y2="47.4"/>
	<line class="st1" x1="373.2" y1="431.2" x2="373.2" y2="192.1"/>
	<line class="st1" x1="370.4" y1="221.5" x2="373.2" y2="221.5"/>
	<line class="st1" x1="370.7" y1="393.8" x2="373.2" y2="393.8"/>
	<line class="st1" x1="373.2" y1="596.7" x2="373.2" y2="437.4"/>
	<line class="st1" x1="370.8" y1="537.4" x2="373.2" y2="537.4"/>
	<line class="st1" x1="751.6" y1="221.2" x2="751.6" y2="169.9"/>
	<line class="st1" x1="751.6" y1="183.5" x2="751.6" y2="159.3"/>
	<line class="st1" x1="751.8" y1="162.4" x2="751.8" y2="141.7"/>
	<line class="st1" x1="754.8" y1="217.9" x2="548.1" y2="217.9"/>
	<line class="st1" x1="661.1" y1="217.8" x2="661.1" y2="215.6"/>
	<line class="st1" x1="754.8" y1="307.3" x2="548.1" y2="307.3"/>
	<line class="st1" x1="751.8" y1="310.6" x2="751.8" y2="270"/>
	<line class="st1" x1="751.8" y1="272.9" x2="751.8" y2="249.1"/>
	<line class="st1" x1="751.8" y1="251.7" x2="751.8" y2="226.9"/>
	<line class="st1" x1="661.1" y1="307.3" x2="661.1" y2="305.2"/>
	<line class="st1" x1="1009.1" y1="218" x2="760.3" y2="218"/>
	<line class="st1" x1="1005.7" y1="221.9" x2="1005.7" y2="170.5"/>
	<line class="st1" x1="1005.5" y1="183.5" x2="1005.5" y2="159.9"/>
	<line class="st1" x1="1005.7" y1="162.4" x2="1005.7" y2="141.7"/>
	<line class="st1" x1="929.4" y1="218" x2="929.4" y2="215.6"/>
	<line class="st1" x1="833.6" y1="218" x2="833.6" y2="215.9"/>
	<line class="st1" x1="1214.8" y1="218" x2="1014.5" y2="218"/>
	<line class="st1" x1="1211.9" y1="221.9" x2="1211.9" y2="170.5"/>
	<line class="st1" x1="1211.9" y1="183.5" x2="1211.9" y2="159"/>
	<line class="st1" x1="1211.9" y1="162.4" x2="1211.9" y2="141.7"/>
	<line class="st1" x1="1150" y1="218" x2="1150" y2="216.1"/>
	<line class="st1" x1="1068.5" y1="218" x2="1068.5" y2="215.9"/>
	<line class="st1" x1="1005.6" y1="297.5" x2="1005.6" y2="270"/>
	<line class="st1" x1="1005.5" y1="272.9" x2="1005.5" y2="249.1"/>
	<line class="st1" x1="1005.5" y1="251.7" x2="1005.5" y2="227.5"/>
	<line class="st1" x1="1008.8" y1="396.6" x2="1002.6" y2="396.6"/>
	<line class="st1" x1="1441.8" y1="217.9" x2="1220.5" y2="217.9"/>
	<line class="st1" x1="1439.4" y1="215.6" x2="1439.4" y2="217.9"/>
	<line class="st1" x1="1367.5" y1="215.7" x2="1367.5" y2="217.9"/>
	<line class="st1" x1="1310.1" y1="216" x2="1310.1" y2="217.9"/>
	<line class="st1" x1="1008.7" y1="307.4" x2="759.8" y2="307.4"/>
	<line class="st1" x1="929.4" y1="305" x2="929.4" y2="307.4"/>
	<line class="st1" x1="833.6" y1="305.2" x2="833.6" y2="307.4"/>
	<line class="st1" x1="1211.9" y1="297.5" x2="1211.9" y2="270"/>
	<line class="st1" x1="1211.9" y1="272.6" x2="1211.9" y2="248.9"/>
	<line class="st1" x1="1211.9" y1="251.7" x2="1211.9" y2="226.8"/>
	<line class="st1" x1="1441.8" y1="307.2" x2="1220.6" y2="307.2"/>
	<line class="st1" x1="1439.4" y1="305" x2="1439.4" y2="307.2"/>
	<line class="st1" x1="1310.1" y1="305.1" x2="1310.1" y2="307.2"/>
	<line class="st1" x1="1211.8" y1="400.5" x2="1211.8" y2="359.2"/>
	<line class="st1" x1="1211.9" y1="362.1" x2="1211.9" y2="338.1"/>
	<line class="st1" x1="1211.9" y1="341" x2="1211.9" y2="302.9"/>
	<line class="st1" x1="1215" y1="307.4" x2="1013.8" y2="307.4"/>
	<line class="st1" x1="1150" y1="305" x2="1150" y2="307.1"/>
	<line class="st1" x1="1068.5" y1="305.2" x2="1068.5" y2="307.3"/>
	<line class="st1" x1="1005.9" y1="400.5" x2="1005.9" y2="358.5"/>
	<line class="st1" x1="1005.6" y1="362" x2="1005.6" y2="338.5"/>
	<line class="st1" x1="1005.8" y1="342" x2="1005.8" y2="303.6"/>
	<line class="st1" x1="1215" y1="396.7" x2="1013.8" y2="396.7"/>
	<line class="st1" x1="1441.8" y1="397.2" x2="1220.6" y2="397.2"/>
	<line class="st1" x1="1310.1" y1="397.1" x2="1310.1" y2="394.1"/>
	<line class="st1" x1="997.3" y1="396.6" x2="748.8" y2="396.6"/>
	<line class="st1" x1="751.8" y1="400.2" x2="751.8" y2="359.4"/>
	<line class="st1" x1="929.4" y1="396.4" x2="929.4" y2="393.6"/>
	<line class="st1" x1="833.6" y1="396.6" x2="833.6" y2="393.6"/>
	<polyline class="st1" points="743.3,396.6 573.6,396.6 547.4,396.6 	"/>
	<line class="st1" x1="573.6" y1="394.2" x2="573.6" y2="396.6"/>
	<line class="st1" x1="557.7" y1="394.2" x2="557.7" y2="396.6"/>
	<line class="st1" x1="751.8" y1="362" x2="751.8" y2="338"/>
	<line class="st1" x1="751.6" y1="341" x2="751.6" y2="315.9"/>
	<line class="st1" x1="1441.8" y1="486" x2="1209" y2="486"/>
	<line class="st1" x1="1439.4" y1="484" x2="1439.4" y2="486.1"/>
	<line class="st1" x1="1310.1" y1="483.9" x2="1310.1" y2="486.1"/>
	<line class="st1" x1="1211.9" y1="476.2" x2="1211.9" y2="449"/>
	<line class="st1" x1="1211.8" y1="451.2" x2="1211.8" y2="427.9"/>
	<line class="st1" x1="1211.7" y1="430.4" x2="1211.7" y2="406.2"/>
	<line class="st1" x1="1005.8" y1="476.7" x2="1005.8" y2="448.9"/>
	<line class="st1" x1="1005.6" y1="451.2" x2="1005.6" y2="428"/>
	<line class="st1" x1="1005.6" y1="430.4" x2="1005.6" y2="405.3"/>
	<line class="st1" x1="1211.9" y1="565.4" x2="1211.9" y2="537.2"/>
	<line class="st1" x1="1211.7" y1="540.8" x2="1211.7" y2="517.3"/>
	<line class="st1" x1="1211.9" y1="520" x2="1211.9" y2="481.9"/>
	<line class="st1" x1="1203" y1="485.9" x2="1002.9" y2="485.9"/>
	<line class="st1" x1="1005.6" y1="520" x2="1005.6" y2="481.9"/>
	<line class="st1" x1="1005.8" y1="540.8" x2="1005.8" y2="517.3"/>
	<line class="st1" x1="1005.8" y1="566.4" x2="1005.8" y2="537.2"/>
	<line class="st1" x1="996.8" y1="486.1" x2="748.1" y2="486.1"/>
	<line class="st1" x1="929.3" y1="483.8" x2="929.3" y2="486"/>
	<line class="st1" x1="833.6" y1="483.8" x2="833.6" y2="486.1"/>
	<line class="st1" x1="751.8" y1="489.4" x2="751.8" y2="447.9"/>
	<line class="st1" x1="751.5" y1="451.1" x2="751.5" y2="428.2"/>
	<line class="st1" x1="751.6" y1="430.4" x2="751.6" y2="406.2"/>
	<line class="st1" x1="742.9" y1="486.1" x2="547.4" y2="486.1"/>
	<line class="st1" x1="661.1" y1="483.8" x2="661.1" y2="486"/>
	<polyline class="st1" points="554.1,579.5 554.1,575.4 759.8,575.4 	"/>
	<line class="st1" x1="751.1" y1="579" x2="751.1" y2="570.6"/>
	<line class="st1" x1="661.1" y1="572.9" x2="661.1" y2="575.1"/>
	<line class="st1" x1="573.6" y1="573.1" x2="573.6" y2="575.4"/>
	<line class="st1" x1="1005.8" y1="655.7" x2="1005.8" y2="626.6"/>
	<line class="st1" x1="1005.8" y1="630" x2="1005.8" y2="605.7"/>
	<line class="st1" x1="1005.5" y1="609.4" x2="1005.5" y2="571"/>
	<line class="st1" x1="1008.5" y1="575.1" x2="764.6" y2="575.1"/>
	<line class="st1" x1="929.3" y1="572.9" x2="929.3" y2="575.1"/>
	<line class="st1" x1="833.5" y1="573" x2="833.5" y2="575.1"/>
	<line class="st1" x1="1211.9" y1="655.7" x2="1211.9" y2="626.6"/>
	<line class="st1" x1="1211.7" y1="630" x2="1211.7" y2="606.3"/>
	<line class="st1" x1="1211.9" y1="609.4" x2="1211.9" y2="571.7"/>
	<line class="st1" x1="1214.9" y1="575.3" x2="1014" y2="575.3"/>
	<line class="st1" x1="1441.8" y1="575.1" x2="1220.8" y2="575.1"/>
	<line class="st1" x1="1439.6" y1="572.8" x2="1439.6" y2="575.1"/>
	<line class="st1" x1="1367.5" y1="572.8" x2="1367.5" y2="575.1"/>
	<line class="st1" x1="1310.3" y1="572.9" x2="1310.3" y2="575.1"/>
	<line class="st1" x1="751.6" y1="655.7" x2="751.6" y2="627.2"/>
	<line class="st1" x1="751.6" y1="630.1" x2="751.6" y2="606.4"/>
	<line class="st1" x1="751.8" y1="609.3" x2="751.8" y2="584.6"/>
</g>
<g id="灭火弹">
	<g>
		<g>
			<g>
				<circle class="st2" cx="126.2" cy="548.8" r="8.1"/>
			</g>
			<g class="st3">
				<circle class="st4" cx="126.2" cy="548.8" r="8.1"/>
			</g>
		</g>
		<rect x="124.9" y="544.7" class="st5" width="2.4" height="1.6"/>
		<g>
			<g>
				<circle class="st6" cx="126.2" cy="549.4" r="3.5"/>
				<circle class="st7" cx="126.2" cy="549.4" r="3.5"/>
			</g>
			<g class="st3">
				<circle class="st8" cx="126.2" cy="549.4" r="3.5"/>
				<circle class="st9" cx="126.2" cy="549.4" r="3.5"/>
			</g>
		</g>
	</g>
	<g>
		<g>
			<g>
				<circle class="st2" cx="199.5" cy="518" r="8.1"/>
			</g>
			<g class="st3">
				<circle class="st4" cx="199.5" cy="518" r="8.1"/>
			</g>
		</g>
		<rect x="198.2" y="513.9" class="st5" width="2.4" height="1.6"/>
		<g>
			<g>
				<circle class="st6" cx="199.5" cy="518.6" r="3.5"/>
				<circle class="st7" cx="199.5" cy="518.6" r="3.5"/>
			</g>
			<g class="st3">
				<circle class="st8" cx="199.5" cy="518.6" r="3.5"/>
				<circle class="st9" cx="199.5" cy="518.6" r="3.5"/>
			</g>
		</g>
	</g>
	<g>
		<g>
			<g>
				<circle class="st2" cx="199.5" cy="366.6" r="8.1"/>
			</g>
			<g class="st3">
				<circle class="st4" cx="199.5" cy="366.6" r="8.1"/>
			</g>
		</g>
		<rect x="198.2" y="362.5" class="st5" width="2.4" height="1.6"/>
		<g>
			<g>
				<circle class="st6" cx="199.5" cy="367.2" r="3.5"/>
				<circle class="st7" cx="199.5" cy="367.2" r="3.5"/>
			</g>
			<g class="st3">
				<circle class="st8" cx="199.5" cy="367.2" r="3.5"/>
				<circle class="st9" cx="199.5" cy="367.2" r="3.5"/>
			</g>
		</g>
	</g>
	<g>
		<g>
			<g>
				<circle class="st2" cx="139.4" cy="416.3" r="8.1"/>
			</g>
			<g class="st3">
				<circle class="st4" cx="139.4" cy="416.3" r="8.1"/>
			</g>
		</g>
		<rect x="138.1" y="412.2" class="st5" width="2.4" height="1.6"/>
		<g>
			<g>
				<circle class="st6" cx="139.4" cy="416.9" r="3.5"/>
				<circle class="st7" cx="139.4" cy="416.9" r="3.5"/>
			</g>
			<g class="st3">
				<circle class="st8" cx="139.4" cy="416.9" r="3.5"/>
				<circle class="st9" cx="139.4" cy="416.9" r="3.5"/>
			</g>
		</g>
	</g>
	<g>
		<g>
			<g>
				<circle class="st2" cx="139.4" cy="346.5" r="8.1"/>
			</g>
			<g class="st3">
				<circle class="st4" cx="139.4" cy="346.5" r="8.1"/>
			</g>
		</g>
		<rect x="138.1" y="342.4" class="st5" width="2.4" height="1.6"/>
		<g>
			<g>
				<circle class="st6" cx="139.4" cy="347.1" r="3.5"/>
				<circle class="st7" cx="139.4" cy="347.1" r="3.5"/>
			</g>
			<g class="st3">
				<circle class="st8" cx="139.4" cy="347.1" r="3.5"/>
				<circle class="st9" cx="139.4" cy="347.1" r="3.5"/>
			</g>
		</g>
	</g>
	<g>
		<g>
			<g>
				<circle class="st2" cx="28.1" cy="285.5" r="8.1"/>
			</g>
			<g class="st3">
				<circle class="st4" cx="28.1" cy="285.5" r="8.1"/>
			</g>
		</g>
		<rect x="26.8" y="281.3" class="st5" width="2.4" height="1.6"/>
		<g>
			<g>
				<circle class="st6" cx="28.1" cy="286" r="3.5"/>
				<circle class="st7" cx="28.1" cy="286" r="3.5"/>
			</g>
			<g class="st3">
				<circle class="st8" cx="28.1" cy="286" r="3.5"/>
				<circle class="st9" cx="28.1" cy="286" r="3.5"/>
			</g>
		</g>
	</g>
	<g>
		<g>
			<g>
				<circle class="st2" cx="28.1" cy="211.2" r="8.1"/>
			</g>
			<g class="st3">
				<circle class="st4" cx="28.1" cy="211.2" r="8.1"/>
			</g>
		</g>
		<rect x="26.8" y="207.1" class="st5" width="2.4" height="1.6"/>
		<g>
			<g>
				<circle class="st6" cx="28.1" cy="211.8" r="3.5"/>
				<circle class="st7" cx="28.1" cy="211.8" r="3.5"/>
			</g>
			<g class="st3">
				<circle class="st8" cx="28.1" cy="211.8" r="3.5"/>
				<circle class="st9" cx="28.1" cy="211.8" r="3.5"/>
			</g>
		</g>
	</g>
	<g>
		<g>
			<g>
				<circle class="st2" cx="126.3" cy="190.5" r="8.1"/>
			</g>
			<g class="st3">
				<circle class="st4" cx="126.3" cy="190.5" r="8.1"/>
			</g>
		</g>
		<rect x="125" y="186.4" class="st5" width="2.4" height="1.6"/>
		<g>
			<g>
				<circle class="st6" cx="126.3" cy="191.1" r="3.5"/>
				<circle class="st7" cx="126.3" cy="191.1" r="3.5"/>
			</g>
			<g class="st3">
				<circle class="st8" cx="126.3" cy="191.1" r="3.5"/>
				<circle class="st9" cx="126.3" cy="191.1" r="3.5"/>
			</g>
		</g>
	</g>
	<g>
		<g>
			<g>
				<circle class="st2" cx="198.7" cy="163.2" r="8.1"/>
			</g>
			<g class="st3">
				<circle class="st4" cx="198.7" cy="163.2" r="8.1"/>
			</g>
		</g>
		<rect x="197.4" y="159.1" class="st5" width="2.4" height="1.6"/>
		<g>
			<g>
				<circle class="st6" cx="198.7" cy="163.8" r="3.5"/>
				<circle class="st7" cx="198.7" cy="163.8" r="3.5"/>
			</g>
			<g class="st3">
				<circle class="st8" cx="198.7" cy="163.8" r="3.5"/>
				<circle class="st9" cx="198.7" cy="163.8" r="3.5"/>
			</g>
		</g>
	</g>
	<g>
		<g>
			<g>
				<circle class="st2" cx="198.7" cy="211.8" r="8.1"/>
			</g>
			<g class="st3">
				<circle class="st4" cx="198.7" cy="211.8" r="8.1"/>
			</g>
		</g>
		<rect x="197.4" y="207.7" class="st5" width="2.4" height="1.6"/>
		<g>
			<g>
				<circle class="st6" cx="198.7" cy="212.4" r="3.5"/>
				<circle class="st7" cx="198.7" cy="212.4" r="3.5"/>
			</g>
			<g class="st3">
				<circle class="st8" cx="198.7" cy="212.4" r="3.5"/>
				<circle class="st9" cx="198.7" cy="212.4" r="3.5"/>
			</g>
		</g>
	</g>
	<g>
		<g>
			<g>
				<circle class="st2" cx="568.4" cy="680" r="8.1"/>
			</g>
			<g class="st3">
				<circle class="st4" cx="568.4" cy="680" r="8.1"/>
			</g>
		</g>
		<rect x="567.1" y="675.9" class="st5" width="2.4" height="1.6"/>
		<g>
			<g>
				<circle class="st6" cx="568.4" cy="680.6" r="3.5"/>
				<circle class="st7" cx="568.4" cy="680.6" r="3.5"/>
			</g>
			<g class="st3">
				<circle class="st8" cx="568.4" cy="680.6" r="3.5"/>
				<circle class="st9" cx="568.4" cy="680.6" r="3.5"/>
			</g>
		</g>
	</g>
	<g>
		<g>
			<g>
				<circle class="st2" cx="568.4" cy="558.1" r="8.1"/>
			</g>
			<g class="st3">
				<circle class="st4" cx="568.4" cy="558.1" r="8.1"/>
			</g>
		</g>
		<rect x="567.1" y="554" class="st5" width="2.4" height="1.6"/>
		<g>
			<g>
				<circle class="st6" cx="568.4" cy="558.7" r="3.5"/>
				<circle class="st7" cx="568.4" cy="558.7" r="3.5"/>
			</g>
			<g class="st3">
				<circle class="st8" cx="568.4" cy="558.7" r="3.5"/>
				<circle class="st9" cx="568.4" cy="558.7" r="3.5"/>
			</g>
		</g>
	</g>
	<g>
		<g>
			<g>
				<circle class="st2" cx="568.4" cy="448.4" r="8.1"/>
			</g>
			<g class="st3">
				<circle class="st4" cx="568.4" cy="448.4" r="8.1"/>
			</g>
		</g>
		<rect x="567.1" y="444.3" class="st5" width="2.4" height="1.6"/>
		<g>
			<g>
				<circle class="st6" cx="568.4" cy="449" r="3.5"/>
				<circle class="st7" cx="568.4" cy="449" r="3.5"/>
			</g>
			<g class="st3">
				<circle class="st8" cx="568.4" cy="449" r="3.5"/>
				<circle class="st9" cx="568.4" cy="449" r="3.5"/>
			</g>
		</g>
	</g>
	<g>
		<g>
			<g>
				<circle class="st2" cx="742.5" cy="448.4" r="8.1"/>
			</g>
			<g class="st3">
				<circle class="st4" cx="742.5" cy="448.4" r="8.1"/>
			</g>
		</g>
		<rect x="741.2" y="444.3" class="st5" width="2.4" height="1.6"/>
		<g>
			<g>
				<circle class="st6" cx="742.5" cy="449" r="3.5"/>
				<circle class="st7" cx="742.5" cy="449" r="3.5"/>
			</g>
			<g class="st3">
				<circle class="st8" cx="742.5" cy="449" r="3.5"/>
				<circle class="st9" cx="742.5" cy="449" r="3.5"/>
			</g>
		</g>
	</g>
	<g>
		<g>
			<g>
				<circle class="st2" cx="837.2" cy="448.4" r="8.1"/>
			</g>
			<g class="st3">
				<circle class="st4" cx="837.2" cy="448.4" r="8.1"/>
			</g>
		</g>
		<rect x="835.9" y="444.3" class="st5" width="2.4" height="1.6"/>
		<g>
			<g>
				<circle class="st6" cx="837.2" cy="449" r="3.5"/>
				<circle class="st7" cx="837.2" cy="449" r="3.5"/>
			</g>
			<g class="st3">
				<circle class="st8" cx="837.2" cy="449" r="3.5"/>
				<circle class="st9" cx="837.2" cy="449" r="3.5"/>
			</g>
		</g>
	</g>
	<g>
		<g>
			<g>
				<circle class="st2" cx="1218.1" cy="448.4" r="8.1"/>
			</g>
			<g class="st3">
				<circle class="st4" cx="1218.1" cy="448.4" r="8.1"/>
			</g>
		</g>
		<rect x="1216.8" y="444.3" class="st5" width="2.4" height="1.6"/>
		<g>
			<g>
				<circle class="st6" cx="1218.1" cy="449" r="3.5"/>
				<circle class="st7" cx="1218.1" cy="449" r="3.5"/>
			</g>
			<g class="st3">
				<circle class="st8" cx="1218.1" cy="449" r="3.5"/>
				<circle class="st9" cx="1218.1" cy="449" r="3.5"/>
			</g>
		</g>
	</g>
	<g>
		<g>
			<g>
				<circle class="st2" cx="1218.1" cy="341.8" r="8.1"/>
			</g>
			<g class="st3">
				<circle class="st4" cx="1218.1" cy="341.8" r="8.1"/>
			</g>
		</g>
		<rect x="1216.8" y="337.7" class="st5" width="2.4" height="1.6"/>
		<g>
			<g>
				<circle class="st6" cx="1218.1" cy="342.4" r="3.5"/>
				<circle class="st7" cx="1218.1" cy="342.4" r="3.5"/>
			</g>
			<g class="st3">
				<circle class="st8" cx="1218.1" cy="342.4" r="3.5"/>
				<circle class="st9" cx="1218.1" cy="342.4" r="3.5"/>
			</g>
		</g>
	</g>
	<g>
		<g>
			<g>
				<circle class="st2" cx="836.9" cy="341.8" r="8.1"/>
			</g>
			<g class="st3">
				<circle class="st4" cx="836.9" cy="341.8" r="8.1"/>
			</g>
		</g>
		<rect x="835.6" y="337.7" class="st5" width="2.4" height="1.6"/>
		<g>
			<g>
				<circle class="st6" cx="836.9" cy="342.4" r="3.5"/>
				<circle class="st7" cx="836.9" cy="342.4" r="3.5"/>
			</g>
			<g class="st3">
				<circle class="st8" cx="836.9" cy="342.4" r="3.5"/>
				<circle class="st9" cx="836.9" cy="342.4" r="3.5"/>
			</g>
		</g>
	</g>
	<g>
		<g>
			<g>
				<circle class="st2" cx="741.2" cy="341.8" r="8.1"/>
			</g>
			<g class="st3">
				<circle class="st4" cx="741.2" cy="341.8" r="8.1"/>
			</g>
		</g>
		<rect x="739.9" y="337.7" class="st5" width="2.4" height="1.6"/>
		<g>
			<g>
				<circle class="st6" cx="741.2" cy="342.4" r="3.5"/>
				<circle class="st7" cx="741.2" cy="342.4" r="3.5"/>
			</g>
			<g class="st3">
				<circle class="st8" cx="741.2" cy="342.4" r="3.5"/>
				<circle class="st9" cx="741.2" cy="342.4" r="3.5"/>
			</g>
		</g>
	</g>
	<g>
		<g>
			<g>
				<circle class="st2" cx="504.7" cy="341.8" r="8.1"/>
			</g>
			<g class="st3">
				<circle class="st4" cx="504.7" cy="341.8" r="8.1"/>
			</g>
		</g>
		<rect x="503.4" y="337.7" class="st5" width="2.4" height="1.6"/>
		<g>
			<g>
				<circle class="st6" cx="504.7" cy="342.4" r="3.5"/>
				<circle class="st7" cx="504.7" cy="342.4" r="3.5"/>
			</g>
			<g class="st3">
				<circle class="st8" cx="504.7" cy="342.4" r="3.5"/>
				<circle class="st9" cx="504.7" cy="342.4" r="3.5"/>
			</g>
		</g>
	</g>
	<g>
		<g>
			<g>
				<circle class="st2" cx="568.3" cy="230.7" r="8.1"/>
			</g>
			<g class="st3">
				<circle class="st4" cx="568.3" cy="230.7" r="8.1"/>
			</g>
		</g>
		<rect x="567" y="226.6" class="st5" width="2.4" height="1.6"/>
		<g>
			<g>
				<circle class="st6" cx="568.3" cy="231.2" r="3.5"/>
				<circle class="st7" cx="568.3" cy="231.2" r="3.5"/>
			</g>
			<g class="st3">
				<circle class="st8" cx="568.3" cy="231.2" r="3.5"/>
				<circle class="st9" cx="568.3" cy="231.2" r="3.5"/>
			</g>
		</g>
	</g>
	<g>
		<g>
			<g>
				<circle class="st2" cx="741.1" cy="230.7" r="8.1"/>
			</g>
			<g class="st3">
				<circle class="st4" cx="741.1" cy="230.7" r="8.1"/>
			</g>
		</g>
		<rect x="739.8" y="226.6" class="st5" width="2.4" height="1.6"/>
		<g>
			<g>
				<circle class="st6" cx="741.1" cy="231.2" r="3.5"/>
				<circle class="st7" cx="741.1" cy="231.2" r="3.5"/>
			</g>
			<g class="st3">
				<circle class="st8" cx="741.1" cy="231.2" r="3.5"/>
				<circle class="st9" cx="741.1" cy="231.2" r="3.5"/>
			</g>
		</g>
	</g>
	<g>
		<g>
			<g>
				<circle class="st2" cx="838" cy="230.7" r="8.1"/>
			</g>
			<g class="st3">
				<circle class="st4" cx="838" cy="230.7" r="8.1"/>
			</g>
		</g>
		<rect x="836.7" y="226.6" class="st5" width="2.4" height="1.6"/>
		<g>
			<g>
				<circle class="st6" cx="838" cy="231.2" r="3.5"/>
				<circle class="st7" cx="838" cy="231.2" r="3.5"/>
			</g>
			<g class="st3">
				<circle class="st8" cx="838" cy="231.2" r="3.5"/>
				<circle class="st9" cx="838" cy="231.2" r="3.5"/>
			</g>
		</g>
	</g>
	<g>
		<g>
			<g>
				<circle class="st2" cx="976.7" cy="230.7" r="8.1"/>
			</g>
			<g class="st3">
				<circle class="st4" cx="976.7" cy="230.7" r="8.1"/>
			</g>
		</g>
		<rect x="975.4" y="226.6" class="st5" width="2.4" height="1.6"/>
		<g>
			<g>
				<circle class="st6" cx="976.7" cy="231.2" r="3.5"/>
				<circle class="st7" cx="976.7" cy="231.2" r="3.5"/>
			</g>
			<g class="st3">
				<circle class="st8" cx="976.7" cy="231.2" r="3.5"/>
				<circle class="st9" cx="976.7" cy="231.2" r="3.5"/>
			</g>
		</g>
	</g>
	<g>
		<g>
			<g>
				<circle class="st2" cx="1059.5" cy="230.7" r="8.1"/>
			</g>
			<g class="st3">
				<circle class="st4" cx="1059.5" cy="230.7" r="8.1"/>
			</g>
		</g>
		<rect x="1058.2" y="226.6" class="st5" width="2.4" height="1.6"/>
		<g>
			<g>
				<circle class="st6" cx="1059.5" cy="231.2" r="3.5"/>
				<circle class="st7" cx="1059.5" cy="231.2" r="3.5"/>
			</g>
			<g class="st3">
				<circle class="st8" cx="1059.5" cy="231.2" r="3.5"/>
				<circle class="st9" cx="1059.5" cy="231.2" r="3.5"/>
			</g>
		</g>
	</g>
	<g>
		<g>
			<g>
				<circle class="st2" cx="1218.1" cy="230.7" r="8.1"/>
			</g>
			<g class="st3">
				<circle class="st4" cx="1218.1" cy="230.7" r="8.1"/>
			</g>
		</g>
		<rect x="1216.8" y="226.6" class="st5" width="2.4" height="1.6"/>
		<g>
			<g>
				<circle class="st6" cx="1218.1" cy="231.2" r="3.5"/>
				<circle class="st7" cx="1218.1" cy="231.2" r="3.5"/>
			</g>
			<g class="st3">
				<circle class="st8" cx="1218.1" cy="231.2" r="3.5"/>
				<circle class="st9" cx="1218.1" cy="231.2" r="3.5"/>
			</g>
		</g>
	</g>
	<g>
		<g>
			<g>
				<circle class="st2" cx="1340.8" cy="230.7" r="8.1"/>
			</g>
			<g class="st3">
				<circle class="st4" cx="1340.8" cy="230.7" r="8.1"/>
			</g>
		</g>
		<rect x="1339.5" y="226.6" class="st5" width="2.4" height="1.6"/>
		<g>
			<g>
				<circle class="st6" cx="1340.8" cy="231.2" r="3.5"/>
				<circle class="st7" cx="1340.8" cy="231.2" r="3.5"/>
			</g>
			<g class="st3">
				<circle class="st8" cx="1340.8" cy="231.2" r="3.5"/>
				<circle class="st9" cx="1340.8" cy="231.2" r="3.5"/>
			</g>
		</g>
	</g>
	<g>
		<g>
			<g>
				<circle class="st2" cx="1218.1" cy="125.8" r="8.1"/>
			</g>
			<g class="st3">
				<circle class="st4" cx="1218.1" cy="125.8" r="8.1"/>
			</g>
		</g>
		<rect x="1216.8" y="121.7" class="st5" width="2.4" height="1.6"/>
		<g>
			<g>
				<circle class="st6" cx="1218.1" cy="126.4" r="3.5"/>
				<circle class="st7" cx="1218.1" cy="126.4" r="3.5"/>
			</g>
			<g class="st3">
				<circle class="st8" cx="1218.1" cy="126.4" r="3.5"/>
				<circle class="st9" cx="1218.1" cy="126.4" r="3.5"/>
			</g>
		</g>
	</g>
	<g>
		<g>
			<g>
				<circle class="st2" cx="1317.9" cy="125.8" r="8.1"/>
			</g>
			<g class="st3">
				<circle class="st4" cx="1317.9" cy="125.8" r="8.1"/>
			</g>
		</g>
		<rect x="1316.6" y="121.7" class="st5" width="2.4" height="1.6"/>
		<g>
			<g>
				<circle class="st6" cx="1317.9" cy="126.4" r="3.5"/>
				<circle class="st7" cx="1317.9" cy="126.4" r="3.5"/>
			</g>
			<g class="st3">
				<circle class="st8" cx="1317.9" cy="126.4" r="3.5"/>
				<circle class="st9" cx="1317.9" cy="126.4" r="3.5"/>
			</g>
		</g>
	</g>
	<g>
		<g>
			<g>
				<circle class="st2" cx="1274.9" cy="125.8" r="8.1"/>
			</g>
			<g class="st3">
				<circle class="st4" cx="1274.9" cy="125.8" r="8.1"/>
			</g>
		</g>
		<rect x="1273.6" y="121.7" class="st5" width="2.4" height="1.6"/>
		<g>
			<g>
				<circle class="st6" cx="1274.9" cy="126.4" r="3.5"/>
				<circle class="st7" cx="1274.9" cy="126.4" r="3.5"/>
			</g>
			<g class="st3">
				<circle class="st8" cx="1274.9" cy="126.4" r="3.5"/>
				<circle class="st9" cx="1274.9" cy="126.4" r="3.5"/>
			</g>
		</g>
	</g>
	<g>
		<g>
			<g>
				<circle class="st2" cx="1058.2" cy="125.8" r="8.1"/>
			</g>
			<g class="st3">
				<circle class="st4" cx="1058.2" cy="125.8" r="8.1"/>
			</g>
		</g>
		<rect x="1056.9" y="121.7" class="st5" width="2.4" height="1.6"/>
		<g>
			<g>
				<circle class="st6" cx="1058.2" cy="126.4" r="3.5"/>
				<circle class="st7" cx="1058.2" cy="126.4" r="3.5"/>
			</g>
			<g class="st3">
				<circle class="st8" cx="1058.2" cy="126.4" r="3.5"/>
				<circle class="st9" cx="1058.2" cy="126.4" r="3.5"/>
			</g>
		</g>
	</g>
	<g>
		<g>
			<g>
				<circle class="st2" cx="976.7" cy="125.8" r="8.1"/>
			</g>
			<g class="st3">
				<circle class="st4" cx="976.7" cy="125.8" r="8.1"/>
			</g>
		</g>
		<rect x="975.4" y="121.7" class="st5" width="2.4" height="1.6"/>
		<g>
			<g>
				<circle class="st6" cx="976.7" cy="126.4" r="3.5"/>
				<circle class="st7" cx="976.7" cy="126.4" r="3.5"/>
			</g>
			<g class="st3">
				<circle class="st8" cx="976.7" cy="126.4" r="3.5"/>
				<circle class="st9" cx="976.7" cy="126.4" r="3.5"/>
			</g>
		</g>
	</g>
	<g>
		<g>
			<g>
				<circle class="st2" cx="836.7" cy="125.8" r="8.1"/>
			</g>
			<g class="st3">
				<circle class="st4" cx="836.7" cy="125.8" r="8.1"/>
			</g>
		</g>
		<rect x="835.4" y="121.7" class="st5" width="2.4" height="1.6"/>
		<g>
			<g>
				<circle class="st6" cx="836.7" cy="126.4" r="3.5"/>
				<circle class="st7" cx="836.7" cy="126.4" r="3.5"/>
			</g>
			<g class="st3">
				<circle class="st8" cx="836.7" cy="126.4" r="3.5"/>
				<circle class="st9" cx="836.7" cy="126.4" r="3.5"/>
			</g>
		</g>
	</g>
	<g>
		<g>
			<g>
				<circle class="st2" cx="741.4" cy="125.8" r="8.1"/>
			</g>
			<g class="st3">
				<circle class="st4" cx="741.4" cy="125.8" r="8.1"/>
			</g>
		</g>
		<rect x="740.1" y="121.7" class="st5" width="2.4" height="1.6"/>
		<g>
			<g>
				<circle class="st6" cx="741.4" cy="126.4" r="3.5"/>
				<circle class="st7" cx="741.4" cy="126.4" r="3.5"/>
			</g>
			<g class="st3">
				<circle class="st8" cx="741.4" cy="126.4" r="3.5"/>
				<circle class="st9" cx="741.4" cy="126.4" r="3.5"/>
			</g>
		</g>
	</g>
	<g>
		<g>
			<g>
				<circle class="st2" cx="568" cy="125.8" r="8.1"/>
			</g>
			<g class="st3">
				<circle class="st4" cx="568" cy="125.8" r="8.1"/>
			</g>
		</g>
		<rect x="566.7" y="121.7" class="st5" width="2.4" height="1.6"/>
		<g>
			<g>
				<circle class="st6" cx="568" cy="126.4" r="3.5"/>
				<circle class="st7" cx="568" cy="126.4" r="3.5"/>
			</g>
			<g class="st3">
				<circle class="st8" cx="568" cy="126.4" r="3.5"/>
				<circle class="st9" cx="568" cy="126.4" r="3.5"/>
			</g>
		</g>
	</g>
	<g>
		<g>
			<g>
				<circle class="st2" cx="478.6" cy="341.8" r="8.1"/>
			</g>
			<g class="st3">
				<circle class="st4" cx="478.6" cy="341.8" r="8.1"/>
			</g>
		</g>
		<rect x="477.3" y="337.7" class="st5" width="2.4" height="1.6"/>
		<g>
			<g>
				<circle class="st6" cx="478.6" cy="342.4" r="3.5"/>
				<circle class="st7" cx="478.6" cy="342.4" r="3.5"/>
			</g>
			<g class="st3">
				<circle class="st8" cx="478.6" cy="342.4" r="3.5"/>
				<circle class="st9" cx="478.6" cy="342.4" r="3.5"/>
			</g>
		</g>
	</g>
	<g>
		<g>
			<g>
				<circle class="st2" cx="1340.8" cy="448.4" r="8.1"/>
			</g>
			<g class="st3">
				<circle class="st4" cx="1340.8" cy="448.4" r="8.1"/>
			</g>
		</g>
		<rect x="1339.5" y="444.3" class="st5" width="2.4" height="1.6"/>
		<g>
			<g>
				<circle class="st6" cx="1340.8" cy="449" r="3.5"/>
				<circle class="st7" cx="1340.8" cy="449" r="3.5"/>
			</g>
			<g class="st3">
				<circle class="st8" cx="1340.8" cy="449" r="3.5"/>
				<circle class="st9" cx="1340.8" cy="449" r="3.5"/>
			</g>
		</g>
	</g>
	<g>
		<g>
			<g>
				<circle class="st2" cx="505" cy="558.1" r="8.1"/>
			</g>
			<g class="st3">
				<circle class="st4" cx="505" cy="558.1" r="8.1"/>
			</g>
		</g>
		<rect x="503.7" y="554" class="st5" width="2.4" height="1.6"/>
		<g>
			<g>
				<circle class="st6" cx="505" cy="558.7" r="3.5"/>
				<circle class="st7" cx="505" cy="558.7" r="3.5"/>
			</g>
			<g class="st3">
				<circle class="st8" cx="505" cy="558.7" r="3.5"/>
				<circle class="st9" cx="505" cy="558.7" r="3.5"/>
			</g>
		</g>
	</g>
	<g>
		<g>
			<g>
				<circle class="st2" cx="477.6" cy="558.1" r="8.1"/>
			</g>
			<g class="st3">
				<circle class="st4" cx="477.6" cy="558.1" r="8.1"/>
			</g>
		</g>
		<rect x="476.3" y="554" class="st5" width="2.4" height="1.6"/>
		<g>
			<g>
				<circle class="st6" cx="477.6" cy="558.7" r="3.5"/>
				<circle class="st7" cx="477.6" cy="558.7" r="3.5"/>
			</g>
			<g class="st3">
				<circle class="st8" cx="477.6" cy="558.7" r="3.5"/>
				<circle class="st9" cx="477.6" cy="558.7" r="3.5"/>
			</g>
		</g>
	</g>
	<g>
		<g>
			<g>
				<circle class="st2" cx="741.4" cy="680" r="8.1"/>
			</g>
			<g class="st3">
				<circle class="st4" cx="741.4" cy="680" r="8.1"/>
			</g>
		</g>
		<rect x="740.1" y="675.9" class="st5" width="2.4" height="1.6"/>
		<g>
			<g>
				<circle class="st6" cx="741.4" cy="680.6" r="3.5"/>
				<circle class="st7" cx="741.4" cy="680.6" r="3.5"/>
			</g>
			<g class="st3">
				<circle class="st8" cx="741.4" cy="680.6" r="3.5"/>
				<circle class="st9" cx="741.4" cy="680.6" r="3.5"/>
			</g>
		</g>
	</g>
	<g>
		<g>
			<g>
				<circle class="st2" cx="837.3" cy="680" r="8.1"/>
			</g>
			<g class="st3">
				<circle class="st4" cx="837.3" cy="680" r="8.1"/>
			</g>
		</g>
		<rect x="836" y="675.9" class="st5" width="2.4" height="1.6"/>
		<g>
			<g>
				<circle class="st6" cx="837.3" cy="680.6" r="3.5"/>
				<circle class="st7" cx="837.3" cy="680.6" r="3.5"/>
			</g>
			<g class="st3">
				<circle class="st8" cx="837.3" cy="680.6" r="3.5"/>
				<circle class="st9" cx="837.3" cy="680.6" r="3.5"/>
			</g>
		</g>
	</g>
	<g>
		<g>
			<g>
				<circle class="st2" cx="741.4" cy="558.1" r="8.1"/>
			</g>
			<g class="st3">
				<circle class="st4" cx="741.4" cy="558.1" r="8.1"/>
			</g>
		</g>
		<rect x="740.1" y="554" class="st5" width="2.4" height="1.6"/>
		<g>
			<g>
				<circle class="st6" cx="741.4" cy="558.7" r="3.5"/>
				<circle class="st7" cx="741.4" cy="558.7" r="3.5"/>
			</g>
			<g class="st3">
				<circle class="st8" cx="741.4" cy="558.7" r="3.5"/>
				<circle class="st9" cx="741.4" cy="558.7" r="3.5"/>
			</g>
		</g>
	</g>
	<g>
		<g>
			<g>
				<circle class="st2" cx="837.3" cy="558.1" r="8.1"/>
			</g>
			<g class="st3">
				<circle class="st4" cx="837.3" cy="558.1" r="8.1"/>
			</g>
		</g>
		<rect x="836" y="554" class="st5" width="2.4" height="1.6"/>
		<g>
			<g>
				<circle class="st6" cx="837.3" cy="558.7" r="3.5"/>
				<circle class="st7" cx="837.3" cy="558.7" r="3.5"/>
			</g>
			<g class="st3">
				<circle class="st8" cx="837.3" cy="558.7" r="3.5"/>
				<circle class="st9" cx="837.3" cy="558.7" r="3.5"/>
			</g>
		</g>
	</g>
	<g>
		<g>
			<g>
				<circle class="st2" cx="977.4" cy="680" r="8.1"/>
			</g>
			<g class="st3">
				<circle class="st4" cx="977.4" cy="680" r="8.1"/>
			</g>
		</g>
		<rect x="976" y="675.9" class="st5" width="2.4" height="1.6"/>
		<g>
			<g>
				<circle class="st6" cx="977.4" cy="680.6" r="3.5"/>
				<circle class="st7" cx="977.4" cy="680.6" r="3.5"/>
			</g>
			<g class="st3">
				<circle class="st8" cx="977.4" cy="680.6" r="3.5"/>
				<circle class="st9" cx="977.4" cy="680.6" r="3.5"/>
			</g>
		</g>
	</g>
	<g>
		<g>
			<g>
				<circle class="st2" cx="1058.5" cy="680" r="8.1"/>
			</g>
			<g class="st3">
				<circle class="st4" cx="1058.5" cy="680" r="8.1"/>
			</g>
		</g>
		<rect x="1057.2" y="675.9" class="st5" width="2.4" height="1.6"/>
		<g>
			<g>
				<circle class="st6" cx="1058.5" cy="680.6" r="3.5"/>
				<circle class="st7" cx="1058.5" cy="680.6" r="3.5"/>
			</g>
			<g class="st3">
				<circle class="st8" cx="1058.5" cy="680.6" r="3.5"/>
				<circle class="st9" cx="1058.5" cy="680.6" r="3.5"/>
			</g>
		</g>
	</g>
	<g>
		<g>
			<g>
				<circle class="st2" cx="977.4" cy="558.6" r="8.1"/>
			</g>
			<g class="st3">
				<circle class="st4" cx="977.4" cy="558.6" r="8.1"/>
			</g>
		</g>
		<rect x="976" y="554.5" class="st5" width="2.4" height="1.6"/>
		<g>
			<g>
				<circle class="st6" cx="977.4" cy="559.2" r="3.5"/>
				<circle class="st7" cx="977.4" cy="559.2" r="3.5"/>
			</g>
			<g class="st3">
				<circle class="st8" cx="977.4" cy="559.2" r="3.5"/>
				<circle class="st9" cx="977.4" cy="559.2" r="3.5"/>
			</g>
		</g>
	</g>
	<g>
		<g>
			<g>
				<circle class="st2" cx="1058.5" cy="558.6" r="8.1"/>
			</g>
			<g class="st3">
				<circle class="st4" cx="1058.5" cy="558.6" r="8.1"/>
			</g>
		</g>
		<rect x="1057.2" y="554.5" class="st5" width="2.4" height="1.6"/>
		<g>
			<g>
				<circle class="st6" cx="1058.5" cy="559.2" r="3.5"/>
				<circle class="st7" cx="1058.5" cy="559.2" r="3.5"/>
			</g>
			<g class="st3">
				<circle class="st8" cx="1058.5" cy="559.2" r="3.5"/>
				<circle class="st9" cx="1058.5" cy="559.2" r="3.5"/>
			</g>
		</g>
	</g>
	<g>
		<g>
			<g>
				<circle class="st2" cx="1218.1" cy="680" r="8.1"/>
			</g>
			<g class="st3">
				<circle class="st4" cx="1218.1" cy="680" r="8.1"/>
			</g>
		</g>
		<rect x="1216.8" y="675.9" class="st5" width="2.4" height="1.6"/>
		<g>
			<g>
				<circle class="st6" cx="1218.1" cy="680.6" r="3.5"/>
				<circle class="st7" cx="1218.1" cy="680.6" r="3.5"/>
			</g>
			<g class="st3">
				<circle class="st8" cx="1218.1" cy="680.6" r="3.5"/>
				<circle class="st9" cx="1218.1" cy="680.6" r="3.5"/>
			</g>
		</g>
	</g>
	<g>
		<g>
			<g>
				<circle class="st2" cx="1341.1" cy="680" r="8.1"/>
			</g>
			<g class="st3">
				<circle class="st4" cx="1341.1" cy="680" r="8.1"/>
			</g>
		</g>
		<rect x="1339.8" y="675.9" class="st5" width="2.4" height="1.6"/>
		<g>
			<g>
				<circle class="st6" cx="1341.1" cy="680.6" r="3.5"/>
				<circle class="st7" cx="1341.1" cy="680.6" r="3.5"/>
			</g>
			<g class="st3">
				<circle class="st8" cx="1341.1" cy="680.6" r="3.5"/>
				<circle class="st9" cx="1341.1" cy="680.6" r="3.5"/>
			</g>
		</g>
	</g>
	<g>
		<g>
			<g>
				<circle class="st2" cx="1218.1" cy="558.6" r="8.1"/>
			</g>
			<g class="st3">
				<circle class="st4" cx="1218.1" cy="558.6" r="8.1"/>
			</g>
		</g>
		<rect x="1216.8" y="554.5" class="st5" width="2.4" height="1.6"/>
		<g>
			<g>
				<circle class="st6" cx="1218.1" cy="559.2" r="3.5"/>
				<circle class="st7" cx="1218.1" cy="559.2" r="3.5"/>
			</g>
			<g class="st3">
				<circle class="st8" cx="1218.1" cy="559.2" r="3.5"/>
				<circle class="st9" cx="1218.1" cy="559.2" r="3.5"/>
			</g>
		</g>
	</g>
	<g>
		<g>
			<g>
				<circle class="st2" cx="1341.1" cy="558.6" r="8.1"/>
			</g>
			<g class="st3">
				<circle class="st4" cx="1341.1" cy="558.6" r="8.1"/>
			</g>
		</g>
		<rect x="1339.8" y="554.5" class="st5" width="2.4" height="1.6"/>
		<g>
			<g>
				<circle class="st6" cx="1341.1" cy="559.2" r="3.5"/>
				<circle class="st7" cx="1341.1" cy="559.2" r="3.5"/>
			</g>
			<g class="st3">
				<circle class="st8" cx="1341.1" cy="559.2" r="3.5"/>
				<circle class="st9" cx="1341.1" cy="559.2" r="3.5"/>
			</g>
		</g>
	</g>
	<g>
		<g>
			<g>
				<circle class="st2" cx="1274.9" cy="558.6" r="8.1"/>
			</g>
			<g class="st3">
				<circle class="st4" cx="1274.9" cy="558.6" r="8.1"/>
			</g>
		</g>
		<rect x="1273.6" y="554.5" class="st5" width="2.4" height="1.6"/>
		<g>
			<g>
				<circle class="st6" cx="1274.9" cy="559.2" r="3.5"/>
				<circle class="st7" cx="1274.9" cy="559.2" r="3.5"/>
			</g>
			<g class="st3">
				<circle class="st8" cx="1274.9" cy="559.2" r="3.5"/>
				<circle class="st9" cx="1274.9" cy="559.2" r="3.5"/>
			</g>
		</g>
	</g>
</g>
</svg>
