<?xml version="1.0" encoding="utf-8"?>
<!-- Generator: Adobe Illustrator 21.0.0, SVG Export Plug-In . SVG Version: 6.00 Build 0)  -->
<svg version="1.1" id="图层_1" xmlns="http://www.w3.org/2000/svg" xmlns:xlink="http://www.w3.org/1999/xlink" x="0px" y="0px"
	 viewBox="0 0 2338 1153" style="enable-background:new 0 0 2338 1153;" xml:space="preserve">
<style type="text/css">
	.st0{display:none;}
	.st1{display:inline;fill:#141A26;}
	.st2{fill:#FFFFFF;}
	.st3{font-family:'AdobeSongStd-Light-GBpc-EUC-H';}
	.st4{font-size:22px;}
	.st5{fill:#104706;}
</style>
<g id="图层_4" class="st0">
	<rect class="st1" width="2338" height="1153"/>
</g>
<text transform="matrix(1 0 0 1 301 70.3341)" class="st2 st3 st4"> </text>
<g>
	<rect x="71" y="84" class="st5" width="253" height="51"/>
	<rect x="153.5" y="186.6" class="st5" width="88" height="51"/>
	<rect x="153.5" y="453.5" class="st5" width="88" height="51"/>
	<rect x="153.5" y="806.5" class="st5" width="88" height="51"/>
	<rect x="422.1" y="604.5" class="st5" width="88" height="51"/>
	<rect x="538" y="604.5" class="st5" width="88" height="51"/>
	<rect x="652" y="604.5" class="st5" width="88" height="51"/>
	<rect x="806.3" y="422.3" class="st5" width="80" height="51"/>
	<rect x="898.5" y="422.3" class="st5" width="80" height="51"/>
	<rect x="990.8" y="422.3" class="st5" width="80" height="51"/>
	<rect x="1083" y="422.3" class="st5" width="80" height="51"/>
	<rect x="1175.3" y="422.3" class="st5" width="80" height="51"/>
	<rect x="1267.5" y="422.3" class="st5" width="80" height="51"/>
	<rect x="1359.8" y="422.3" class="st5" width="80" height="51"/>
	<rect x="1452" y="422.3" class="st5" width="80" height="51"/>
	<rect x="1431" y="746.3" class="st5" width="80" height="51"/>
	<rect x="1313" y="746.3" class="st5" width="80" height="51"/>
	<rect x="1181.5" y="746.3" class="st5" width="80" height="51"/>
	<rect x="1060" y="746.3" class="st5" width="80" height="51"/>
	<rect x="944" y="746.3" class="st5" width="80" height="51"/>
	<rect x="813.5" y="746.3" class="st5" width="80" height="51"/>
	<rect x="1608.1" y="923" class="st5" width="80" height="51"/>
	<rect x="1734.6" y="923" class="st5" width="80" height="51"/>
	<rect x="1608.1" y="785.9" class="st5" width="80" height="51"/>
	<rect x="1734.6" y="785.9" class="st5" width="80" height="51"/>
	<rect x="1608.1" y="630.9" class="st5" width="80" height="51"/>
	<rect x="1734.6" y="630.9" class="st5" width="80" height="51"/>
	<rect x="1608.1" y="435.5" class="st5" width="80" height="51"/>
	<rect x="1734.6" y="435.5" class="st5" width="80" height="51"/>
	<rect x="1608.1" y="305.5" class="st5" width="80" height="51"/>
	<rect x="1734.6" y="305.5" class="st5" width="80" height="51"/>
	<rect x="1608.1" y="158.2" class="st5" width="80" height="51"/>
	<rect x="1734.6" y="158.2" class="st5" width="80" height="51"/>
</g>
</svg>
