<?xml version="1.0" encoding="utf-8"?>
<!-- Generator: Adobe Illustrator 21.0.0, SVG Export Plug-In . SVG Version: 6.00 Build 0)  -->
<svg version="1.1" id="图层_1" xmlns="http://www.w3.org/2000/svg" xmlns:xlink="http://www.w3.org/1999/xlink" x="0px" y="0px"
	 viewBox="0 0 2338 1153" style="enable-background:new 0 0 2338 1153;" xml:space="preserve">
<style type="text/css">
	.st0{display:none;}
	.st1{display:inline;fill:#141A26;}
	.st2{fill:none;stroke:#FFCE00;stroke-width:6;stroke-miterlimit:10;}
	.st3{fill:#FFFFFF;}
	.st4{font-family:'MicrosoftYaHei';}
	.st5{font-size:36px;}
	.st6{font-size:24px;}
	.st7{display:inline;fill:none;stroke:#FFCE00;stroke-width:2;stroke-miterlimit:10;}
	.st8{display:inline;fill:#FFFFFF;}
	.st9{font-size:26px;}
	.st10{display:inline;fill:#00FF85;}
	.st11{font-size:32px;}
	.st12{fill:none;stroke:#FFFFFF;stroke-width:2;stroke-miterlimit:10;}
</style>
<g id="图层_4" class="st0">
	<rect class="st1" width="2338" height="1153"/>
</g>
<g id="图层_2">
	<polyline class="st2" points="378,479 378,82 2049,82 	"/>
	<polyline class="st2" points="402,479 402,107 2049,107 	"/>
	<polyline class="st2" points="378,731 378,1140 2080,1140 	"/>
	<polyline class="st2" points="402,731 402,1115 2082,1115 	"/>
	<g>
		<polyline class="st2" points="509,82 509,298 520,321 		"/>
		<polyline class="st2" points="541,107 541,401 511,401 511,326 		"/>
		<line class="st2" x1="515" y1="321" x2="506" y2="331"/>
		<line class="st2" x1="506" y1="321" x2="515" y2="330"/>
	</g>
	<g>
		<polyline class="st2" points="538,1140 538,910 527,887 		"/>
		<polyline class="st2" points="506,1112 506,817 536,817 536,882 		"/>
		<line class="st2" x1="532" y1="887" x2="541" y2="877"/>
		<line class="st2" x1="541" y1="887" x2="532" y2="878"/>
	</g>
	<g>
		<polyline class="st2" points="658,1140 658,910 647,887 		"/>
		<polyline class="st2" points="626,1112 626,817 656,817 656,882 		"/>
		<line class="st2" x1="652" y1="887" x2="661" y2="877"/>
		<line class="st2" x1="661" y1="887" x2="652" y2="878"/>
	</g>
	<g>
		<polyline class="st2" points="768,1140 768,910 757,887 		"/>
		<polyline class="st2" points="736,1112 736,817 766,817 766,882 		"/>
		<line class="st2" x1="762" y1="887" x2="771" y2="877"/>
		<line class="st2" x1="771" y1="887" x2="762" y2="878"/>
	</g>
	<g>
		<polyline class="st2" points="889,1142 889,912 878,889 		"/>
		<polyline class="st2" points="857,1114 857,819 887,819 887,884 		"/>
		<line class="st2" x1="883" y1="889" x2="892" y2="879"/>
		<line class="st2" x1="892" y1="889" x2="883" y2="880"/>
	</g>
	<g>
		<polyline class="st2" points="1019,1142 1019,912 1008,889 		"/>
		<polyline class="st2" points="987,1114 987,819 1017,819 1017,884 		"/>
		<line class="st2" x1="1013" y1="889" x2="1022" y2="879"/>
		<line class="st2" x1="1022" y1="889" x2="1013" y2="880"/>
	</g>
	<g>
		<polyline class="st2" points="1135,1142 1135,912 1124,889 		"/>
		<polyline class="st2" points="1103,1114 1103,819 1133,819 1133,884 		"/>
		<line class="st2" x1="1129" y1="889" x2="1138" y2="879"/>
		<line class="st2" x1="1138" y1="889" x2="1129" y2="880"/>
	</g>
	<g>
		<polyline class="st2" points="1258,1142 1258,912 1247,889 		"/>
		<polyline class="st2" points="1226,1114 1226,819 1256,819 1256,884 		"/>
		<line class="st2" x1="1252" y1="889" x2="1261" y2="879"/>
		<line class="st2" x1="1261" y1="889" x2="1252" y2="880"/>
	</g>
	<g>
		<polyline class="st2" points="1385,1142 1385,912 1374,889 		"/>
		<polyline class="st2" points="1353,1114 1353,819 1383,819 1383,884 		"/>
		<line class="st2" x1="1379" y1="889" x2="1388" y2="879"/>
		<line class="st2" x1="1388" y1="889" x2="1379" y2="880"/>
	</g>
	<g>
		<polyline class="st2" points="1503,1141 1503,911 1492,888 		"/>
		<polyline class="st2" points="1471,1113 1471,818 1501,818 1501,883 		"/>
		<line class="st2" x1="1497" y1="888" x2="1506" y2="878"/>
		<line class="st2" x1="1506" y1="888" x2="1497" y2="879"/>
	</g>
	<g>
		<polyline class="st2" points="621,82 621,298 632,321 		"/>
		<polyline class="st2" points="653,107 653,401 623,401 623,326 		"/>
		<line class="st2" x1="627" y1="321" x2="618" y2="331"/>
		<line class="st2" x1="618" y1="321" x2="627" y2="330"/>
	</g>
	<g>
		<polyline class="st2" points="733,82 733,298 744,321 		"/>
		<polyline class="st2" points="765,107 765,401 735,401 735,326 		"/>
		<line class="st2" x1="739" y1="321" x2="730" y2="331"/>
		<line class="st2" x1="730" y1="321" x2="739" y2="330"/>
	</g>
	<g>
		<polyline class="st2" points="848,82 848,298 859,321 		"/>
		<polyline class="st2" points="880,107 880,401 850,401 850,326 		"/>
		<line class="st2" x1="854" y1="321" x2="845" y2="331"/>
		<line class="st2" x1="845" y1="321" x2="854" y2="330"/>
	</g>
	<g>
		<polyline class="st2" points="941,82 941,298 952,321 		"/>
		<polyline class="st2" points="973,107 973,401 943,401 943,326 		"/>
		<line class="st2" x1="947" y1="321" x2="938" y2="331"/>
		<line class="st2" x1="938" y1="321" x2="947" y2="330"/>
	</g>
	<g>
		<polyline class="st2" points="1032,82 1032,298 1043,321 		"/>
		<polyline class="st2" points="1064,107 1064,401 1034,401 1034,326 		"/>
		<line class="st2" x1="1038" y1="321" x2="1029" y2="331"/>
		<line class="st2" x1="1029" y1="321" x2="1038" y2="330"/>
	</g>
	<g>
		<polyline class="st2" points="1126,82 1126,298 1137,321 		"/>
		<polyline class="st2" points="1158,107 1158,401 1128,401 1128,326 		"/>
		<line class="st2" x1="1132" y1="321" x2="1123" y2="331"/>
		<line class="st2" x1="1123" y1="321" x2="1132" y2="330"/>
	</g>
	<g>
		<polyline class="st2" points="1216,82 1216,298 1227,321 		"/>
		<polyline class="st2" points="1248,107 1248,401 1218,401 1218,326 		"/>
		<line class="st2" x1="1222" y1="321" x2="1213" y2="331"/>
		<line class="st2" x1="1213" y1="321" x2="1222" y2="330"/>
	</g>
	<g>
		<polyline class="st2" points="1310,82 1310,298 1321,321 		"/>
		<polyline class="st2" points="1342,107 1342,401 1312,401 1312,326 		"/>
		<line class="st2" x1="1316" y1="321" x2="1307" y2="331"/>
		<line class="st2" x1="1307" y1="321" x2="1316" y2="330"/>
	</g>
	<g>
		<polyline class="st2" points="1404,82 1404,298 1415,321 		"/>
		<polyline class="st2" points="1436,107 1436,401 1406,401 1406,326 		"/>
		<line class="st2" x1="1410" y1="321" x2="1401" y2="331"/>
		<line class="st2" x1="1401" y1="321" x2="1410" y2="330"/>
	</g>
	<g>
		<polyline class="st2" points="1492,82 1492,298 1503,321 		"/>
		<polyline class="st2" points="1524,107 1524,401 1494,401 1494,326 		"/>
		<line class="st2" x1="1498" y1="321" x2="1489" y2="331"/>
		<line class="st2" x1="1489" y1="321" x2="1498" y2="330"/>
	</g>
	<g>
		<polyline class="st2" points="1589,82 1589,134 1598,157 		"/>
		<line class="st2" x1="1589" y1="164" x2="1589" y2="505"/>
		<line class="st2" x1="1594" y1="157" x2="1584" y2="167"/>
		<line class="st2" x1="1584" y1="157" x2="1594" y2="167"/>
	</g>
	<g>
		<polyline class="st2" points="1713,82 1713,134 1722,157 		"/>
		<line class="st2" x1="1713" y1="164" x2="1713" y2="505"/>
		<line class="st2" x1="1718" y1="157" x2="1708" y2="167"/>
		<line class="st2" x1="1708" y1="157" x2="1718" y2="167"/>
	</g>
	<g>
		<polyline class="st2" points="1839,82 1839,134 1848,157 		"/>
		<line class="st2" x1="1839" y1="164" x2="1839" y2="505"/>
		<line class="st2" x1="1844" y1="157" x2="1834" y2="167"/>
		<line class="st2" x1="1834" y1="157" x2="1844" y2="167"/>
	</g>
	<g>
		<polyline class="st2" points="1961,82 1961,134 1970,157 		"/>
		<line class="st2" x1="1961" y1="164" x2="1961" y2="505"/>
		<line class="st2" x1="1966" y1="157" x2="1946" y2="167"/>
		<line class="st2" x1="1946" y1="157" x2="1966" y2="167"/>
	</g>
	<g>
		<line class="st2" x1="1589" y1="731" x2="1589" y2="1041"/>
		<line class="st2" x1="1593" y1="1035" x2="1584" y2="1045"/>
		<line class="st2" x1="1584" y1="1035" x2="1594" y2="1045"/>
		<line class="st2" x1="1579" y1="1044" x2="1589" y2="1068"/>
		<line class="st2" x1="1589" y1="1072" x2="1589" y2="1138"/>
	</g>
	<g>
		<line class="st2" x1="1712" y1="731" x2="1712" y2="1041"/>
		<line class="st2" x1="1716" y1="1035" x2="1707" y2="1045"/>
		<line class="st2" x1="1707" y1="1035" x2="1717" y2="1045"/>
		<line class="st2" x1="1702" y1="1044" x2="1712" y2="1068"/>
		<line class="st2" x1="1712" y1="1072" x2="1712" y2="1138"/>
	</g>
	<g>
		<line class="st2" x1="1837" y1="731" x2="1837" y2="1041"/>
		<line class="st2" x1="1841" y1="1035" x2="1832" y2="1045"/>
		<line class="st2" x1="1832" y1="1035" x2="1842" y2="1045"/>
		<line class="st2" x1="1827" y1="1044" x2="1837" y2="1068"/>
		<line class="st2" x1="1837" y1="1068" x2="1837" y2="1138"/>
	</g>
	<g>
		<line class="st2" x1="1961" y1="731" x2="1961" y2="1041"/>
		<line class="st2" x1="1965" y1="1035" x2="1956" y2="1045"/>
		<line class="st2" x1="1956" y1="1035" x2="1966" y2="1045"/>
		<line class="st2" x1="1951" y1="1044" x2="1961" y2="1068"/>
		<line class="st2" x1="1961" y1="1068" x2="1961" y2="1138"/>
	</g>
	<line class="st2" x1="378" y1="1140" x2="2081" y2="1140"/>
	<line class="st2" x1="402" y1="1115" x2="2083" y2="1115"/>
	<g>
		<polyline class="st2" points="1259,1142 1259,912 1248,889 		"/>
		<polyline class="st2" points="1227,1114 1227,819 1257,819 1257,884 		"/>
		<line class="st2" x1="1253" y1="889" x2="1262" y2="879"/>
		<line class="st2" x1="1262" y1="889" x2="1253" y2="880"/>
	</g>
	<g>
		<polyline class="st2" points="1386,1142 1386,912 1375,889 		"/>
		<polyline class="st2" points="1354,1114 1354,819 1384,819 1384,884 		"/>
		<line class="st2" x1="1380" y1="889" x2="1389" y2="879"/>
		<line class="st2" x1="1389" y1="889" x2="1380" y2="880"/>
	</g>
	<g>
		<polyline class="st2" points="1504,1141 1504,911 1493,888 		"/>
		<polyline class="st2" points="1472,1113 1472,818 1502,818 1502,883 		"/>
		<line class="st2" x1="1498" y1="888" x2="1507" y2="878"/>
		<line class="st2" x1="1507" y1="888" x2="1498" y2="879"/>
	</g>
	<g>
		<line class="st2" x1="1590" y1="675" x2="1590" y2="1041"/>
		<line class="st2" x1="1594" y1="1035" x2="1585" y2="1045"/>
		<line class="st2" x1="1585" y1="1035" x2="1595" y2="1045"/>
		<line class="st2" x1="1580" y1="1044" x2="1590" y2="1068"/>
		<line class="st2" x1="1590" y1="1072" x2="1590" y2="1138"/>
	</g>
	<g>
		<line class="st2" x1="1713" y1="675" x2="1713" y2="1041"/>
		<line class="st2" x1="1717" y1="1035" x2="1708" y2="1045"/>
		<line class="st2" x1="1708" y1="1035" x2="1718" y2="1045"/>
		<line class="st2" x1="1703" y1="1044" x2="1713" y2="1068"/>
		<line class="st2" x1="1713" y1="1072" x2="1713" y2="1138"/>
	</g>
	<g>
		<line class="st2" x1="1838" y1="675" x2="1838" y2="1041"/>
		<line class="st2" x1="1842" y1="1035" x2="1833" y2="1045"/>
		<line class="st2" x1="1833" y1="1035" x2="1843" y2="1045"/>
		<line class="st2" x1="1828" y1="1044" x2="1838" y2="1068"/>
		<line class="st2" x1="1838" y1="1068" x2="1838" y2="1138"/>
	</g>
	<g>
		<line class="st2" x1="1962" y1="675" x2="1962" y2="1041"/>
		<line class="st2" x1="1966" y1="1035" x2="1957" y2="1045"/>
		<line class="st2" x1="1957" y1="1035" x2="1967" y2="1045"/>
		<line class="st2" x1="1952" y1="1044" x2="1962" y2="1068"/>
		<line class="st2" x1="1962" y1="1068" x2="1962" y2="1138"/>
	</g>
	<line class="st2" x1="378" y1="464.3" x2="331" y2="464.3"/>
	<polyline class="st2" points="326,453 304,464 264,464 264,748 305,748 328,738 	"/>
	<line class="st2" x1="330" y1="747" x2="377" y2="747"/>
	<line class="st2" x1="377" y1="281" x2="329" y2="281"/>
	<line class="st2" x1="333" y1="277" x2="324" y2="287"/>
	<line class="st2" x1="324" y1="277" x2="333" y2="286"/>
	<g>
		<polyline class="st2" points="325,273 302,282 227,282 219,277 219,282.5 219,288 227,282 		"/>
		<line class="st2" x1="190" y1="282" x2="219" y2="282"/>
		<line class="st2" x1="219" y1="285.3" x2="179" y2="323"/>
		<polyline class="st2" points="155,282 168,282 168,324 199,324 		"/>
		<line class="st2" x1="199" y1="316" x2="199" y2="334"/>
		<line class="st2" x1="204" y1="319" x2="204" y2="329"/>
		<line class="st2" x1="208" y1="321" x2="208" y2="326"/>
		<line class="st2" x1="176" y1="271" x2="168" y2="282"/>
		<line class="st2" x1="176" y1="292" x2="168" y2="283.2"/>
		<polygon class="st2" points="140,274 140,292 123,283 		"/>
		<circle class="st2" cx="167" cy="283" r="23"/>
		<circle class="st2" cx="137" cy="283" r="23"/>
		<polyline class="st2" points="114,283.8 81,284 59,273 		"/>
		<line class="st2" x1="34" y1="283" x2="55" y2="283"/>
		<line class="st2" x1="50" y1="278" x2="59" y2="288"/>
		<line class="st2" x1="59" y1="278" x2="50" y2="288"/>
	</g>
	<line class="st2" x1="380" y1="908" x2="332" y2="908"/>
	<line class="st2" x1="336" y1="904" x2="327" y2="914"/>
	<line class="st2" x1="327" y1="904" x2="336" y2="913"/>
	<g>
		<polyline class="st2" points="328,901 305,910 230,910 222,905 222,910.5 222,916 230,910 		"/>
		<line class="st2" x1="193" y1="910" x2="222" y2="910"/>
		<line class="st2" x1="222" y1="913.3" x2="182" y2="951"/>
		<polyline class="st2" points="158,910 171,910 171,952 202,952 		"/>
		<line class="st2" x1="202" y1="944" x2="202" y2="962"/>
		<line class="st2" x1="207" y1="947" x2="207" y2="957"/>
		<line class="st2" x1="211" y1="949" x2="211" y2="954"/>
		<line class="st2" x1="179" y1="899" x2="171" y2="910"/>
		<line class="st2" x1="179" y1="920" x2="171" y2="911.2"/>
		<polygon class="st2" points="143,902 143,920 126,911 		"/>
		<circle class="st2" cx="170" cy="911" r="23"/>
		<circle class="st2" cx="140" cy="911" r="23"/>
		<polyline class="st2" points="117,911.8 84,912 62,901 		"/>
		<line class="st2" x1="37" y1="911" x2="58" y2="911"/>
		<line class="st2" x1="53" y1="906" x2="62" y2="916"/>
		<line class="st2" x1="62" y1="906" x2="53" y2="916"/>
	</g>
	<g>
		<polyline class="st2" points="264,595 227,595 219,590 219,595.5 219,601 227,595 		"/>
		<line class="st2" x1="190" y1="595" x2="219" y2="595"/>
		<line class="st2" x1="219" y1="598.3" x2="179" y2="636"/>
		<polyline class="st2" points="155,595 168,595 168,637 199,637 		"/>
		<line class="st2" x1="199" y1="629" x2="199" y2="647"/>
		<line class="st2" x1="204" y1="632" x2="204" y2="642"/>
		<line class="st2" x1="208" y1="634" x2="208" y2="639"/>
		<line class="st2" x1="176" y1="584" x2="168" y2="595"/>
		<line class="st2" x1="176" y1="605" x2="168" y2="596.2"/>
		<polygon class="st2" points="140,587 140,605 123,596 		"/>
		<circle class="st2" cx="167" cy="596" r="23"/>
		<circle class="st2" cx="137" cy="596" r="23"/>
		<polyline class="st2" points="114,596.8 81,597 59,586 		"/>
		<line class="st2" x1="34" y1="596" x2="55" y2="596"/>
		<line class="st2" x1="50" y1="591" x2="59" y2="601"/>
		<line class="st2" x1="59" y1="591" x2="50" y2="601"/>
	</g>
	<line class="st2" x1="521" y1="431.4" x2="521" y2="796"/>
	<line class="st2" x1="638" y1="431.4" x2="638" y2="796"/>
	<line class="st2" x1="750" y1="428.9" x2="750" y2="796"/>
</g>
<text transform="matrix(1 0 0 1 811 49.9341)" class="st3 st4 st5">500kV东善桥变电站站用交流系统</text>
<text transform="matrix(1 0 0 1 325 447)" class="st3 st4 st6">一段</text>
<text transform="matrix(1 0 0 1 325 831)" class="st3 st4 st6">二段</text>
<g class="st0">
	<path class="st7" d="M2159.4,1020.9L2159.4,1020.9c-5.5,0-10-4.5-10-10l0,0c0-5.5,4.5-10,10-10l0,0c5.5,0,10,4.5,10,10l0,0
		C2169.4,1016.5,2164.9,1020.9,2159.4,1020.9z"/>
	<text transform="matrix(1 0 0 1 2184 1018.7698)" class="st8 st4 st9">剩余电流</text>
	<circle class="st10" cx="2159.4" cy="1010.9" r="5"/>
	<path class="st7" d="M2159.4,1077.4L2159.4,1077.4c-5.5,0-10-4.5-10-10l0,0c0-5.5,4.5-10,10-10l0,0c5.5,0,10,4.5,10,10l0,0
		C2169.4,1072.9,2164.9,1077.4,2159.4,1077.4z"/>
	<text transform="matrix(1 0 0 1 2184 1075.2493)" class="st8 st4 st9">铠装电流</text>
	<text transform="matrix(1 0 0 1 2147 964.5002)" class="st8 st4 st11">图例：</text>
</g>
<line class="st12" x1="804.3" y1="61.6" x2="1361.1" y2="61.6"/>
</svg>
