<?xml version="1.0" encoding="utf-8"?>
<!-- Generator: Adobe Illustrator 21.0.0, SVG Export Plug-In . SVG Version: 6.00 Build 0)  -->
<svg version="1.1" id="图层_1" xmlns="http://www.w3.org/2000/svg" xmlns:xlink="http://www.w3.org/1999/xlink" x="0px" y="0px"
	 viewBox="0 0 2338 1153" style="enable-background:new 0 0 2338 1153;" xml:space="preserve">
<style type="text/css">
	.st0{display:none;}
	.st1{display:inline;fill:#141A26;}
	.st2{fill:none;stroke:#FFCE00;stroke-width:6;stroke-miterlimit:10;}
	.st3{fill:none;stroke:#47B2FE;stroke-width:5;stroke-miterlimit:10;}
	.st4{fill:none;stroke:#FFCE00;stroke-width:5;stroke-miterlimit:10;}
	.st5{fill:#FFFFFF;}
	.st6{font-family:'MicrosoftYaHei';}
	.st7{font-size:36px;}
	.st8{font-size:30px;}
	.st9{font-family:'AdobeSongStd-Light-GBpc-EUC-H';}
	.st10{font-size:22px;}
	.st11{font-size:20px;}
	.st12{font-size:24px;}
	.st13{fill:none;stroke:#FFFFFF;stroke-width:2;stroke-miterlimit:10;}
	.st14{fill:#FFCE00;}
	.st15{fill:#47B2FE;}
</style>
<g id="图层_4" class="st0">
	<rect class="st1" width="2338" height="1153"/>
</g>
<g>
	<polyline class="st2" points="378,479 378,82 2049,82 	"/>
	<polyline class="st2" points="378,731 378,1140 2080,1140 	"/>
	<polyline class="st3" points="2049,107 402,107 402,479 402,731 402,1115 2082,1115 	"/>
	<g>
		<polyline class="st4" points="509,82 509,298 520,321 		"/>
		<polyline class="st4" points="541,107 541,401 511,401 511,326 		"/>
		<line class="st4" x1="515" y1="321" x2="506" y2="331"/>
		<line class="st4" x1="506" y1="321" x2="515" y2="330"/>
	</g>
	<g>
		<polyline class="st4" points="538,1140 538,910 527,887 		"/>
		<polyline class="st4" points="506,1112 506,817 536,817 536,882 		"/>
		<line class="st4" x1="532" y1="887" x2="541" y2="877"/>
		<line class="st4" x1="541" y1="887" x2="532" y2="878"/>
	</g>
	<g>
		<polyline class="st4" points="658,1140 658,910 647,887 		"/>
		<polyline class="st4" points="626,1112 626,817 656,817 656,882 		"/>
		<line class="st4" x1="652" y1="887" x2="661" y2="877"/>
		<line class="st4" x1="661" y1="887" x2="652" y2="878"/>
	</g>
	<g>
		<polyline class="st4" points="768,1140 768,910 757,887 		"/>
		<polyline class="st4" points="736,1112 736,817 766,817 766,882 		"/>
		<line class="st4" x1="762" y1="887" x2="771" y2="877"/>
		<line class="st4" x1="771" y1="887" x2="762" y2="878"/>
	</g>
	<g>
		<polyline class="st4" points="889,1142 889,912 878,889 		"/>
		<polyline class="st4" points="857,1114 857,819 887,819 887,884 		"/>
		<line class="st4" x1="883" y1="889" x2="892" y2="879"/>
		<line class="st4" x1="892" y1="889" x2="883" y2="880"/>
	</g>
	<g>
		<polyline class="st4" points="1019,1142 1019,912 1008,889 		"/>
		<polyline class="st4" points="987,1114 987,819 1017,819 1017,884 		"/>
		<line class="st4" x1="1013" y1="889" x2="1022" y2="879"/>
		<line class="st4" x1="1022" y1="889" x2="1013" y2="880"/>
	</g>
	<g>
		<polyline class="st4" points="1135,1142 1135,912 1124,889 		"/>
		<polyline class="st4" points="1103,1114 1103,819 1133,819 1133,884 		"/>
		<line class="st4" x1="1129" y1="889" x2="1138" y2="879"/>
		<line class="st4" x1="1138" y1="889" x2="1129" y2="880"/>
	</g>
	<g>
		<polyline class="st4" points="1258,1142 1258,912 1247,889 		"/>
		<polyline class="st4" points="1226,1114 1226,819 1256,819 1256,884 		"/>
		<line class="st4" x1="1252" y1="889" x2="1261" y2="879"/>
		<line class="st4" x1="1261" y1="889" x2="1252" y2="880"/>
	</g>
	<g>
		<polyline class="st4" points="1385,1142 1385,912 1374,889 		"/>
		<polyline class="st4" points="1353,1114 1353,819 1383,819 1383,884 		"/>
		<line class="st4" x1="1379" y1="889" x2="1388" y2="879"/>
		<line class="st4" x1="1388" y1="889" x2="1379" y2="880"/>
	</g>
	<g>
		<polyline class="st4" points="1503,1141 1503,911 1492,888 		"/>
		<polyline class="st4" points="1471,1113 1471,818 1501,818 1501,883 		"/>
		<line class="st4" x1="1497" y1="888" x2="1506" y2="878"/>
		<line class="st4" x1="1506" y1="888" x2="1497" y2="879"/>
	</g>
	<g>
		<polyline class="st4" points="621,82 621,298 632,321 		"/>
		<polyline class="st4" points="653,107 653,401 623,401 623,326 		"/>
		<line class="st4" x1="627" y1="321" x2="618" y2="331"/>
		<line class="st4" x1="618" y1="321" x2="627" y2="330"/>
	</g>
	<g>
		<polyline class="st4" points="733,82 733,298 744,321 		"/>
		<polyline class="st4" points="765,107 765,401 735,401 735,326 		"/>
		<line class="st4" x1="739" y1="321" x2="730" y2="331"/>
		<line class="st4" x1="730" y1="321" x2="739" y2="330"/>
	</g>
	<g>
		<polyline class="st4" points="848,82 848,298 859,321 		"/>
		<polyline class="st4" points="880,107 880,401 850,401 850,326 		"/>
		<line class="st4" x1="854" y1="321" x2="845" y2="331"/>
		<line class="st4" x1="845" y1="321" x2="854" y2="330"/>
	</g>
	<g>
		<polyline class="st4" points="941,82 941,298 952,321 		"/>
		<polyline class="st4" points="973,107 973,401 943,401 943,326 		"/>
		<line class="st4" x1="947" y1="321" x2="938" y2="331"/>
		<line class="st4" x1="938" y1="321" x2="947" y2="330"/>
	</g>
	<g>
		<polyline class="st4" points="1032,82 1032,298 1043,321 		"/>
		<polyline class="st4" points="1064,107 1064,401 1034,401 1034,326 		"/>
		<line class="st4" x1="1038" y1="321" x2="1029" y2="331"/>
		<line class="st4" x1="1029" y1="321" x2="1038" y2="330"/>
	</g>
	<g>
		<polyline class="st4" points="1126,82 1126,298 1137,321 		"/>
		<polyline class="st4" points="1158,107 1158,401 1128,401 1128,326 		"/>
		<line class="st4" x1="1132" y1="321" x2="1123" y2="331"/>
		<line class="st4" x1="1123" y1="321" x2="1132" y2="330"/>
	</g>
	<g>
		<polyline class="st4" points="1216,82 1216,298 1227,321 		"/>
		<polyline class="st4" points="1248,107 1248,401 1218,401 1218,326 		"/>
		<line class="st4" x1="1222" y1="321" x2="1213" y2="331"/>
		<line class="st4" x1="1213" y1="321" x2="1222" y2="330"/>
	</g>
	<g>
		<polyline class="st4" points="1310,82 1310,298 1321,321 		"/>
		<polyline class="st4" points="1342,107 1342,401 1312,401 1312,326 		"/>
		<line class="st4" x1="1316" y1="321" x2="1307" y2="331"/>
		<line class="st4" x1="1307" y1="321" x2="1316" y2="330"/>
	</g>
	<g>
		<polyline class="st4" points="1404,82 1404,298 1415,321 		"/>
		<polyline class="st4" points="1436,107 1436,401 1406,401 1406,326 		"/>
		<line class="st4" x1="1410" y1="321" x2="1401" y2="331"/>
		<line class="st4" x1="1401" y1="321" x2="1410" y2="330"/>
	</g>
	<g>
		<polyline class="st4" points="1492,82 1492,298 1503,321 		"/>
		<polyline class="st4" points="1524,107 1524,401 1494,401 1494,326 		"/>
		<line class="st4" x1="1498" y1="321" x2="1489" y2="331"/>
		<line class="st4" x1="1489" y1="321" x2="1498" y2="330"/>
	</g>
	<g>
		<polyline class="st4" points="1589,82 1589,134 1598,157 		"/>
		<line class="st4" x1="1589" y1="164" x2="1589" y2="505"/>
		<line class="st4" x1="1594" y1="157" x2="1584" y2="167"/>
		<line class="st4" x1="1584" y1="157" x2="1594" y2="167"/>
	</g>
	<g>
		<polyline class="st4" points="1713,82 1713,134 1722,157 		"/>
		<line class="st4" x1="1713" y1="164" x2="1713" y2="505"/>
		<line class="st4" x1="1718" y1="157" x2="1708" y2="167"/>
		<line class="st4" x1="1708" y1="157" x2="1718" y2="167"/>
	</g>
	<g>
		<polyline class="st4" points="1839,82 1839,134 1848,157 		"/>
		<line class="st4" x1="1839" y1="164" x2="1839" y2="505"/>
		<line class="st4" x1="1844" y1="157" x2="1834" y2="167"/>
		<line class="st4" x1="1834" y1="157" x2="1844" y2="167"/>
	</g>
	<g>
		<polyline class="st4" points="1961,82 1961,134 1970,157 		"/>
		<line class="st4" x1="1961" y1="164" x2="1961" y2="505"/>
		<line class="st4" x1="1966" y1="157" x2="1956" y2="167"/>
		<line class="st4" x1="1956" y1="157" x2="1966" y2="167"/>
	</g>
	<g>
		<line class="st4" x1="1589" y1="731" x2="1589" y2="1041"/>
		<line class="st4" x1="1593" y1="1035" x2="1584" y2="1045"/>
		<line class="st4" x1="1584" y1="1035" x2="1594" y2="1045"/>
		<polyline class="st4" points="1579,1044 1589,1068 1589,1072 1589,1138 		"/>
	</g>
	<g>
		<line class="st4" x1="1712" y1="681" x2="1712" y2="1041"/>
		<line class="st4" x1="1716" y1="1035" x2="1707" y2="1045"/>
		<line class="st4" x1="1707" y1="1035" x2="1717" y2="1045"/>
		<polyline class="st4" points="1702,1044 1712,1068 1712,1072 1712,1138 		"/>
	</g>
	<g>
		<line class="st4" x1="1837" y1="681" x2="1837" y2="1041"/>
		<line class="st4" x1="1841" y1="1035" x2="1832" y2="1045"/>
		<line class="st4" x1="1832" y1="1035" x2="1842" y2="1045"/>
		<polyline class="st4" points="1827,1044 1837,1068 1837,1072.8 1837,1138 		"/>
	</g>
	<g>
		<line class="st4" x1="1961" y1="681" x2="1961" y2="1041"/>
		<line class="st4" x1="1965" y1="1035" x2="1956" y2="1045"/>
		<line class="st4" x1="1956" y1="1035" x2="1966" y2="1045"/>
		<line class="st4" x1="1951" y1="1044" x2="1961" y2="1068"/>
		<line class="st4" x1="1961" y1="1068" x2="1961" y2="1138"/>
	</g>
	<line class="st2" x1="378" y1="1140" x2="2081" y2="1140"/>
	<g>
		<line class="st4" x1="1590" y1="675" x2="1590" y2="1041"/>
		<line class="st4" x1="1594" y1="1035" x2="1585" y2="1045"/>
		<line class="st4" x1="1585" y1="1035" x2="1595" y2="1045"/>
	</g>
	<line class="st2" x1="378" y1="464.3" x2="331" y2="464.3"/>
	<polyline class="st2" points="326,453 304,464 264,464 264,748 305,748 328,738 	"/>
	<line class="st2" x1="330" y1="747" x2="377" y2="747"/>
	<line class="st2" x1="377" y1="281" x2="329" y2="281"/>
	<line class="st2" x1="333" y1="277" x2="324" y2="287"/>
	<line class="st2" x1="324" y1="277" x2="333" y2="286"/>
	<g>
		<polyline class="st2" points="325,273 302,282 227,282 219,277 219,282.5 219,288 227,282 		"/>
		<line class="st2" x1="190" y1="282" x2="219" y2="282"/>
		<line class="st2" x1="219" y1="285.3" x2="179" y2="323"/>
		<polyline class="st2" points="155,282 168,282 168,324 199,324 		"/>
		<line class="st2" x1="199" y1="316" x2="199" y2="334"/>
		<line class="st2" x1="204" y1="319" x2="204" y2="329"/>
		<line class="st2" x1="208" y1="321" x2="208" y2="326"/>
		<line class="st2" x1="176" y1="271" x2="168" y2="282"/>
		<line class="st2" x1="176" y1="292" x2="168" y2="283.2"/>
		<polygon class="st2" points="140,274 140,292 123,283 		"/>
		<circle class="st2" cx="167" cy="283" r="23"/>
		<circle class="st2" cx="137" cy="283" r="23"/>
		<polyline class="st2" points="114,283.8 81,284 59,273 		"/>
		<line class="st2" x1="34" y1="283" x2="55" y2="283"/>
		<line class="st2" x1="50" y1="278" x2="59" y2="288"/>
		<line class="st2" x1="59" y1="278" x2="50" y2="288"/>
	</g>
	<line class="st2" x1="380" y1="908" x2="332" y2="908"/>
	<line class="st2" x1="336" y1="904" x2="327" y2="914"/>
	<line class="st2" x1="327" y1="904" x2="336" y2="913"/>
	<line class="st2" x1="334.5" y1="742" x2="325.5" y2="752"/>
	<line class="st2" x1="325.5" y1="742" x2="334.5" y2="751"/>
	<line class="st2" x1="334.5" y1="459.5" x2="325.5" y2="469.5"/>
	<line class="st2" x1="325.5" y1="459.5" x2="334.5" y2="468.5"/>
	<g>
		<polyline class="st2" points="328,901 305,910 230,910 222,905 222,910.5 222,916 230,910 		"/>
		<line class="st2" x1="193" y1="910" x2="222" y2="910"/>
		<line class="st2" x1="222" y1="913.3" x2="182" y2="951"/>
		<polyline class="st2" points="158,910 171,910 171,952 202,952 		"/>
		<line class="st2" x1="202" y1="944" x2="202" y2="962"/>
		<line class="st2" x1="207" y1="947" x2="207" y2="957"/>
		<line class="st2" x1="211" y1="949" x2="211" y2="954"/>
		<line class="st2" x1="179" y1="899" x2="171" y2="910"/>
		<line class="st2" x1="179" y1="920" x2="171" y2="911.2"/>
		<polygon class="st2" points="143,902 143,920 126,911 		"/>
		<circle class="st2" cx="170" cy="911" r="23"/>
		<circle class="st2" cx="140" cy="911" r="23"/>
		<polyline class="st2" points="117,911.8 84,912 62,901 		"/>
		<line class="st2" x1="37" y1="911" x2="58" y2="911"/>
		<line class="st2" x1="53" y1="906" x2="62" y2="916"/>
		<line class="st2" x1="62" y1="906" x2="53" y2="916"/>
	</g>
	<g>
		<polyline class="st2" points="264,595 227,595 219,590 219,595.5 219,601 227,595 		"/>
		<line class="st2" x1="190" y1="595" x2="219" y2="595"/>
		<line class="st2" x1="219" y1="598.3" x2="179" y2="636"/>
		<polyline class="st2" points="155,595 168,595 168,637 199,637 		"/>
		<line class="st2" x1="199" y1="629" x2="199" y2="647"/>
		<line class="st2" x1="204" y1="632" x2="204" y2="642"/>
		<line class="st2" x1="208" y1="634" x2="208" y2="639"/>
		<line class="st2" x1="176" y1="584" x2="168" y2="595"/>
		<line class="st2" x1="176" y1="605" x2="168" y2="596.2"/>
		<polygon class="st2" points="140,587 140,605 123,596 		"/>
		<circle class="st2" cx="167" cy="596" r="23"/>
		<circle class="st2" cx="137" cy="596" r="23"/>
		<polyline class="st2" points="114,596.8 81,597 59,586 		"/>
		<line class="st2" x1="34" y1="596" x2="55" y2="596"/>
		<line class="st2" x1="50" y1="591" x2="59" y2="601"/>
		<line class="st2" x1="59" y1="591" x2="50" y2="601"/>
	</g>
	<line class="st4" x1="521" y1="431.4" x2="521" y2="796"/>
	<line class="st4" x1="638" y1="431.4" x2="638" y2="796"/>
	<line class="st4" x1="750" y1="428.9" x2="750" y2="796"/>
</g>
<text transform="matrix(1 0 0 1 811 49.9341)" class="st5 st6 st7">500kV东善桥变电站站用交流系统</text>
<text transform="matrix(1 0 0 1 120 67.3342)" class="st5 st6 st8">总剩余电流</text>
<text transform="matrix(1 0 0 1 301 70.3341)" class="st5 st9 st10"> </text>
<text transform="matrix(1 0 0 1 95.4277 170.9341)" class="st5 st6 st10">1号站用变剩余电流</text>
<text transform="matrix(1 0 0 1 95.4277 431.9341)" class="st5 st6 st10">0号站用变剩余电流</text>
<text transform="matrix(1 0 0 1 95.4277 785.9341)" class="st5 st6 st10">2号站用变剩余电流</text>
<g>
	<text transform="matrix(1 0 0 1 1856.8994 231.9341)" class="st5 st6 st11">500k V断</text>
	<text transform="matrix(1 0 0 1 1856.899 261.3297)" class="st5 st6 st11">路器电源1</text>
	<text transform="matrix(1 0 0 1 1856.899 290.7253)" class="st5 st6 st11">（起点）</text>
	<text transform="matrix(1 0 0 1 1856.8993 515.9341)" class="st5 st6 st11">500k V断</text>
	<text transform="matrix(1 0 0 1 1856.8989 545.3301)" class="st5 st6 st11">路器电源1</text>
	<text transform="matrix(1 0 0 1 1856.8994 574.7253)" class="st5 st6 st11">（终点）</text>
	<text transform="matrix(1 0 0 1 1859.8994 380.9253)" class="st5 st6 st11">铠装接地</text>
	<text transform="matrix(1 0 0 1 1859.8994 415.3253)" class="st5 st6 st11">电流合成</text>
</g>
<g>
	<text transform="matrix(1 0 0 1 1983.877 231.9341)" class="st5 st6 st11">1号主变冷</text>
	<text transform="matrix(1 0 0 1 1983.8762 261.3297)" class="st5 st6 st11">却器电源1</text>
	<text transform="matrix(1 0 0 1 1983.8762 290.7253)" class="st5 st6 st11">（起点）</text>
	<text transform="matrix(1 0 0 1 1983.877 515.9341)" class="st5 st6 st11">1号主变冷</text>
	<text transform="matrix(1 0 0 1 1983.8762 545.3301)" class="st5 st6 st11">却器电源1</text>
	<text transform="matrix(1 0 0 1 1983.8762 574.7253)" class="st5 st6 st11">（终点）</text>
	<text transform="matrix(1 0 0 1 1986.877 380.9253)" class="st5 st6 st11">铠装接地</text>
	<text transform="matrix(1 0 0 1 1986.877 415.3253)" class="st5 st6 st11">电流合成</text>
</g>
<g>
	<text transform="matrix(1 0 0 1 1982.9305 707.9341)" class="st5 st6 st11">1号主变冷</text>
	<text transform="matrix(1 0 0 1 1982.9303 737.3301)" class="st5 st6 st11">却器电源2</text>
	<text transform="matrix(1 0 0 1 1982.9308 766.7253)" class="st5 st6 st11">（终点）</text>
	<text transform="matrix(1 0 0 1 1982.9301 1000.9341)" class="st5 st6 st11">1号主变冷</text>
	<text transform="matrix(1 0 0 1 1982.9298 1030.3301)" class="st5 st6 st11">却器电源2</text>
	<text transform="matrix(1 0 0 1 1982.9303 1059.7253)" class="st5 st6 st11">（起点）</text>
	<text transform="matrix(1 0 0 1 1986.8772 868.9253)" class="st5 st6 st11">铠装接地</text>
	<text transform="matrix(1 0 0 1 1986.8772 903.3254)" class="st5 st6 st11">电流合成</text>
</g>
<g>
	<text transform="matrix(1 0 0 1 1856.3997 707.9341)" class="st5 st6 st11">500k V断</text>
	<text transform="matrix(1 0 0 1 1859.3993 737.3301)" class="st5 st6 st11">路器电源2</text>
	<text transform="matrix(1 0 0 1 1859.3998 766.7253)" class="st5 st6 st11">（终点）</text>
	<text transform="matrix(1 0 0 1 1859.4 1000.9341)" class="st5 st6 st11">500k V断</text>
	<text transform="matrix(1 0 0 1 1859.3997 1030.3301)" class="st5 st6 st11">路器电源2</text>
	<text transform="matrix(1 0 0 1 1859.4001 1059.7253)" class="st5 st6 st11">（起点）</text>
	<text transform="matrix(1 0 0 1 1865.5704 868.9253)" class="st5 st6 st11">铠装接地</text>
	<text transform="matrix(1 0 0 1 1865.5704 903.3254)" class="st5 st6 st11">电流合成</text>
</g>
<g>
	<text transform="matrix(1 0 0 1 1605.4473 231.9341)" class="st5 st6 st11">2号主变冷</text>
	<text transform="matrix(1 0 0 1 1605.4475 261.3297)" class="st5 st6 st11">却器电源1</text>
	<text transform="matrix(1 0 0 1 1605.4475 290.7253)" class="st5 st6 st11">（起点）</text>
	<text transform="matrix(1 0 0 1 1605.4473 515.9341)" class="st5 st6 st11">2号主变冷</text>
	<text transform="matrix(1 0 0 1 1605.4475 545.3301)" class="st5 st6 st11">却器电源1</text>
	<text transform="matrix(1 0 0 1 1605.4475 574.7253)" class="st5 st6 st11">（终点）</text>
	<text transform="matrix(1 0 0 1 1603.4473 380.9253)" class="st5 st6 st11">长电缆剩余</text>
	<text transform="matrix(1 0 0 1 1603.4473 414.3256)" class="st5 st6 st11">电流合成</text>
</g>
<g>
	<text transform="matrix(1 0 0 1 1727.728 232.9341)" class="st5 st6 st11">3号主变冷</text>
	<text transform="matrix(1 0 0 1 1727.7278 262.3297)" class="st5 st6 st11">却器电源1</text>
	<text transform="matrix(1 0 0 1 1727.7283 291.7253)" class="st5 st6 st11">（起点）</text>
	<text transform="matrix(1 0 0 1 1727.7278 514.9341)" class="st5 st6 st11">3号主变冷</text>
	<text transform="matrix(1 0 0 1 1727.7275 544.3301)" class="st5 st6 st11">却器电源1</text>
	<text transform="matrix(1 0 0 1 1727.7278 573.7253)" class="st5 st6 st11">（终点）</text>
	<text transform="matrix(1 0 0 1 1730.7279 380.9253)" class="st5 st6 st11">长电缆剩余</text>
	<text transform="matrix(1 0 0 1 1730.7279 413.3256)" class="st5 st6 st11">电流合成</text>
</g>
<g>
	<text transform="matrix(1 0 0 1 1604.4475 707.9341)" class="st5 st6 st11">2号主变冷</text>
	<text transform="matrix(1 0 0 1 1604.4473 737.3301)" class="st5 st6 st11">却器电源2</text>
	<text transform="matrix(1 0 0 1 1604.4468 766.7253)" class="st5 st6 st11">（终点）</text>
	<text transform="matrix(1 0 0 1 1605.448 1000.9341)" class="st5 st6 st11">2号主变冷</text>
	<text transform="matrix(1 0 0 1 1605.4478 1030.3301)" class="st5 st6 st11">却器电源2</text>
	<text transform="matrix(1 0 0 1 1605.4473 1059.7253)" class="st5 st6 st11">（起点）</text>
	<text transform="matrix(1 0 0 1 1599.1002 870.7993)" class="st5 st6 st11">长电缆剩余</text>
	<text transform="matrix(1 0 0 1 1599.1002 904.1996)" class="st5 st6 st11">电流合成</text>
</g>
<g>
	<text transform="matrix(1 0 0 1 1727.7273 707.9341)" class="st5 st6 st11">3号主变冷</text>
	<text transform="matrix(1 0 0 1 1727.7271 737.3301)" class="st5 st6 st11">却器电源2</text>
	<text transform="matrix(1 0 0 1 1727.7275 766.7253)" class="st5 st6 st11">（终点）</text>
	<text transform="matrix(1 0 0 1 1727.7268 1000.9341)" class="st5 st6 st11">3号主变冷</text>
	<text transform="matrix(1 0 0 1 1727.7266 1030.3301)" class="st5 st6 st11">却器电源2</text>
	<text transform="matrix(1 0 0 1 1727.7271 1059.7253)" class="st5 st6 st11">（起点）</text>
	<text transform="matrix(1 0 0 1 1724.7283 869.7993)" class="st5 st6 st11">长电缆剩余</text>
	<text transform="matrix(1 0 0 1 1724.7283 902.1996)" class="st5 st6 st11">电流合成</text>
</g>
<g>
	<text transform="matrix(1 0 0 1 463.9731 212.1086)" class="st5 st6 st10">35</text>
	<text transform="matrix(1 0 0 1 460.4731 238.5085)" class="st5 st6 st10">k V</text>
	<text transform="matrix(1 0 0 1 465.8745 266.8691)" class="st5 st6 st10">断</text>
	<text transform="matrix(1 0 0 1 465.8745 293.2692)" class="st5 st6 st10">路</text>
	<text transform="matrix(1 0 0 1 465.8746 320.0653)" class="st5 st6 st10">器</text>
	<text transform="matrix(1 0 0 1 465.8746 346.4653)" class="st5 st6 st10">电</text>
	<text transform="matrix(1 0 0 1 465.8746 372.8654)" class="st5 st6 st10">源</text>
	<text transform="matrix(1 0 0 1 470.3746 400.7)" class="st5 st6 st10">1</text>
</g>
<g>
	<text transform="matrix(1 0 0 1 573.8873 212.1091)" class="st5 st6 st10">500</text>
	<text transform="matrix(1 0 0 1 574.7874 238.5092)" class="st5 st6 st10">k V</text>
	<text transform="matrix(1 0 0 1 582.2391 266.8699)" class="st5 st6 st10">断</text>
	<text transform="matrix(1 0 0 1 582.2391 293.2699)" class="st5 st6 st10">路</text>
	<text transform="matrix(1 0 0 1 582.2394 320.0657)" class="st5 st6 st10">器</text>
	<text transform="matrix(1 0 0 1 582.2394 346.4657)" class="st5 st6 st10">电</text>
	<text transform="matrix(1 0 0 1 582.2394 372.8656)" class="st5 st6 st10">源</text>
	<text transform="matrix(1 0 0 1 586.7394 400.7002)" class="st5 st6 st10">1</text>
</g>
<g>
	<text transform="matrix(1 0 0 1 701.0785 163.7048)" class="st5 st6 st10">1</text>
	<text transform="matrix(1 0 0 1 696.5785 188.6702)" class="st5 st6 st10">号</text>
	<text transform="matrix(1 0 0 1 698.0292 218.6703)" class="st5 st6 st10">主</text>
	<text transform="matrix(1 0 0 1 698.0292 245.0702)" class="st5 st6 st10">变</text>
	<text transform="matrix(1 0 0 1 698 270.4661)" class="st5 st6 st10">冷</text>
	<text transform="matrix(1 0 0 1 698 296.8661)" class="st5 st6 st10">却</text>
	<text transform="matrix(1 0 0 1 697.9999 321.4659)" class="st5 st6 st10">器</text>
	<text transform="matrix(1 0 0 1 697.9999 347.866)" class="st5 st6 st10">电</text>
	<text transform="matrix(1 0 0 1 696.4999 372.8314)" class="st5 st6 st10">源</text>
	<text transform="matrix(1 0 0 1 700.9999 400.666)" class="st5 st6 st10">1</text>
</g>
<g>
	<text transform="matrix(1 0 0 1 1187.021 133.27)" class="st5 st6 st10">通</text>
	<text transform="matrix(1 0 0 1 1187.021 159.6701)" class="st5 st6 st10">信</text>
	<text transform="matrix(1 0 0 1 1187.021 186.0701)" class="st5 st6 st10">楼</text>
	<text transform="matrix(1 0 0 1 1187.0212 212.47)" class="st5 st6 st10">交</text>
	<text transform="matrix(1 0 0 1 1187.0212 238.87)" class="st5 st6 st10">流</text>
	<text transform="matrix(1 0 0 1 1187.0212 265.27)" class="st5 st6 st10">屏</text>
	<text transform="matrix(1 0 0 1 1179.7212 293.1046)" class="st5 st6 st10">(二)</text>
	<text transform="matrix(1 0 0 1 1187.021 321.27)" class="st5 st6 st10">输</text>
	<text transform="matrix(1 0 0 1 1187.021 347.6702)" class="st5 st6 st10">入</text>
	<text transform="matrix(1 0 0 1 1187.021 374.0701)" class="st5 st6 st10">一</text>
	<text transform="matrix(1 0 0 1 1187.021 400.47)" class="st5 st6 st10">路</text>
</g>
<g>
	<text transform="matrix(1 0 0 1 1276.8599 133.5745)" class="st5 st6 st10">通</text>
	<text transform="matrix(1 0 0 1 1276.8599 159.9744)" class="st5 st6 st10">信</text>
	<text transform="matrix(1 0 0 1 1276.8599 186.3744)" class="st5 st6 st10">楼</text>
	<text transform="matrix(1 0 0 1 1276.8596 215.3904)" class="st5 st6 st10">整</text>
	<text transform="matrix(1 0 0 1 1276.8596 241.7904)" class="st5 st6 st10">流</text>
	<text transform="matrix(1 0 0 1 1276.8596 268.1904)" class="st5 st6 st10">屏</text>
	<text transform="matrix(1 0 0 1 1269.5597 296.025)" class="st5 st6 st10">(三)</text>
	<text transform="matrix(1 0 0 1 1276.8599 321.27)" class="st5 st6 st10">输</text>
	<text transform="matrix(1 0 0 1 1276.8599 347.6702)" class="st5 st6 st10">入</text>
	<text transform="matrix(1 0 0 1 1276.8599 374.0701)" class="st5 st6 st10">一</text>
	<text transform="matrix(1 0 0 1 1276.8599 400.47)" class="st5 st6 st10">路</text>
</g>
<g>
	<text transform="matrix(1 0 0 1 987.2155 269.7046)" class="st5 st6 st10">500</text>
	<text transform="matrix(1 0 0 1 991.1155 296.1046)" class="st5 st6 st10">k V</text>
	<text transform="matrix(1 0 0 1 988.8053 325.8994)" class="st5 st6 st10">GIS</text>
	<text transform="matrix(1 0 0 1 995.5673 346.4657)" class="st5 st6 st10">电</text>
	<text transform="matrix(1 0 0 1 995.5673 372.8657)" class="st5 st6 st10">源</text>
	<text transform="matrix(1 0 0 1 1000.0673 400.7003)" class="st5 st6 st10">1</text>
</g>
<g>
	<text transform="matrix(1 0 0 1 905.3492 299.8701)" class="st5 st6 st10">1</text>
	<text transform="matrix(1 0 0 1 900.8492 324.8355)" class="st5 st6 st10">号</text>
	<text transform="matrix(1 0 0 1 891.9998 352.2701)" class="st5 st6 st10">UPS</text>
	<text transform="matrix(1 0 0 1 902.2704 372.8652)" class="st5 st6 st10">电</text>
	<text transform="matrix(1 0 0 1 902.2704 399.2653)" class="st5 st6 st10">源</text>
</g>
<g>
	<text transform="matrix(1 0 0 1 1093.4407 129.4497)" class="st5 st6 st10">通</text>
	<text transform="matrix(1 0 0 1 1093.4407 155.8497)" class="st5 st6 st10">信</text>
	<text transform="matrix(1 0 0 1 1093.4407 182.2498)" class="st5 st6 st10">楼</text>
	<text transform="matrix(1 0 0 1 1093.4403 212.6456)" class="st5 st6 st10">整</text>
	<text transform="matrix(1 0 0 1 1093.4403 239.0457)" class="st5 st6 st10">流</text>
	<text transform="matrix(1 0 0 1 1093.4403 265.4457)" class="st5 st6 st10">屏</text>
	<text transform="matrix(1 0 0 1 1086.1403 293.2803)" class="st5 st6 st10">(一)</text>
	<text transform="matrix(1 0 0 1 1093.4404 320.0653)" class="st5 st6 st10">输</text>
	<text transform="matrix(1 0 0 1 1093.4404 346.4653)" class="st5 st6 st10">入</text>
	<text transform="matrix(1 0 0 1 1093.4404 372.8654)" class="st5 st6 st10">一</text>
	<text transform="matrix(1 0 0 1 1093.4404 399.2654)" class="st5 st6 st10">路</text>
</g>
<g>
	<text transform="matrix(1 0 0 1 1457.0017 348.2504)" class="st5 st6 st10">备</text>
	<text transform="matrix(1 0 0 1 1457.0017 374.6503)" class="st5 st6 st10">用</text>
	<text transform="matrix(1 0 0 1 1461.5022 399.7861)" class="st5 st6 st10">1</text>
</g>
<g>
	<text transform="matrix(1 0 0 1 1360.5505 206.9608)" class="st5 st6 st10">220</text>
	<text transform="matrix(1 0 0 1 1363.4507 233.3608)" class="st5 st6 st10">k V</text>
	<text transform="matrix(1 0 0 1 1368.9026 261.7213)" class="st5 st6 st10">断</text>
	<text transform="matrix(1 0 0 1 1368.9026 288.1213)" class="st5 st6 st10">路</text>
	<text transform="matrix(1 0 0 1 1368.9026 314.5213)" class="st5 st6 st10">器</text>
	<text transform="matrix(1 0 0 1 1368.9026 345.5515)" class="st5 st6 st10">电</text>
	<text transform="matrix(1 0 0 1 1368.9026 371.9515)" class="st5 st6 st10">源</text>
	<text transform="matrix(1 0 0 1 1373.4026 399.7861)" class="st5 st6 st10">1</text>
</g>
<g>
	<text transform="matrix(1 0 0 1 808.5779 239.8794)" class="st5 st6 st10">2</text>
	<text transform="matrix(1 0 0 1 804.0779 264.8448)" class="st5 st6 st10">号</text>
	<text transform="matrix(1 0 0 1 795.2285 295.2794)" class="st5 st6 st10">UPS</text>
	<text transform="matrix(1 0 0 1 805.4993 319.6399)" class="st5 st6 st10">旁</text>
	<text transform="matrix(1 0 0 1 805.4993 346.0399)" class="st5 st6 st10">路</text>
	<text transform="matrix(1 0 0 1 805.5 372.8654)" class="st5 st6 st10">电</text>
	<text transform="matrix(1 0 0 1 805.5 399.2654)" class="st5 st6 st10">源</text>
</g>
<text transform="matrix(1 0 0 1 422.1345 586.2)" class="st5 st6 st10">共零合成</text>
<text transform="matrix(1 0 0 1 539.0002 586.2)" class="st5 st6 st10">共零合成</text>
<text transform="matrix(1 0 0 1 654.0002 586.2)" class="st5 st6 st10">共零合成</text>
<g>
	<text transform="matrix(1 0 0 1 469.5216 836.9998)" class="st5 st6 st10">35</text>
	<text transform="matrix(1 0 0 1 469.0216 863.3998)" class="st5 st6 st10">k V </text>
	<text transform="matrix(1 0 0 1 471.4229 885.239)" class="st5 st6 st10">断</text>
	<text transform="matrix(1 0 0 1 471.4229 911.6389)" class="st5 st6 st10">路</text>
	<text transform="matrix(1 0 0 1 471.4229 938.0391)" class="st5 st6 st10">器</text>
	<text transform="matrix(1 0 0 1 471.4231 964.7405)" class="st5 st6 st10">电</text>
	<text transform="matrix(1 0 0 1 471.4231 991.1406)" class="st5 st6 st10">源</text>
	<text transform="matrix(1 0 0 1 475.9231 1018.9751)" class="st5 st6 st10">2</text>
</g>
<g>
	<text transform="matrix(1 0 0 1 579.876 837)" class="st5 st6 st10">500</text>
	<text transform="matrix(1 0 0 1 582.776 863.4)" class="st5 st6 st10">k V</text>
	<text transform="matrix(1 0 0 1 588.228 887.2395)" class="st5 st6 st10">断</text>
	<text transform="matrix(1 0 0 1 588.228 913.6395)" class="st5 st6 st10">路</text>
	<text transform="matrix(1 0 0 1 588.228 940.0396)" class="st5 st6 st10">器</text>
	<text transform="matrix(1 0 0 1 588.228 965.0566)" class="st5 st6 st10">电</text>
	<text transform="matrix(1 0 0 1 588.228 991.4567)" class="st5 st6 st10">源</text>
	<text transform="matrix(1 0 0 1 592.728 1019.2913)" class="st5 st6 st10">2</text>
</g>
<g>
	<text transform="matrix(1 0 0 1 708.9745 836.0005)" class="st5 st6 st10">1</text>
	<text transform="matrix(1 0 0 1 704.4745 860.9659)" class="st5 st6 st10">号</text>
	<text transform="matrix(1 0 0 1 704.9252 887.9658)" class="st5 st6 st10">主</text>
	<text transform="matrix(1 0 0 1 704.9252 912.366)" class="st5 st6 st10">变</text>
	<text transform="matrix(1 0 0 1 704.8957 936.5654)" class="st5 st6 st10">冷</text>
	<text transform="matrix(1 0 0 1 704.8957 962.9656)" class="st5 st6 st10">却</text>
	<text transform="matrix(1 0 0 1 704.8957 989.3655)" class="st5 st6 st10">器</text>
	<text transform="matrix(1 0 0 1 704.8959 1018.5656)" class="st5 st6 st10">电</text>
	<text transform="matrix(1 0 0 1 704.8959 1044.9656)" class="st5 st6 st10">源</text>
	<text transform="matrix(1 0 0 1 709.3959 1070.8002)" class="st5 st6 st10">2</text>
</g>
<g>
	<text transform="matrix(1 0 0 1 820.6633 837)" class="st5 st6 st10">1</text>
	<text transform="matrix(1 0 0 1 816.1633 861.9656)" class="st5 st6 st10">号</text>
	<text transform="matrix(1 0 0 1 805.8229 891.9998)" class="st5 st6 st10">UPS</text>
	<text transform="matrix(1 0 0 1 816.1229 916.9652)" class="st5 st6 st10">旁</text>
	<text transform="matrix(1 0 0 1 816.1229 943.3652)" class="st5 st6 st10">路</text>
	<text transform="matrix(1 0 0 1 816.1139 964.5657)" class="st5 st6 st10">电</text>
	<text transform="matrix(1 0 0 1 816.1139 990.9656)" class="st5 st6 st10">源</text>
</g>
<g>
	<text transform="matrix(1 0 0 1 949.8448 837.0005)" class="st5 st6 st10">2</text>
	<text transform="matrix(1 0 0 1 945.3448 861.9658)" class="st5 st6 st10">号</text>
	<text transform="matrix(1 0 0 1 935.0044 885.5002)" class="st5 st6 st10">UPS</text>
	<text transform="matrix(1 0 0 1 945.2953 909.8855)" class="st5 st6 st10">电</text>
	<text transform="matrix(1 0 0 1 945.2953 936.2855)" class="st5 st6 st10">源</text>
</g>
<g>
	<text transform="matrix(1 0 0 1 1055.7078 837.0005)" class="st5 st6 st10">500</text>
	<text transform="matrix(1 0 0 1 1058.6078 863.4005)" class="st5 st6 st10">k V</text>
	<text transform="matrix(1 0 0 1 1057.2974 883.0002)" class="st5 st6 st10">GIS</text>
	<text transform="matrix(1 0 0 1 1064.0598 905.0657)" class="st5 st6 st10">电</text>
	<text transform="matrix(1 0 0 1 1064.0598 931.4657)" class="st5 st6 st10">源</text>
	<text transform="matrix(1 0 0 1 1068.5598 959.3003)" class="st5 st6 st10">2</text>
</g>
<g>
	<text transform="matrix(1 0 0 1 1305.0737 837)" class="st5 st6 st10">220</text>
	<text transform="matrix(1 0 0 1 1307.9738 863.4)" class="st5 st6 st10">k V</text>
	<text transform="matrix(1 0 0 1 1313.4261 888.5662)" class="st5 st6 st10">断</text>
	<text transform="matrix(1 0 0 1 1313.4261 914.9661)" class="st5 st6 st10">路</text>
	<text transform="matrix(1 0 0 1 1313.4265 941.4655)" class="st5 st6 st10">器</text>
	<text transform="matrix(1 0 0 1 1313.4258 967.5659)" class="st5 st6 st10">电</text>
	<text transform="matrix(1 0 0 1 1313.4258 993.9658)" class="st5 st6 st10">源</text>
	<text transform="matrix(1 0 0 1 1317.9258 1021.8005)" class="st5 st6 st10">2</text>
</g>
<g>
	<text transform="matrix(1 0 0 1 1433.9004 834.3279)" class="st5 st6 st10">备</text>
	<text transform="matrix(1 0 0 1 1433.9004 860.7279)" class="st5 st6 st10">用</text>
	<text transform="matrix(1 0 0 1 1438.4004 888.6714)" class="st5 st6 st10">2</text>
</g>
<g>
	<text transform="matrix(1 0 0 1 1188.5718 836.1125)" class="st5 st6 st10">通</text>
	<text transform="matrix(1 0 0 1 1188.5718 862.5127)" class="st5 st6 st10">信</text>
	<text transform="matrix(1 0 0 1 1188.5718 888.9126)" class="st5 st6 st10">楼</text>
	<text transform="matrix(1 0 0 1 1189.5719 915.6128)" class="st5 st6 st10">整</text>
	<text transform="matrix(1 0 0 1 1189.5719 942.0128)" class="st5 st6 st10">流</text>
	<text transform="matrix(1 0 0 1 1189.5719 968.4128)" class="st5 st6 st10">屏</text>
	<text transform="matrix(1 0 0 1 1182.2245 996.722)" class="st5 st6 st10">(一)</text>
	<text transform="matrix(1 0 0 1 1189.5245 1021.6874)" class="st5 st6 st10">输</text>
	<text transform="matrix(1 0 0 1 1189.5245 1048.0874)" class="st5 st6 st10">入</text>
	<text transform="matrix(1 0 0 1 1190.1245 1075.922)" class="st5 st6 st10">二</text>
	<text transform="matrix(1 0 0 1 1189.5245 1100.8875)" class="st5 st6 st10">路</text>
</g>
<text transform="matrix(1 0 0 1 297.2734 372.5)" class="st5 st6 st12">400V</text>
<text transform="matrix(1 0 0 1 286.9734 401.3)" class="st5 st6 st12">I段母线</text>
<text transform="matrix(1 0 0 1 297.2734 831)" class="st5 st6 st12">400V</text>
<text transform="matrix(1 0 0 1 283.4734 859.8)" class="st5 st6 st12">II段母线</text>
<g>
	<line class="st13" x1="804.3" y1="61.6" x2="1361.1" y2="61.6"/>
	<circle class="st14" cx="508.9" cy="83.4" r="7"/>
	<circle class="st15" cx="541" cy="107" r="7"/>
	<circle class="st14" cx="620.9" cy="83.4" r="7"/>
	<circle class="st15" cx="653.1" cy="107" r="7"/>
	<circle class="st14" cx="732.9" cy="83.4" r="7"/>
	<circle class="st15" cx="765.1" cy="107" r="7"/>
	<circle class="st14" cx="848.4" cy="83.4" r="7"/>
	<circle class="st15" cx="880.6" cy="107" r="7"/>
	<circle class="st14" cx="940.9" cy="83.4" r="7"/>
	<circle class="st15" cx="973.1" cy="107" r="7"/>
	<circle class="st14" cx="1031.9" cy="83.4" r="7"/>
	<circle class="st15" cx="1064.1" cy="107" r="7"/>
	<circle class="st14" cx="1125.9" cy="83.4" r="7"/>
	<circle class="st15" cx="1158.1" cy="107" r="7"/>
	<circle class="st14" cx="1215.9" cy="83.4" r="7"/>
	<circle class="st15" cx="1248.1" cy="107" r="7"/>
	<circle class="st14" cx="1309.9" cy="83.4" r="7"/>
	<circle class="st15" cx="1342.1" cy="107" r="7"/>
	<circle class="st14" cx="1404.4" cy="83.4" r="7"/>
	<circle class="st15" cx="1436.6" cy="107" r="7"/>
	<circle class="st14" cx="1491.9" cy="83.4" r="7"/>
	<circle class="st14" cx="1589" cy="83.4" r="7"/>
	<circle class="st14" cx="1713" cy="83.4" r="7"/>
	<circle class="st14" cx="1839" cy="83.4" r="7"/>
	<circle class="st14" cx="1961" cy="83.4" r="7"/>
	<circle class="st14" cx="1589" cy="1139" r="7"/>
	<circle class="st14" cx="1712" cy="1139" r="7"/>
	<circle class="st14" cx="1837" cy="1139" r="7"/>
	<circle class="st14" cx="1961" cy="1139" r="7"/>
	<circle class="st15" cx="1524.1" cy="107" r="7"/>
	<circle class="st14" cx="1503.1" cy="1139" r="7"/>
	<circle class="st15" cx="1470.9" cy="1115.4" r="7"/>
	<circle class="st14" cx="1385.1" cy="1139" r="7"/>
	<circle class="st15" cx="1352.9" cy="1115.4" r="7"/>
	<circle class="st14" cx="1258.6" cy="1139" r="7"/>
	<circle class="st15" cx="1226.4" cy="1115.4" r="7"/>
	<circle class="st14" cx="1135.1" cy="1139" r="7"/>
	<circle class="st15" cx="1102.9" cy="1115.4" r="7"/>
	<circle class="st14" cx="1019.1" cy="1139" r="7"/>
	<circle class="st15" cx="986.9" cy="1115.4" r="7"/>
	<circle class="st14" cx="890.1" cy="1139" r="7"/>
	<circle class="st15" cx="857.9" cy="1115.4" r="7"/>
	<circle class="st14" cx="768.5" cy="1139" r="7"/>
	<circle class="st15" cx="736.4" cy="1115.4" r="7"/>
	<circle class="st14" cx="658.9" cy="1139" r="7"/>
	<circle class="st15" cx="626.7" cy="1115.4" r="7"/>
	<circle class="st14" cx="538.5" cy="1139" r="7"/>
	<circle class="st15" cx="506.3" cy="1115.4" r="7"/>
</g>
</svg>
