<?xml version="1.0" encoding="utf-8"?>
<!-- Generator: Adobe Illustrator 21.0.0, SVG Export Plug-In . SVG Version: 6.00 Build 0)  -->
<svg version="1.1" id="图层_1" xmlns="http://www.w3.org/2000/svg" xmlns:xlink="http://www.w3.org/1999/xlink" x="0px" y="0px"
	 viewBox="0 0 2338 1153" style="enable-background:new 0 0 2338 1153;" xml:space="preserve">
<style type="text/css">
	.st0{display:none;}
	.st1{display:inline;fill:#141A26;}
	.st2{fill:#FFFFFF;}
	.st3{font-family:'MicrosoftYaHei';}
	.st4{font-size:30px;}
	.st5{font-family:'AdobeSongStd-Light-GBpc-EUC-H';}
	.st6{font-size:22px;}
	.st7{font-size:20px;}
	.st8{fill:#104706;}
</style>
<g id="图层_4" class="st0">
	<rect class="st1" width="2338" height="1153"/>
</g>
<text transform="matrix(1 0 0 1 120 67.3342)" class="st2 st3 st4">总剩余电流</text>
<text transform="matrix(1 0 0 1 301 70.3341)" class="st2 st5 st6"> </text>
<text transform="matrix(1 0 0 1 95.4277 170.9341)" class="st2 st3 st6">1号站用变剩余电流</text>
<text transform="matrix(1 0 0 1 95.4277 431.9341)" class="st2 st3 st6">0号站用变剩余电流</text>
<text transform="matrix(1 0 0 1 95.4277 785.9341)" class="st2 st3 st6">2号站用变剩余电流</text>
<g>
	<text transform="matrix(1 0 0 1 1605.4473 231.9341)" class="st2 st3 st7">2号主变冷</text>
	<text transform="matrix(1 0 0 1 1605.4475 261.3297)" class="st2 st3 st7">却器电源1</text>
	<text transform="matrix(1 0 0 1 1605.4475 290.7253)" class="st2 st3 st7">（起点）</text>
	<text transform="matrix(1 0 0 1 1605.4473 515.9341)" class="st2 st3 st7">2号主变冷</text>
	<text transform="matrix(1 0 0 1 1605.4475 545.3301)" class="st2 st3 st7">却器电源1</text>
	<text transform="matrix(1 0 0 1 1605.4475 574.7253)" class="st2 st3 st7">（终点）</text>
	<text transform="matrix(1 0 0 1 1603.4473 380.9253)" class="st2 st3 st7">长电缆剩余</text>
	<text transform="matrix(1 0 0 1 1603.4473 414.3256)" class="st2 st3 st7">电流合成</text>
</g>
<g>
	<text transform="matrix(1 0 0 1 1727.728 232.9341)" class="st2 st3 st7">3号主变冷</text>
	<text transform="matrix(1 0 0 1 1727.7278 262.3297)" class="st2 st3 st7">却器电源1</text>
	<text transform="matrix(1 0 0 1 1727.7283 291.7253)" class="st2 st3 st7">（起点）</text>
	<text transform="matrix(1 0 0 1 1727.7278 514.9341)" class="st2 st3 st7">3号主变冷</text>
	<text transform="matrix(1 0 0 1 1727.7275 544.3301)" class="st2 st3 st7">却器电源1</text>
	<text transform="matrix(1 0 0 1 1727.7278 573.7253)" class="st2 st3 st7">（终点）</text>
	<text transform="matrix(1 0 0 1 1730.7279 380.9253)" class="st2 st3 st7">长电缆剩余</text>
	<text transform="matrix(1 0 0 1 1730.7279 413.3256)" class="st2 st3 st7">电流合成</text>
</g>
<g>
	<text transform="matrix(1 0 0 1 1604.4475 707.9341)" class="st2 st3 st7">2号主变冷</text>
	<text transform="matrix(1 0 0 1 1604.4473 737.3301)" class="st2 st3 st7">却器电源2</text>
	<text transform="matrix(1 0 0 1 1604.4468 766.7253)" class="st2 st3 st7">（终点）</text>
	<text transform="matrix(1 0 0 1 1605.448 1000.9341)" class="st2 st3 st7">2号主变冷</text>
	<text transform="matrix(1 0 0 1 1605.4478 1030.3301)" class="st2 st3 st7">却器电源2</text>
	<text transform="matrix(1 0 0 1 1605.4473 1059.7253)" class="st2 st3 st7">（起点）</text>
	<text transform="matrix(1 0 0 1 1599.1002 870.7993)" class="st2 st3 st7">长电缆剩余</text>
	<text transform="matrix(1 0 0 1 1599.1002 904.1996)" class="st2 st3 st7">电流合成</text>
</g>
<g>
	<text transform="matrix(1 0 0 1 1727.7273 707.9341)" class="st2 st3 st7">3号主变冷</text>
	<text transform="matrix(1 0 0 1 1727.7271 737.3301)" class="st2 st3 st7">却器电源2</text>
	<text transform="matrix(1 0 0 1 1727.7275 766.7253)" class="st2 st3 st7">（终点）</text>
	<text transform="matrix(1 0 0 1 1727.7268 1000.9341)" class="st2 st3 st7">3号主变冷</text>
	<text transform="matrix(1 0 0 1 1727.7266 1030.3301)" class="st2 st3 st7">却器电源2</text>
	<text transform="matrix(1 0 0 1 1727.7271 1059.7253)" class="st2 st3 st7">（起点）</text>
	<text transform="matrix(1 0 0 1 1724.7283 869.7993)" class="st2 st3 st7">长电缆剩余</text>
	<text transform="matrix(1 0 0 1 1724.7283 902.1996)" class="st2 st3 st7">电流合成</text>
</g>
<g>
	<text transform="matrix(1 0 0 1 463.9731 212.1086)" class="st2 st3 st6">35</text>
	<text transform="matrix(1 0 0 1 460.4731 238.5085)" class="st2 st3 st6">k V</text>
	<text transform="matrix(1 0 0 1 465.8745 266.8691)" class="st2 st3 st6">断</text>
	<text transform="matrix(1 0 0 1 465.8745 293.2692)" class="st2 st3 st6">路</text>
	<text transform="matrix(1 0 0 1 465.8746 320.0653)" class="st2 st3 st6">器</text>
	<text transform="matrix(1 0 0 1 465.8746 346.4653)" class="st2 st3 st6">电</text>
	<text transform="matrix(1 0 0 1 465.8746 372.8654)" class="st2 st3 st6">源</text>
	<text transform="matrix(1 0 0 1 470.3746 400.7)" class="st2 st3 st6">1</text>
</g>
<g>
	<text transform="matrix(1 0 0 1 573.8873 212.1091)" class="st2 st3 st6">500</text>
	<text transform="matrix(1 0 0 1 574.7874 238.5092)" class="st2 st3 st6">k V</text>
	<text transform="matrix(1 0 0 1 582.2391 266.8699)" class="st2 st3 st6">断</text>
	<text transform="matrix(1 0 0 1 582.2391 293.2699)" class="st2 st3 st6">路</text>
	<text transform="matrix(1 0 0 1 582.2394 320.0657)" class="st2 st3 st6">器</text>
	<text transform="matrix(1 0 0 1 582.2394 346.4657)" class="st2 st3 st6">电</text>
	<text transform="matrix(1 0 0 1 582.2394 372.8656)" class="st2 st3 st6">源</text>
	<text transform="matrix(1 0 0 1 586.7394 400.7002)" class="st2 st3 st6">1</text>
</g>
<g>
	<text transform="matrix(1 0 0 1 701.0785 163.7048)" class="st2 st3 st6">1</text>
	<text transform="matrix(1 0 0 1 696.5785 188.6702)" class="st2 st3 st6">号</text>
	<text transform="matrix(1 0 0 1 698.0292 218.6703)" class="st2 st3 st6">主</text>
	<text transform="matrix(1 0 0 1 698.0292 245.0702)" class="st2 st3 st6">变</text>
	<text transform="matrix(1 0 0 1 698 270.4661)" class="st2 st3 st6">冷</text>
	<text transform="matrix(1 0 0 1 698 296.8661)" class="st2 st3 st6">却</text>
	<text transform="matrix(1 0 0 1 697.9999 321.4659)" class="st2 st3 st6">器</text>
	<text transform="matrix(1 0 0 1 697.9999 347.866)" class="st2 st3 st6">电</text>
	<text transform="matrix(1 0 0 1 696.4999 372.8314)" class="st2 st3 st6">源</text>
	<text transform="matrix(1 0 0 1 700.9999 400.666)" class="st2 st3 st6">1</text>
</g>
<g>
	<text transform="matrix(1 0 0 1 1187.021 133.27)" class="st2 st3 st6">通</text>
	<text transform="matrix(1 0 0 1 1187.021 159.6701)" class="st2 st3 st6">信</text>
	<text transform="matrix(1 0 0 1 1187.021 186.0701)" class="st2 st3 st6">楼</text>
	<text transform="matrix(1 0 0 1 1187.0212 212.47)" class="st2 st3 st6">交</text>
	<text transform="matrix(1 0 0 1 1187.0212 238.87)" class="st2 st3 st6">流</text>
	<text transform="matrix(1 0 0 1 1187.0212 265.27)" class="st2 st3 st6">屏</text>
	<text transform="matrix(1 0 0 1 1179.7212 293.1046)" class="st2 st3 st6">(二)</text>
	<text transform="matrix(1 0 0 1 1187.021 321.27)" class="st2 st3 st6">输</text>
	<text transform="matrix(1 0 0 1 1187.021 347.6702)" class="st2 st3 st6">入</text>
	<text transform="matrix(1 0 0 1 1187.021 374.0701)" class="st2 st3 st6">一</text>
	<text transform="matrix(1 0 0 1 1187.021 400.47)" class="st2 st3 st6">路</text>
</g>
<g>
	<text transform="matrix(1 0 0 1 1276.8599 133.5745)" class="st2 st3 st6">通</text>
	<text transform="matrix(1 0 0 1 1276.8599 159.9744)" class="st2 st3 st6">信</text>
	<text transform="matrix(1 0 0 1 1276.8599 186.3744)" class="st2 st3 st6">楼</text>
	<text transform="matrix(1 0 0 1 1276.8596 215.3904)" class="st2 st3 st6">整</text>
	<text transform="matrix(1 0 0 1 1276.8596 241.7904)" class="st2 st3 st6">流</text>
	<text transform="matrix(1 0 0 1 1276.8596 268.1904)" class="st2 st3 st6">屏</text>
	<text transform="matrix(1 0 0 1 1269.5597 296.025)" class="st2 st3 st6">(三)</text>
	<text transform="matrix(1 0 0 1 1276.8599 321.27)" class="st2 st3 st6">输</text>
	<text transform="matrix(1 0 0 1 1276.8599 347.6702)" class="st2 st3 st6">入</text>
	<text transform="matrix(1 0 0 1 1276.8599 374.0701)" class="st2 st3 st6">一</text>
	<text transform="matrix(1 0 0 1 1276.8599 400.47)" class="st2 st3 st6">路</text>
</g>
<g>
	<text transform="matrix(1 0 0 1 987.2155 269.7046)" class="st2 st3 st6">500</text>
	<text transform="matrix(1 0 0 1 991.1155 296.1046)" class="st2 st3 st6">k V</text>
	<text transform="matrix(1 0 0 1 988.8053 325.8994)" class="st2 st3 st6">GIS</text>
	<text transform="matrix(1 0 0 1 995.5673 346.4657)" class="st2 st3 st6">电</text>
	<text transform="matrix(1 0 0 1 995.5673 372.8657)" class="st2 st3 st6">源</text>
	<text transform="matrix(1 0 0 1 1000.0673 400.7003)" class="st2 st3 st6">1</text>
</g>
<g>
	<text transform="matrix(1 0 0 1 905.3492 299.8701)" class="st2 st3 st6">1</text>
	<text transform="matrix(1 0 0 1 900.8492 324.8355)" class="st2 st3 st6">号</text>
	<text transform="matrix(1 0 0 1 891.9998 352.2701)" class="st2 st3 st6">UPS</text>
	<text transform="matrix(1 0 0 1 902.2704 372.8652)" class="st2 st3 st6">电</text>
	<text transform="matrix(1 0 0 1 902.2704 399.2653)" class="st2 st3 st6">源</text>
</g>
<g>
	<text transform="matrix(1 0 0 1 1093.4407 129.4497)" class="st2 st3 st6">通</text>
	<text transform="matrix(1 0 0 1 1093.4407 155.8497)" class="st2 st3 st6">信</text>
	<text transform="matrix(1 0 0 1 1093.4407 182.2498)" class="st2 st3 st6">楼</text>
	<text transform="matrix(1 0 0 1 1093.4403 212.6456)" class="st2 st3 st6">整</text>
	<text transform="matrix(1 0 0 1 1093.4403 239.0457)" class="st2 st3 st6">流</text>
	<text transform="matrix(1 0 0 1 1093.4403 265.4457)" class="st2 st3 st6">屏</text>
	<text transform="matrix(1 0 0 1 1086.1403 293.2803)" class="st2 st3 st6">(一)</text>
	<text transform="matrix(1 0 0 1 1093.4404 320.0653)" class="st2 st3 st6">输</text>
	<text transform="matrix(1 0 0 1 1093.4404 346.4653)" class="st2 st3 st6">入</text>
	<text transform="matrix(1 0 0 1 1093.4404 372.8654)" class="st2 st3 st6">一</text>
	<text transform="matrix(1 0 0 1 1093.4404 399.2654)" class="st2 st3 st6">路</text>
</g>
<g>
	<text transform="matrix(1 0 0 1 1457.0017 348.2504)" class="st2 st3 st6">备</text>
	<text transform="matrix(1 0 0 1 1457.0017 374.6503)" class="st2 st3 st6">用</text>
	<text transform="matrix(1 0 0 1 1461.5022 399.7861)" class="st2 st3 st6">1</text>
</g>
<g>
	<text transform="matrix(1 0 0 1 1360.5505 206.9608)" class="st2 st3 st6">220</text>
	<text transform="matrix(1 0 0 1 1363.4507 233.3608)" class="st2 st3 st6">k V</text>
	<text transform="matrix(1 0 0 1 1368.9026 261.7213)" class="st2 st3 st6">断</text>
	<text transform="matrix(1 0 0 1 1368.9026 288.1213)" class="st2 st3 st6">路</text>
	<text transform="matrix(1 0 0 1 1368.9026 314.5213)" class="st2 st3 st6">器</text>
	<text transform="matrix(1 0 0 1 1368.9026 345.5515)" class="st2 st3 st6">电</text>
	<text transform="matrix(1 0 0 1 1368.9026 371.9515)" class="st2 st3 st6">源</text>
	<text transform="matrix(1 0 0 1 1373.4026 399.7861)" class="st2 st3 st6">1</text>
</g>
<g>
	<text transform="matrix(1 0 0 1 808.5779 239.8794)" class="st2 st3 st6">2</text>
	<text transform="matrix(1 0 0 1 804.0779 264.8448)" class="st2 st3 st6">号</text>
	<text transform="matrix(1 0 0 1 795.2285 295.2794)" class="st2 st3 st6">UPS</text>
	<text transform="matrix(1 0 0 1 805.4993 319.6399)" class="st2 st3 st6">旁</text>
	<text transform="matrix(1 0 0 1 805.4993 346.0399)" class="st2 st3 st6">路</text>
	<text transform="matrix(1 0 0 1 805.5 372.8654)" class="st2 st3 st6">电</text>
	<text transform="matrix(1 0 0 1 805.5 399.2654)" class="st2 st3 st6">源</text>
</g>
<text transform="matrix(1 0 0 1 422.1345 586.2)" class="st2 st3 st6">共零合成</text>
<text transform="matrix(1 0 0 1 539.0002 586.2)" class="st2 st3 st6">共零合成</text>
<text transform="matrix(1 0 0 1 654.0002 586.2)" class="st2 st3 st6">共零合成</text>
<g>
	<text transform="matrix(1 0 0 1 469.5216 836.9998)" class="st2 st3 st6">35</text>
	<text transform="matrix(1 0 0 1 469.0216 863.3998)" class="st2 st3 st6">k V </text>
	<text transform="matrix(1 0 0 1 471.4229 885.239)" class="st2 st3 st6">断</text>
	<text transform="matrix(1 0 0 1 471.4229 911.6389)" class="st2 st3 st6">路</text>
	<text transform="matrix(1 0 0 1 471.4229 938.0391)" class="st2 st3 st6">器</text>
	<text transform="matrix(1 0 0 1 471.4231 964.7405)" class="st2 st3 st6">电</text>
	<text transform="matrix(1 0 0 1 471.4231 991.1406)" class="st2 st3 st6">源</text>
	<text transform="matrix(1 0 0 1 475.9231 1018.9751)" class="st2 st3 st6">2</text>
</g>
<g>
	<text transform="matrix(1 0 0 1 579.876 837)" class="st2 st3 st6">500</text>
	<text transform="matrix(1 0 0 1 582.776 863.4)" class="st2 st3 st6">k V</text>
	<text transform="matrix(1 0 0 1 588.228 887.2395)" class="st2 st3 st6">断</text>
	<text transform="matrix(1 0 0 1 588.228 913.6395)" class="st2 st3 st6">路</text>
	<text transform="matrix(1 0 0 1 588.228 940.0396)" class="st2 st3 st6">器</text>
	<text transform="matrix(1 0 0 1 588.228 965.0566)" class="st2 st3 st6">电</text>
	<text transform="matrix(1 0 0 1 588.228 991.4567)" class="st2 st3 st6">源</text>
	<text transform="matrix(1 0 0 1 592.728 1019.2913)" class="st2 st3 st6">2</text>
</g>
<g>
	<text transform="matrix(1 0 0 1 708.9745 836.0005)" class="st2 st3 st6">1</text>
	<text transform="matrix(1 0 0 1 704.4745 860.9659)" class="st2 st3 st6">号</text>
	<text transform="matrix(1 0 0 1 704.9252 887.9658)" class="st2 st3 st6">主</text>
	<text transform="matrix(1 0 0 1 704.9252 912.366)" class="st2 st3 st6">变</text>
	<text transform="matrix(1 0 0 1 704.8957 936.5654)" class="st2 st3 st6">冷</text>
	<text transform="matrix(1 0 0 1 704.8957 962.9656)" class="st2 st3 st6">却</text>
	<text transform="matrix(1 0 0 1 704.8957 989.3655)" class="st2 st3 st6">器</text>
	<text transform="matrix(1 0 0 1 704.8959 1018.5656)" class="st2 st3 st6">电</text>
	<text transform="matrix(1 0 0 1 704.8959 1044.9656)" class="st2 st3 st6">源</text>
	<text transform="matrix(1 0 0 1 709.3959 1070.8002)" class="st2 st3 st6">2</text>
</g>
<g>
	<text transform="matrix(1 0 0 1 820.6633 837)" class="st2 st3 st6">1</text>
	<text transform="matrix(1 0 0 1 816.1633 861.9656)" class="st2 st3 st6">号</text>
	<text transform="matrix(1 0 0 1 805.8229 891.9998)" class="st2 st3 st6">UPS</text>
	<text transform="matrix(1 0 0 1 816.1229 916.9652)" class="st2 st3 st6">旁</text>
	<text transform="matrix(1 0 0 1 816.1229 943.3652)" class="st2 st3 st6">路</text>
	<text transform="matrix(1 0 0 1 816.1139 964.5657)" class="st2 st3 st6">电</text>
	<text transform="matrix(1 0 0 1 816.1139 990.9656)" class="st2 st3 st6">源</text>
</g>
<g>
	<text transform="matrix(1 0 0 1 949.8448 837.0005)" class="st2 st3 st6">2</text>
	<text transform="matrix(1 0 0 1 945.3448 861.9658)" class="st2 st3 st6">号</text>
	<text transform="matrix(1 0 0 1 935.0044 885.5002)" class="st2 st3 st6">UPS</text>
	<text transform="matrix(1 0 0 1 945.2953 909.8855)" class="st2 st3 st6">电</text>
	<text transform="matrix(1 0 0 1 945.2953 936.2855)" class="st2 st3 st6">源</text>
</g>
<g>
	<text transform="matrix(1 0 0 1 1055.7078 837.0005)" class="st2 st3 st6">500</text>
	<text transform="matrix(1 0 0 1 1058.6078 863.4005)" class="st2 st3 st6">k V</text>
	<text transform="matrix(1 0 0 1 1057.2974 883.0002)" class="st2 st3 st6">GIS</text>
	<text transform="matrix(1 0 0 1 1064.0598 905.0657)" class="st2 st3 st6">电</text>
	<text transform="matrix(1 0 0 1 1064.0598 931.4657)" class="st2 st3 st6">源</text>
	<text transform="matrix(1 0 0 1 1068.5598 959.3003)" class="st2 st3 st6">2</text>
</g>
<g>
	<text transform="matrix(1 0 0 1 1305.0737 837)" class="st2 st3 st6">220</text>
	<text transform="matrix(1 0 0 1 1307.9738 863.4)" class="st2 st3 st6">k V</text>
	<text transform="matrix(1 0 0 1 1313.4261 888.5662)" class="st2 st3 st6">断</text>
	<text transform="matrix(1 0 0 1 1313.4261 914.9661)" class="st2 st3 st6">路</text>
	<text transform="matrix(1 0 0 1 1313.4265 941.4655)" class="st2 st3 st6">器</text>
	<text transform="matrix(1 0 0 1 1313.4258 967.5659)" class="st2 st3 st6">电</text>
	<text transform="matrix(1 0 0 1 1313.4258 993.9658)" class="st2 st3 st6">源</text>
	<text transform="matrix(1 0 0 1 1317.9258 1021.8005)" class="st2 st3 st6">2</text>
</g>
<g>
	<text transform="matrix(1 0 0 1 1433.9004 834.3279)" class="st2 st3 st6">备</text>
	<text transform="matrix(1 0 0 1 1433.9004 860.7279)" class="st2 st3 st6">用</text>
	<text transform="matrix(1 0 0 1 1438.4004 888.6714)" class="st2 st3 st6">2</text>
</g>
<g>
	<text transform="matrix(1 0 0 1 1188.5718 836.1125)" class="st2 st3 st6">通</text>
	<text transform="matrix(1 0 0 1 1188.5718 862.5127)" class="st2 st3 st6">信</text>
	<text transform="matrix(1 0 0 1 1188.5718 888.9126)" class="st2 st3 st6">楼</text>
	<text transform="matrix(1 0 0 1 1189.5719 915.6128)" class="st2 st3 st6">整</text>
	<text transform="matrix(1 0 0 1 1189.5719 942.0128)" class="st2 st3 st6">流</text>
	<text transform="matrix(1 0 0 1 1189.5719 968.4128)" class="st2 st3 st6">屏</text>
	<text transform="matrix(1 0 0 1 1182.2245 996.722)" class="st2 st3 st6">(一)</text>
	<text transform="matrix(1 0 0 1 1189.5245 1021.6874)" class="st2 st3 st6">输</text>
	<text transform="matrix(1 0 0 1 1189.5245 1048.0874)" class="st2 st3 st6">入</text>
	<text transform="matrix(1 0 0 1 1190.1245 1075.922)" class="st2 st3 st6">二</text>
	<text transform="matrix(1 0 0 1 1189.5245 1100.8875)" class="st2 st3 st6">路</text>
</g>
<g>
	<rect x="71" y="84" class="st8" width="253" height="51"/>
	<rect x="153.5" y="186.6" class="st8" width="88" height="51"/>
	<rect x="153.5" y="453.5" class="st8" width="88" height="51"/>
	<rect x="153.5" y="806.5" class="st8" width="88" height="51"/>
	<rect x="422.1" y="604.5" class="st8" width="88" height="51"/>
	<rect x="538" y="604.5" class="st8" width="88" height="51"/>
	<rect x="652" y="604.5" class="st8" width="88" height="51"/>
	<rect x="806.3" y="422.3" class="st8" width="80" height="51"/>
	<rect x="898.5" y="422.3" class="st8" width="80" height="51"/>
	<rect x="990.8" y="422.3" class="st8" width="80" height="51"/>
	<rect x="1083" y="422.3" class="st8" width="80" height="51"/>
	<rect x="1175.3" y="422.3" class="st8" width="80" height="51"/>
	<rect x="1267.5" y="422.3" class="st8" width="80" height="51"/>
	<rect x="1359.8" y="422.3" class="st8" width="80" height="51"/>
	<rect x="1452" y="422.3" class="st8" width="80" height="51"/>
	<rect x="1431" y="746.3" class="st8" width="80" height="51"/>
	<rect x="1313" y="746.3" class="st8" width="80" height="51"/>
	<rect x="1181.5" y="746.3" class="st8" width="80" height="51"/>
	<rect x="1060" y="746.3" class="st8" width="80" height="51"/>
	<rect x="944" y="746.3" class="st8" width="80" height="51"/>
	<rect x="813.5" y="746.3" class="st8" width="80" height="51"/>
	<rect x="1608.1" y="923" class="st8" width="80" height="51"/>
	<rect x="1734.6" y="923" class="st8" width="80" height="51"/>
	<rect x="1608.1" y="785.9" class="st8" width="80" height="51"/>
	<rect x="1734.6" y="785.9" class="st8" width="80" height="51"/>
	<rect x="1608.1" y="630.9" class="st8" width="80" height="51"/>
	<rect x="1734.6" y="630.9" class="st8" width="80" height="51"/>
	<rect x="1608.1" y="435.5" class="st8" width="80" height="51"/>
	<rect x="1734.6" y="435.5" class="st8" width="80" height="51"/>
	<rect x="1608.1" y="305.5" class="st8" width="80" height="51"/>
	<rect x="1734.6" y="305.5" class="st8" width="80" height="51"/>
	<rect x="1608.1" y="158.2" class="st8" width="80" height="51"/>
	<rect x="1734.6" y="158.2" class="st8" width="80" height="51"/>
</g>
</svg>
