<?xml version="1.0" encoding="utf-8"?>
<!-- Generator: Adobe Illustrator 21.0.0, SVG Export Plug-In . SVG Version: 6.00 Build 0)  -->
<svg version="1.1" id="图层_1" xmlns="http://www.w3.org/2000/svg" xmlns:xlink="http://www.w3.org/1999/xlink" x="0px" y="0px"
	 viewBox="0 0 2247 1080" style="enable-background:new 0 0 2247 1080;" xml:space="preserve">
<style type="text/css">
	.st0{display:none;}
	.st1{display:inline;fill:#141A26;}
	.st2{display:inline;fill:none;stroke:#49E2FC;stroke-width:2;stroke-miterlimit:10;}
	.st3{fill:#FFFFFF;}
	.st4{font-family:'MicrosoftYaHei';}
	.st5{font-size:24px;}
</style>
<g id="图层_4" class="st0">
	<rect class="st1" width="2247" height="1080"/>
</g>
<g id="框" class="st0">
	<rect x="156" y="199" class="st2" width="65" height="46"/>
	<rect x="159" y="479" class="st2" width="65" height="46"/>
	<rect x="163" y="764" class="st2" width="65" height="46"/>
	<rect x="444.3" y="545" class="st2" width="65" height="28"/>
	<rect x="550.3" y="545" class="st2" width="65" height="28"/>
	<rect x="659.8" y="545" class="st2" width="65" height="28"/>
	<rect x="841" y="399.5" class="st2" width="55" height="28"/>
	<rect x="932.8" y="400" class="st2" width="56" height="27.5"/>
	<rect x="1026.3" y="400" class="st2" width="55" height="27.5"/>
	<rect x="1119.8" y="400" class="st2" width="55" height="27.5"/>
	<rect x="1210.3" y="400" class="st2" width="55" height="27.5"/>
	<rect x="1300.2" y="400" class="st2" width="57" height="27.5"/>
	<rect x="1396.8" y="400" class="st2" width="55" height="27.5"/>
	<polygon class="st2" points="1486.8,400 1542.8,400 1542.8,428 1486.8,427.5 	"/>
	<rect x="1613.6" y="162" class="st2" width="61" height="28"/>
	<rect x="1720.6" y="162" class="st2" width="61" height="28"/>
	<rect x="1826.8" y="162" class="st2" width="59" height="28"/>
	<rect x="1919.5" y="162" class="st2" width="64" height="28"/>
	<rect x="1613.6" y="275" class="st2" width="61" height="28"/>
	<rect x="1720.6" y="275" class="st2" width="61" height="28"/>
	<rect x="1825.3" y="275" class="st2" width="62" height="28"/>
	<rect x="1915" y="275" class="st2" width="73" height="28"/>
	<rect x="1613.6" y="396" class="st2" width="61" height="28"/>
	<rect x="1720.6" y="396" class="st2" width="61" height="28"/>
	<rect x="1825.3" y="396" class="st2" width="62" height="28"/>
	<rect x="1915" y="396" class="st2" width="73" height="28"/>
	<rect x="1611.3" y="659" class="st2" width="61" height="28"/>
	<rect x="1711.6" y="659" class="st2" width="71" height="28"/>
	<rect x="1817.3" y="659" class="st2" width="69" height="28"/>
	<rect x="1923" y="659" class="st2" width="66" height="28"/>
	<rect x="1611.3" y="760" class="st2" width="61" height="28"/>
	<rect x="1711.6" y="760" class="st2" width="71" height="28"/>
	<rect x="1815.8" y="760" class="st2" width="72" height="28"/>
	<rect x="1923.5" y="760" class="st2" width="65" height="28"/>
	<rect x="1611.3" y="863" class="st2" width="61" height="28"/>
	<rect x="1711.6" y="863" class="st2" width="71" height="28"/>
	<rect x="1815.8" y="863" class="st2" width="72" height="28"/>
	<rect x="1923.5" y="863" class="st2" width="65" height="28"/>
	<rect x="1461.2" y="660" class="st2" width="47" height="28"/>
	<rect x="1342.5" y="660" class="st2" width="47" height="28"/>
	<rect x="1216.2" y="660" class="st2" width="47" height="28"/>
	<rect x="1611.3" y="659" class="st2" width="61" height="28"/>
	<rect x="1711.6" y="659" class="st2" width="71" height="28"/>
	<rect x="1817.3" y="659" class="st2" width="69" height="28"/>
	<rect x="1923" y="659" class="st2" width="66" height="28"/>
	<rect x="1611.3" y="760" class="st2" width="61" height="28"/>
	<rect x="1711.6" y="760" class="st2" width="71" height="28"/>
	<rect x="1815.8" y="760" class="st2" width="72" height="28"/>
	<rect x="1923.5" y="760" class="st2" width="65" height="28"/>
	<rect x="1611.3" y="863" class="st2" width="61" height="28"/>
	<rect x="1711.6" y="863" class="st2" width="71" height="28"/>
	<rect x="1815.8" y="863" class="st2" width="72" height="28"/>
	<rect x="1923.5" y="863" class="st2" width="65" height="28"/>
	<rect x="1461.2" y="660" class="st2" width="47" height="28"/>
	<rect x="1342.5" y="660" class="st2" width="47" height="28"/>
	<rect x="1216.2" y="660" class="st2" width="47" height="28"/>
	<rect x="1093.3" y="660" class="st2" width="47" height="28"/>
	<rect x="975.7" y="660" class="st2" width="47" height="28"/>
	<rect x="847.7" y="660" class="st2" width="47" height="28"/>
	<rect x="71" y="84" class="st2" width="253" height="51"/>
</g>
<text transform="matrix(1 0 0 1 1596.1049 330.9253)" class="st3 st4 st5">铠装接地</text>
<text transform="matrix(1 0 0 1 1596.1049 365.3253)" class="st3 st4 st5">电流合成</text>
<text transform="matrix(1 0 0 1 1706.0824 330.9253)" class="st3 st4 st5">铠装接地</text>
<text transform="matrix(1 0 0 1 1706.0824 365.3253)" class="st3 st4 st5">电流合成</text>
<text transform="matrix(1 0 0 1 1804.7653 767.9253)" class="st3 st4 st5">铠装接地</text>
<text transform="matrix(1 0 0 1 1804.7653 802.3254)" class="st3 st4 st5">电流合成</text>
<text transform="matrix(1 0 0 1 1922.0131 767.9253)" class="st3 st4 st5">铠装接地</text>
<text transform="matrix(1 0 0 1 1922.0131 802.3254)" class="st3 st4 st5">电流合成</text>
</svg>
