<?xml version="1.0" encoding="utf-8"?>
<!-- Generator: Adobe Illustrator 21.0.0, SVG Export Plug-In . SVG Version: 6.00 Build 0)  -->
<svg version="1.1" id="图层_1" xmlns="http://www.w3.org/2000/svg" xmlns:xlink="http://www.w3.org/1999/xlink" x="0px" y="0px"
	 viewBox="0 0 2247 1080" style="enable-background:new 0 0 2247 1080;" xml:space="preserve">
<style type="text/css">
	.st0{display:none;}
	.st1{display:inline;fill:#141A26;}
	.st2{display:inline;fill:none;stroke:#49E2FC;stroke-width:2;stroke-miterlimit:10;}
	.st3{fill:#FFFFFF;}
	.st4{font-family:'AdobeSongStd-Light-GBpc-EUC-H';}
	.st5{font-size:22px;}
	.st6{font-family:'MicrosoftYaHei';}
	.st7{font-size:26px;}
	.st8{font-size:24px;}
</style>
<g id="图层_4" class="st0">
	<rect class="st1" width="2247" height="1080"/>
</g>
<g id="框" class="st0">
	<rect x="156" y="199" class="st2" width="65" height="46"/>
	<rect x="159" y="479" class="st2" width="65" height="46"/>
	<rect x="163" y="764" class="st2" width="65" height="46"/>
	<rect x="444.3" y="545" class="st2" width="65" height="28"/>
	<rect x="550.3" y="545" class="st2" width="65" height="28"/>
	<rect x="659.8" y="545" class="st2" width="65" height="28"/>
	<rect x="841" y="399.5" class="st2" width="55" height="28"/>
	<rect x="932.8" y="400" class="st2" width="56" height="27.5"/>
	<rect x="1026.3" y="400" class="st2" width="55" height="27.5"/>
	<rect x="1119.8" y="400" class="st2" width="55" height="27.5"/>
	<rect x="1210.3" y="400" class="st2" width="55" height="27.5"/>
	<rect x="1300.2" y="400" class="st2" width="57" height="27.5"/>
	<rect x="1396.8" y="400" class="st2" width="55" height="27.5"/>
	<polygon class="st2" points="1486.8,400 1542.8,400 1542.8,428 1486.8,427.5 	"/>
	<rect x="1613.6" y="162" class="st2" width="61" height="28"/>
	<rect x="1720.6" y="162" class="st2" width="61" height="28"/>
	<rect x="1826.8" y="162" class="st2" width="59" height="28"/>
	<rect x="1919.5" y="162" class="st2" width="64" height="28"/>
	<rect x="1613.6" y="275" class="st2" width="61" height="28"/>
	<rect x="1720.6" y="275" class="st2" width="61" height="28"/>
	<rect x="1825.3" y="275" class="st2" width="62" height="28"/>
	<rect x="1915" y="275" class="st2" width="73" height="28"/>
	<rect x="1613.6" y="396" class="st2" width="61" height="28"/>
	<rect x="1720.6" y="396" class="st2" width="61" height="28"/>
	<rect x="1825.3" y="396" class="st2" width="62" height="28"/>
	<rect x="1915" y="396" class="st2" width="73" height="28"/>
	<rect x="1611.3" y="659" class="st2" width="61" height="28"/>
	<rect x="1711.6" y="659" class="st2" width="71" height="28"/>
	<rect x="1817.3" y="659" class="st2" width="69" height="28"/>
	<rect x="1923" y="659" class="st2" width="66" height="28"/>
	<rect x="1611.3" y="760" class="st2" width="61" height="28"/>
	<rect x="1711.6" y="760" class="st2" width="71" height="28"/>
	<rect x="1815.8" y="760" class="st2" width="72" height="28"/>
	<rect x="1923.5" y="760" class="st2" width="65" height="28"/>
	<rect x="1611.3" y="863" class="st2" width="61" height="28"/>
	<rect x="1711.6" y="863" class="st2" width="71" height="28"/>
	<rect x="1815.8" y="863" class="st2" width="72" height="28"/>
	<rect x="1923.5" y="863" class="st2" width="65" height="28"/>
	<rect x="1461.2" y="660" class="st2" width="47" height="28"/>
	<rect x="1342.5" y="660" class="st2" width="47" height="28"/>
	<rect x="1216.2" y="660" class="st2" width="47" height="28"/>
	<rect x="1611.3" y="659" class="st2" width="61" height="28"/>
	<rect x="1711.6" y="659" class="st2" width="71" height="28"/>
	<rect x="1817.3" y="659" class="st2" width="69" height="28"/>
	<rect x="1923" y="659" class="st2" width="66" height="28"/>
	<rect x="1611.3" y="760" class="st2" width="61" height="28"/>
	<rect x="1711.6" y="760" class="st2" width="71" height="28"/>
	<rect x="1815.8" y="760" class="st2" width="72" height="28"/>
	<rect x="1923.5" y="760" class="st2" width="65" height="28"/>
	<rect x="1611.3" y="863" class="st2" width="61" height="28"/>
	<rect x="1711.6" y="863" class="st2" width="71" height="28"/>
	<rect x="1815.8" y="863" class="st2" width="72" height="28"/>
	<rect x="1923.5" y="863" class="st2" width="65" height="28"/>
	<rect x="1461.2" y="660" class="st2" width="47" height="28"/>
	<rect x="1342.5" y="660" class="st2" width="47" height="28"/>
	<rect x="1216.2" y="660" class="st2" width="47" height="28"/>
	<rect x="1093.3" y="660" class="st2" width="47" height="28"/>
	<rect x="975.7" y="660" class="st2" width="47" height="28"/>
	<rect x="847.7" y="660" class="st2" width="47" height="28"/>
	<rect x="71" y="84" class="st2" width="253" height="51"/>
</g>
<text transform="matrix(1 0 0 1 301 70.3341)" class="st3 st4 st5"> </text>
<g>
	<text transform="matrix(1 0 0 1 448.4366 338.9341)" class="st3 st6 st7">35kV</text>
	<text transform="matrix(1 0 0 1 448.4366 368.1292)" class="st3 st6 st7">断路</text>
	<text transform="matrix(1 0 0 1 431.7502 402.3253)" class="st3 st6 st7">器电源1</text>
</g>
<g>
	<text transform="matrix(1 0 0 1 537.2393 338.9341)" class="st3 st6 st7">500kV</text>
	<text transform="matrix(1 0 0 1 549.9393 368.1292)" class="st3 st6 st7">断路</text>
	<text transform="matrix(1 0 0 1 533.0953 397.83)" class="st3 st6 st7">器电源1</text>
</g>
<g>
	<text transform="matrix(1 0 0 1 635.3549 341.9341)" class="st3 st6 st7">1#主变</text>
	<text transform="matrix(1 0 0 1 651.2549 371.1292)" class="st3 st6 st7">冷却</text>
	<text transform="matrix(1 0 0 1 636.9966 401.3253)" class="st3 st6 st7">器电源1</text>
</g>
<g>
	<text transform="matrix(1 0 0 1 762 336.9204)" class="st3 st6 st7">通信楼</text>
	<text transform="matrix(1 0 0 1 740.3 368.1204)" class="st3 st6 st7">交流屏(二)</text>
	<text transform="matrix(1 0 0 1 749 402.3252)" class="st3 st6 st7">输入一路</text>
</g>
<g>
	<text transform="matrix(1 0 0 1 905.25 336.9204)" class="st3 st6 st7">通信楼</text>
	<text transform="matrix(1 0 0 1 883.55 368.1204)" class="st3 st6 st7">整流屏(三)</text>
	<text transform="matrix(1 0 0 1 883.25 401.3256)" class="st3 st6 st7">输入一路</text>
</g>
<g>
	<text transform="matrix(1 0 0 1 1008.1998 338.9341)" class="st3 st6 st7">500kV</text>
	<text transform="matrix(1 0 0 1 1025.8998 370.134)" class="st3 st6 st7">GIS</text>
	<text transform="matrix(1 0 0 1 1013.3163 408.33)" class="st3 st6 st7">电源1</text>
</g>
<text transform="matrix(1 0 0 1 1092.4668 348.9341)" class="st3 st6 st7">1#UPS</text>
<text transform="matrix(1 0 0 1 1107.5668 378.1292)" class="st3 st6 st7">电源</text>
<text transform="matrix(1 0 0 1 1198.6801 339.9204)" class="st3 st6 st7">通信楼</text>
<text transform="matrix(1 0 0 1 1176.9801 371.1204)" class="st3 st6 st7">整流屏(一)</text>
<text transform="matrix(1 0 0 1 1191.0568 411.3256)" class="st3 st6 st7">输入1路</text>
<text transform="matrix(1 0 0 1 1307.1733 340.9204)" class="st3 st6 st7">旧UPS</text>
<text transform="matrix(1 0 0 1 1311.6733 372.1204)" class="st3 st6 st7">电源1</text>
<text transform="matrix(1 0 0 1 1399.5374 345.9341)" class="st3 st6 st7">220kV</text>
<text transform="matrix(1 0 0 1 1399.2373 375.1292)" class="st3 st6 st7">断路器</text>
<text transform="matrix(1 0 0 1 1404.6532 412.33)" class="st3 st6 st7">电源1</text>
<text transform="matrix(1 0 0 1 1491.1139 343.9341)" class="st3 st6 st7">2#UPS</text>
<text transform="matrix(1 0 0 1 1506.2139 373.1292)" class="st3 st6 st7">旁路</text>
<text transform="matrix(1 0 0 1 1506.1959 403.33)" class="st3 st6 st7">电源</text>
<text transform="matrix(1 0 0 1 1593.1859 191.9341)" class="st3 st6 st8">500kV断</text>
<text transform="matrix(1 0 0 1 1589.5859 221.3297)" class="st3 st6 st8">路器电源1</text>
<text transform="matrix(1 0 0 1 1593.0859 250.7253)" class="st3 st6 st8">（起点）</text>
<text transform="matrix(1 0 0 1 1698.7631 191.9341)" class="st3 st6 st8">1#主变冷</text>
<text transform="matrix(1 0 0 1 1696.5631 221.3297)" class="st3 st6 st8">却器电源1</text>
<text transform="matrix(1 0 0 1 1700.0631 250.7253)" class="st3 st6 st8">（起点）</text>
<text transform="matrix(1 0 0 1 1803.9469 191.9341)" class="st3 st6 st8">2#主变冷</text>
<text transform="matrix(1 0 0 1 1801.7469 221.3297)" class="st3 st6 st8">却器电源1</text>
<text transform="matrix(1 0 0 1 1805.2469 250.7253)" class="st3 st6 st8">（起点）</text>
<text transform="matrix(1 0 0 1 1915.2833 192.9341)" class="st3 st6 st8">3#主变冷</text>
<text transform="matrix(1 0 0 1 1912.0272 222.3297)" class="st3 st6 st8">却器电源1</text>
<text transform="matrix(1 0 0 1 1917.3051 251.7253)" class="st3 st6 st8">（起点）</text>
<text transform="matrix(1 0 0 1 1596.8323 466.9341)" class="st3 st6 st8">500kV断</text>
<text transform="matrix(1 0 0 1 1591.3739 496.33)" class="st3 st6 st8">路器电源1</text>
<text transform="matrix(1 0 0 1 1596.6517 525.7253)" class="st3 st6 st8">（终点）</text>
<text transform="matrix(1 0 0 1 1922.7405 636.9341)" class="st3 st6 st8">500kV断</text>
<text transform="matrix(1 0 0 1 1917.2821 666.3301)" class="st3 st6 st8">路器电源2</text>
<text transform="matrix(1 0 0 1 1922.5599 695.7253)" class="st3 st6 st8">（终点）</text>
<text transform="matrix(1 0 0 1 1704.7631 466.9341)" class="st3 st6 st8">1#主变冷</text>
<text transform="matrix(1 0 0 1 1702.5631 496.33)" class="st3 st6 st8">却器电源1</text>
<text transform="matrix(1 0 0 1 1706.0631 525.7253)" class="st3 st6 st8">（终点）</text>
<text transform="matrix(1 0 0 1 1804.5583 636.9341)" class="st3 st6 st8">1#主变冷</text>
<text transform="matrix(1 0 0 1 1801.3022 666.3301)" class="st3 st6 st8">却器电源2</text>
<text transform="matrix(1 0 0 1 1806.5801 695.7253)" class="st3 st6 st8">（终点）</text>
<text transform="matrix(1 0 0 1 1809.9469 466.9341)" class="st3 st6 st8">2#主变冷</text>
<text transform="matrix(1 0 0 1 1807.7469 496.33)" class="st3 st6 st8">却器电源1</text>
<text transform="matrix(1 0 0 1 1811.2469 525.7253)" class="st3 st6 st8">（终点）</text>
<text transform="matrix(1 0 0 1 1699.8752 636.9341)" class="st3 st6 st8">2#主变冷</text>
<text transform="matrix(1 0 0 1 1696.6182 666.3301)" class="st3 st6 st8">却器电源2</text>
<text transform="matrix(1 0 0 1 1701.896 695.7253)" class="st3 st6 st8">（终点）</text>
<text transform="matrix(1 0 0 1 1915.7001 460.9341)" class="st3 st6 st8">3#主变冷</text>
<text transform="matrix(1 0 0 1 1912.444 490.33)" class="st3 st6 st8">却器电源1</text>
<text transform="matrix(1 0 0 1 1917.7216 519.7253)" class="st3 st6 st8">（终点）</text>
<text transform="matrix(1 0 0 1 1594.5583 636.9341)" class="st3 st6 st8">3#主变冷</text>
<text transform="matrix(1 0 0 1 1591.3022 666.3301)" class="st3 st6 st8">却器电源2</text>
<text transform="matrix(1 0 0 1 1596.5801 695.7253)" class="st3 st6 st8">（终点）</text>
<text transform="matrix(1 0 0 1 1920.7405 909.9341)" class="st3 st6 st8">500kV断</text>
<text transform="matrix(1 0 0 1 1915.2821 939.3301)" class="st3 st6 st8">路器电源2</text>
<text transform="matrix(1 0 0 1 1920.5599 968.7253)" class="st3 st6 st8">（起点）</text>
<text transform="matrix(1 0 0 1 641.25 534.9341)" class="st3 st6 st7">共零合成</text>
<text transform="matrix(1 0 0 1 526.75 534.9341)" class="st3 st6 st7">共零合成</text>
<text transform="matrix(1 0 0 1 402.75 534.9341)" class="st3 st6 st7">共零合成</text>
<text transform="matrix(1 0 0 1 1802.5583 909.9341)" class="st3 st6 st8">1#主变冷</text>
<text transform="matrix(1 0 0 1 1799.3022 939.3301)" class="st3 st6 st8">却器电源2</text>
<text transform="matrix(1 0 0 1 1804.5801 968.7253)" class="st3 st6 st8">（起点）</text>
<text transform="matrix(1 0 0 1 1697.8752 909.9341)" class="st3 st6 st8">2#主变冷</text>
<text transform="matrix(1 0 0 1 1694.6182 939.3301)" class="st3 st6 st8">却器电源2</text>
<text transform="matrix(1 0 0 1 1699.896 968.7253)" class="st3 st6 st8">（起点）</text>
<text transform="matrix(1 0 0 1 1591.5583 909.9341)" class="st3 st6 st8">3#主变冷</text>
<text transform="matrix(1 0 0 1 1588.3022 939.3301)" class="st3 st6 st8">却器电源2</text>
<text transform="matrix(1 0 0 1 1593.5801 968.7253)" class="st3 st6 st8">（起点）</text>
<text transform="matrix(1 0 0 1 487.3204 699.9341)" class="st3 st6 st7">35kV</text>
<text transform="matrix(1 0 0 1 479.4204 729.1292)" class="st3 st6 st7">断路器</text>
<text transform="matrix(1 0 0 1 486.7009 767.3254)" class="st3 st6 st7">电源2</text>
<text transform="matrix(1 0 0 1 596.0264 698.9341)" class="st3 st6 st7">500kV</text>
<text transform="matrix(1 0 0 1 595.7264 728.1292)" class="st3 st6 st7">断路器</text>
<text transform="matrix(1 0 0 1 601.6847 766.3254)" class="st3 st6 st7">电源2</text>
<text transform="matrix(1 0 0 1 707.8439 698.9341)" class="st3 st6 st7">1#主变</text>
<text transform="matrix(1 0 0 1 710.7439 728.1292)" class="st3 st6 st7">冷却器</text>
<text transform="matrix(1 0 0 1 718.5076 765.3254)" class="st3 st6 st7">电源2</text>
<text transform="matrix(1 0 0 1 855.1119 699.9346)" class="st3 st6 st7">1号</text>
<text transform="matrix(1 0 0 1 824.6119 731.1345)" class="st3 st6 st7">UPS旁路</text>
<text transform="matrix(1 0 0 1 845.7668 762.3254)" class="st3 st6 st7">电源</text>
<text transform="matrix(1 0 0 1 980.212 702.9341)" class="st3 st6 st7">2号</text>
<text transform="matrix(1 0 0 1 975.712 734.134)" class="st3 st6 st7">UPS</text>
<text transform="matrix(1 0 0 1 974.812 763.3292)" class="st3 st6 st7">电源</text>
<text transform="matrix(1 0 0 1 1076.8879 702.9341)" class="st3 st6 st7">500kV</text>
<text transform="matrix(1 0 0 1 1094.5879 734.134)" class="st3 st6 st7">GIS</text>
<text transform="matrix(1 0 0 1 1082.0044 765.3254)" class="st3 st6 st7">电源2</text>
<text transform="matrix(1 0 0 1 1205.0525 704.9346)" class="st3 st6 st7">220kV</text>
<text transform="matrix(1 0 0 1 1217.7524 734.1296)" class="st3 st6 st7">开关</text>
<text transform="matrix(1 0 0 1 1210.1688 765.3254)" class="st3 st6 st7">电源2</text>
<text transform="matrix(1 0 0 1 1329.4287 730.9204)" class="st3 st6 st7">旧UPS</text>
<text transform="matrix(1 0 0 1 1333.9287 762.1204)" class="st3 st6 st7">电源2</text>
<text transform="matrix(1 0 0 1 1448.2615 702.9292)" class="st3 st6 st7">通信楼</text>
<text transform="matrix(1 0 0 1 1448.2615 734.1292)" class="st3 st6 st7">整流屏</text>
<text transform="matrix(1 0 0 1 1418.9545 765.325)" class="st3 st6 st7">(一)输入2路</text>
</svg>
