<?xml version="1.0" encoding="utf-8"?>
<!-- Generator: Adobe Illustrator 21.0.0, SVG Export Plug-In . SVG Version: 6.00 Build 0)  -->
<svg version="1.1" id="图层_1" xmlns="http://www.w3.org/2000/svg" xmlns:xlink="http://www.w3.org/1999/xlink" x="0px" y="0px"
	 viewBox="0 0 1808 820" style="enable-background:new 0 0 1808 820;" xml:space="preserve">
<style type="text/css">
	.st0{display:none;}
	.st1{display:inline;fill:none;stroke:#FF0000;stroke-width:2;stroke-miterlimit:10;}
	.st2{fill:#A8211B;}
	.st3{fill:#CACFD2;}
	.st4{fill:#876633;}
	.st5{fill:#999A92;}
</style>
<g id="图层_8" class="st0">
	<line class="st1" x1="1441.8" y1="664.6" x2="1220.8" y2="664.6"/>
	<line class="st1" x1="1439.4" y1="662.5" x2="1439.4" y2="664.6"/>
	<line class="st1" x1="1310.1" y1="662.6" x2="1310.1" y2="664.6"/>
	<line class="st1" x1="1203" y1="690.3" x2="1013.1" y2="690.3"/>
	<polyline class="st1" points="1209.9,690.3 1211.7,690.3 1211.7,661.7 	"/>
	<line class="st1" x1="1214.8" y1="664.8" x2="1013.9" y2="664.8"/>
	<line class="st1" x1="1150" y1="662.6" x2="1150" y2="664.8"/>
	<line class="st1" x1="1008.5" y1="664.8" x2="760.8" y2="664.8"/>
	<line class="st1" x1="1005.7" y1="661.3" x2="1005.7" y2="664.8"/>
	<line class="st1" x1="929.4" y1="662.4" x2="929.4" y2="664.8"/>
	<line class="st1" x1="833.6" y1="662.6" x2="833.6" y2="664.8"/>
	<polyline class="st1" points="1007.6,690 565.4,690 565.4,685.5 	"/>
	<line class="st1" x1="754.1" y1="664.6" x2="577.1" y2="664.6"/>
	<line class="st1" x1="751.5" y1="660.7" x2="751.5" y2="664.6"/>
	<line class="st1" x1="661.1" y1="662.6" x2="661.1" y2="664.5"/>
	<line class="st1" x1="571.4" y1="664.7" x2="548.5" y2="664.7"/>
	<line class="st1" x1="553.9" y1="664.5" x2="553.9" y2="627.2"/>
	<line class="st1" x1="553.9" y1="630.1" x2="553.9" y2="606.5"/>
	<line class="st1" x1="553.9" y1="609" x2="553.9" y2="584.8"/>
	<polyline class="st1" points="565.4,680.3 565.4,668.3 548.9,668.3 	"/>
	<line class="st1" x1="544" y1="668.3" x2="515.3" y2="668.3"/>
	<line class="st1" x1="516.4" y1="668" x2="254.4" y2="668"/>
	<line class="st1" x1="543.8" y1="664.8" x2="515.1" y2="664.8"/>
	<line class="st1" x1="516.4" y1="664.3" x2="254.4" y2="664.3"/>
	<polyline class="st1" points="369.2,661.1 373,661.1 373,607.1 	"/>
	<line class="st1" x1="373.2" y1="609.9" x2="373.2" y2="601.3"/>
	<line class="st1" x1="364.5" y1="661" x2="254.4" y2="661"/>
	<line class="st1" x1="373" y1="621.2" x2="368.9" y2="621.2"/>
	<polyline class="st1" points="364.8,621.2 171.7,621.2 171.7,606.8 	"/>
	<line class="st1" x1="171.6" y1="610.1" x2="171.6" y2="602.4"/>
	<line class="st1" x1="171.6" y1="598.6" x2="171.6" y2="487.1"/>
	<line class="st1" x1="174.9" y1="596.4" x2="171.7" y2="596.4"/>
	<line class="st1" x1="171.6" y1="490.3" x2="171.6" y2="411.3"/>
	<line class="st1" x1="174.9" y1="443.2" x2="171.6" y2="443.2"/>
	<line class="st1" x1="171.7" y1="406.2" x2="171.7" y2="388.7"/>
	<line class="st1" x1="171.6" y1="392" x2="171.6" y2="287"/>
	<line class="st1" x1="171.6" y1="290.4" x2="171.6" y2="191.4"/>
	<line class="st1" x1="174.6" y1="227.8" x2="171.6" y2="227.8"/>
	<line class="st1" x1="171.6" y1="275.7" x2="168.8" y2="275.7"/>
	<line class="st1" x1="171.6" y1="329.9" x2="169" y2="329.9"/>
	<line class="st1" x1="174.7" y1="349.1" x2="171.6" y2="349.1"/>
	<polyline class="st1" points="171.6,186.2 171.6,113.6 224.9,113.6 	"/>
	<polyline class="st1" points="290.5,118 290.5,113.5 290.5,84.8 	"/>
	<line class="st1" x1="229.7" y1="113.4" x2="290.4" y2="113.4"/>
	<line class="st1" x1="373.2" y1="186.2" x2="373.2" y2="47.4"/>
	<line class="st1" x1="373.2" y1="431.2" x2="373.2" y2="192.1"/>
	<line class="st1" x1="370.4" y1="221.5" x2="373.2" y2="221.5"/>
	<line class="st1" x1="370.7" y1="393.8" x2="373.2" y2="393.8"/>
	<line class="st1" x1="373.2" y1="596.7" x2="373.2" y2="437.4"/>
	<line class="st1" x1="370.8" y1="537.4" x2="373.2" y2="537.4"/>
	<line class="st1" x1="751.6" y1="221.2" x2="751.6" y2="169.9"/>
	<line class="st1" x1="751.6" y1="183.5" x2="751.6" y2="159.3"/>
	<line class="st1" x1="751.8" y1="162.4" x2="751.8" y2="141.7"/>
	<line class="st1" x1="754.8" y1="217.9" x2="548.1" y2="217.9"/>
	<line class="st1" x1="661.1" y1="217.8" x2="661.1" y2="215.6"/>
	<line class="st1" x1="754.8" y1="307.3" x2="548.1" y2="307.3"/>
	<line class="st1" x1="751.8" y1="310.6" x2="751.8" y2="270"/>
	<line class="st1" x1="751.8" y1="272.9" x2="751.8" y2="249.1"/>
	<line class="st1" x1="751.8" y1="251.7" x2="751.8" y2="226.9"/>
	<line class="st1" x1="661.1" y1="307.3" x2="661.1" y2="305.2"/>
	<line class="st1" x1="1009.1" y1="218" x2="760.3" y2="218"/>
	<line class="st1" x1="1005.7" y1="221.9" x2="1005.7" y2="170.5"/>
	<line class="st1" x1="1005.5" y1="183.5" x2="1005.5" y2="159.9"/>
	<line class="st1" x1="1005.7" y1="162.4" x2="1005.7" y2="141.7"/>
	<line class="st1" x1="929.4" y1="218" x2="929.4" y2="215.6"/>
	<line class="st1" x1="833.6" y1="218" x2="833.6" y2="215.9"/>
	<line class="st1" x1="1214.8" y1="218" x2="1014.5" y2="218"/>
	<line class="st1" x1="1211.9" y1="221.9" x2="1211.9" y2="170.5"/>
	<line class="st1" x1="1211.9" y1="183.5" x2="1211.9" y2="159"/>
	<line class="st1" x1="1211.9" y1="162.4" x2="1211.9" y2="141.7"/>
	<line class="st1" x1="1150" y1="218" x2="1150" y2="216.1"/>
	<line class="st1" x1="1068.5" y1="218" x2="1068.5" y2="215.9"/>
	<line class="st1" x1="1005.6" y1="297.5" x2="1005.6" y2="270"/>
	<line class="st1" x1="1005.5" y1="272.9" x2="1005.5" y2="249.1"/>
	<line class="st1" x1="1005.5" y1="251.7" x2="1005.5" y2="227.5"/>
	<line class="st1" x1="1008.8" y1="396.6" x2="1002.6" y2="396.6"/>
	<line class="st1" x1="1441.8" y1="217.9" x2="1220.5" y2="217.9"/>
	<line class="st1" x1="1439.4" y1="215.6" x2="1439.4" y2="217.9"/>
	<line class="st1" x1="1367.5" y1="215.7" x2="1367.5" y2="217.9"/>
	<line class="st1" x1="1310.1" y1="216" x2="1310.1" y2="217.9"/>
	<line class="st1" x1="1008.7" y1="307.4" x2="759.8" y2="307.4"/>
	<line class="st1" x1="929.4" y1="305" x2="929.4" y2="307.4"/>
	<line class="st1" x1="833.6" y1="305.2" x2="833.6" y2="307.4"/>
	<line class="st1" x1="1211.9" y1="297.5" x2="1211.9" y2="270"/>
	<line class="st1" x1="1211.9" y1="272.6" x2="1211.9" y2="248.9"/>
	<line class="st1" x1="1211.9" y1="251.7" x2="1211.9" y2="226.8"/>
	<line class="st1" x1="1441.8" y1="307.2" x2="1220.6" y2="307.2"/>
	<line class="st1" x1="1439.4" y1="305" x2="1439.4" y2="307.2"/>
	<line class="st1" x1="1310.1" y1="305.1" x2="1310.1" y2="307.2"/>
	<line class="st1" x1="1211.8" y1="400.5" x2="1211.8" y2="359.2"/>
	<line class="st1" x1="1211.9" y1="362.1" x2="1211.9" y2="338.1"/>
	<line class="st1" x1="1211.9" y1="341" x2="1211.9" y2="302.9"/>
	<line class="st1" x1="1215" y1="307.4" x2="1013.8" y2="307.4"/>
	<line class="st1" x1="1150" y1="305" x2="1150" y2="307.1"/>
	<line class="st1" x1="1068.5" y1="305.2" x2="1068.5" y2="307.3"/>
	<line class="st1" x1="1005.9" y1="400.5" x2="1005.9" y2="358.5"/>
	<line class="st1" x1="1005.6" y1="362" x2="1005.6" y2="338.5"/>
	<line class="st1" x1="1005.8" y1="342" x2="1005.8" y2="303.6"/>
	<line class="st1" x1="1215" y1="396.7" x2="1013.8" y2="396.7"/>
	<line class="st1" x1="1441.8" y1="397.2" x2="1220.6" y2="397.2"/>
	<line class="st1" x1="1310.1" y1="397.1" x2="1310.1" y2="394.1"/>
	<line class="st1" x1="997.3" y1="396.6" x2="748.8" y2="396.6"/>
	<line class="st1" x1="751.8" y1="400.2" x2="751.8" y2="359.4"/>
	<line class="st1" x1="929.4" y1="396.4" x2="929.4" y2="393.6"/>
	<line class="st1" x1="833.6" y1="396.6" x2="833.6" y2="393.6"/>
	<polyline class="st1" points="743.3,396.6 573.6,396.6 547.4,396.6 	"/>
	<line class="st1" x1="573.6" y1="394.2" x2="573.6" y2="396.6"/>
	<line class="st1" x1="557.7" y1="394.2" x2="557.7" y2="396.6"/>
	<line class="st1" x1="751.8" y1="362" x2="751.8" y2="338"/>
	<line class="st1" x1="751.6" y1="341" x2="751.6" y2="315.9"/>
	<line class="st1" x1="1441.8" y1="486" x2="1209" y2="486"/>
	<line class="st1" x1="1439.4" y1="484" x2="1439.4" y2="486.1"/>
	<line class="st1" x1="1310.1" y1="483.9" x2="1310.1" y2="486.1"/>
	<line class="st1" x1="1211.9" y1="476.2" x2="1211.9" y2="449"/>
	<line class="st1" x1="1211.8" y1="451.2" x2="1211.8" y2="427.9"/>
	<line class="st1" x1="1211.7" y1="430.4" x2="1211.7" y2="406.2"/>
	<line class="st1" x1="1005.8" y1="476.7" x2="1005.8" y2="448.9"/>
	<line class="st1" x1="1005.6" y1="451.2" x2="1005.6" y2="428"/>
	<line class="st1" x1="1005.6" y1="430.4" x2="1005.6" y2="405.3"/>
	<line class="st1" x1="1211.9" y1="565.4" x2="1211.9" y2="537.2"/>
	<line class="st1" x1="1211.7" y1="540.8" x2="1211.7" y2="517.3"/>
	<line class="st1" x1="1211.9" y1="520" x2="1211.9" y2="481.9"/>
	<line class="st1" x1="1203" y1="485.9" x2="1002.9" y2="485.9"/>
	<line class="st1" x1="1005.6" y1="520" x2="1005.6" y2="481.9"/>
	<line class="st1" x1="1005.8" y1="540.8" x2="1005.8" y2="517.3"/>
	<line class="st1" x1="1005.8" y1="566.4" x2="1005.8" y2="537.2"/>
	<line class="st1" x1="996.8" y1="486.1" x2="748.1" y2="486.1"/>
	<line class="st1" x1="929.3" y1="483.8" x2="929.3" y2="486"/>
	<line class="st1" x1="833.6" y1="483.8" x2="833.6" y2="486.1"/>
	<line class="st1" x1="751.8" y1="489.4" x2="751.8" y2="447.9"/>
	<line class="st1" x1="751.5" y1="451.1" x2="751.5" y2="428.2"/>
	<line class="st1" x1="751.6" y1="430.4" x2="751.6" y2="406.2"/>
	<line class="st1" x1="742.9" y1="486.1" x2="547.4" y2="486.1"/>
	<line class="st1" x1="661.1" y1="483.8" x2="661.1" y2="486"/>
	<polyline class="st1" points="554.1,579.5 554.1,575.4 759.8,575.4 	"/>
	<line class="st1" x1="751.1" y1="579" x2="751.1" y2="570.6"/>
	<line class="st1" x1="661.1" y1="572.9" x2="661.1" y2="575.1"/>
	<line class="st1" x1="573.6" y1="573.1" x2="573.6" y2="575.4"/>
	<line class="st1" x1="1005.8" y1="655.7" x2="1005.8" y2="626.6"/>
	<line class="st1" x1="1005.8" y1="630" x2="1005.8" y2="605.7"/>
	<line class="st1" x1="1005.5" y1="609.4" x2="1005.5" y2="571"/>
	<line class="st1" x1="1008.5" y1="575.1" x2="764.6" y2="575.1"/>
	<line class="st1" x1="929.3" y1="572.9" x2="929.3" y2="575.1"/>
	<line class="st1" x1="833.5" y1="573" x2="833.5" y2="575.1"/>
	<line class="st1" x1="1211.9" y1="655.7" x2="1211.9" y2="626.6"/>
	<line class="st1" x1="1211.7" y1="630" x2="1211.7" y2="606.3"/>
	<line class="st1" x1="1211.9" y1="609.4" x2="1211.9" y2="571.7"/>
	<line class="st1" x1="1214.9" y1="575.3" x2="1014" y2="575.3"/>
	<line class="st1" x1="1441.8" y1="575.1" x2="1220.8" y2="575.1"/>
	<line class="st1" x1="1439.6" y1="572.8" x2="1439.6" y2="575.1"/>
	<line class="st1" x1="1367.5" y1="572.8" x2="1367.5" y2="575.1"/>
	<line class="st1" x1="1310.3" y1="572.9" x2="1310.3" y2="575.1"/>
	<line class="st1" x1="751.6" y1="655.7" x2="751.6" y2="627.2"/>
	<line class="st1" x1="751.6" y1="630.1" x2="751.6" y2="606.4"/>
	<line class="st1" x1="751.8" y1="609.3" x2="751.8" y2="584.6"/>
</g>
<g>
	<g>
		<path class="st2" d="M320.1,144.1h-2.6c-2.2,0-3.9-1.8-3.9-3.9V125c0-2.9,2.4-5.3,5.3-5.3l0,0c2.9,0,5.3,2.4,5.3,5.3v15.2
			C324.1,142.3,322.3,144.1,320.1,144.1z"/>
		<path class="st3" d="M321.8,139.4h-6c-0.7,0-1.3-0.6-1.3-1.3v-11.2c0-0.7,0.6-1.3,1.3-1.3h6c0.7,0,1.3,0.6,1.3,1.3v11.2
			C323.1,138.8,322.5,139.4,321.8,139.4z"/>
		<rect x="317.4" y="117.8" class="st2" width="2.8" height="2.2"/>
		<g>
			<rect x="317.5" y="113.8" class="st4" width="2.7" height="3"/>
			<rect x="318" y="111.6" class="st4" width="1.4" height="3"/>
			<rect x="318.4" y="110.9" class="st4" width="0.7" height="1.2"/>
			<rect x="314.8" y="114.7" class="st4" width="6.3" height="2.1"/>
			<rect x="313.8" y="115.3" class="st4" width="1.3" height="0.9"/>
			<rect x="312.1" y="114.1" class="st5" width="1.8" height="3.4"/>
		</g>
		<rect x="318" y="116.4" class="st2" width="1.7" height="1.7"/>
	</g>
	<g>
		<path class="st2" d="M320.1,245.3h-2.6c-2.2,0-3.9-1.8-3.9-3.9v-15.2c0-2.9,2.4-5.3,5.3-5.3l0,0c2.9,0,5.3,2.4,5.3,5.3v15.2
			C324.1,243.5,322.3,245.3,320.1,245.3z"/>
		<path class="st3" d="M321.8,240.6h-6c-0.7,0-1.3-0.6-1.3-1.3v-11.2c0-0.7,0.6-1.3,1.3-1.3h6c0.7,0,1.3,0.6,1.3,1.3v11.2
			C323.1,240,322.5,240.6,321.8,240.6z"/>
		<rect x="317.4" y="218.9" class="st2" width="2.8" height="2.2"/>
		<g>
			<rect x="317.5" y="215" class="st4" width="2.7" height="3"/>
			<rect x="318" y="212.7" class="st4" width="1.4" height="3"/>
			<rect x="318.4" y="212" class="st4" width="0.7" height="1.2"/>
			<rect x="314.8" y="215.8" class="st4" width="6.3" height="2.1"/>
			<rect x="313.8" y="216.5" class="st4" width="1.3" height="0.9"/>
			<rect x="312.1" y="215.3" class="st5" width="1.8" height="3.4"/>
		</g>
		<rect x="318" y="217.6" class="st2" width="1.7" height="1.7"/>
	</g>
	<g>
		<path class="st2" d="M320.1,380.7h-2.6c-2.2,0-3.9-1.8-3.9-3.9v-15.2c0-2.9,2.4-5.3,5.3-5.3l0,0c2.9,0,5.3,2.4,5.3,5.3v15.2
			C324.1,378.9,322.3,380.7,320.1,380.7z"/>
		<path class="st3" d="M321.8,376h-6c-0.7,0-1.3-0.6-1.3-1.3v-11.2c0-0.7,0.6-1.3,1.3-1.3h6c0.7,0,1.3,0.6,1.3,1.3v11.2
			C323.1,375.4,322.5,376,321.8,376z"/>
		<rect x="317.4" y="354.4" class="st2" width="2.8" height="2.2"/>
		<g>
			<rect x="317.5" y="350.4" class="st4" width="2.7" height="3"/>
			<rect x="318" y="348.2" class="st4" width="1.4" height="3"/>
			<rect x="318.4" y="347.5" class="st4" width="0.7" height="1.2"/>
			<rect x="314.8" y="351.3" class="st4" width="6.3" height="2.1"/>
			<rect x="313.8" y="351.9" class="st4" width="1.3" height="0.9"/>
			<rect x="312.1" y="350.7" class="st5" width="1.8" height="3.4"/>
		</g>
		<rect x="318" y="353" class="st2" width="1.7" height="1.7"/>
	</g>
	<g>
		<path class="st2" d="M320.1,542.6h-2.6c-2.2,0-3.9-1.8-3.9-3.9v-15.2c0-2.9,2.4-5.3,5.3-5.3l0,0c2.9,0,5.3,2.4,5.3,5.3v15.2
			C324.1,540.8,322.3,542.6,320.1,542.6z"/>
		<path class="st3" d="M321.8,537.9h-6c-0.7,0-1.3-0.6-1.3-1.3v-11.2c0-0.7,0.6-1.3,1.3-1.3h6c0.7,0,1.3,0.6,1.3,1.3v11.2
			C323.1,537.3,322.5,537.9,321.8,537.9z"/>
		<rect x="317.4" y="516.3" class="st2" width="2.8" height="2.2"/>
		<g>
			<rect x="317.5" y="512.4" class="st4" width="2.7" height="3"/>
			<rect x="318" y="510.1" class="st4" width="1.4" height="3"/>
			<rect x="318.4" y="509.4" class="st4" width="0.7" height="1.2"/>
			<rect x="314.8" y="513.2" class="st4" width="6.3" height="2.1"/>
			<rect x="313.8" y="513.8" class="st4" width="1.3" height="0.9"/>
			<rect x="312.1" y="512.6" class="st5" width="1.8" height="3.4"/>
		</g>
		<rect x="318" y="515" class="st2" width="1.7" height="1.7"/>
	</g>
	<g>
		<path class="st2" d="M216.4,649.4h-2.6c-2.2,0-3.9-1.8-3.9-3.9v-15.2c0-2.9,2.4-5.3,5.3-5.3l0,0c2.9,0,5.3,2.4,5.3,5.3v15.2
			C220.3,647.6,218.5,649.4,216.4,649.4z"/>
		<path class="st3" d="M218,644.7h-6c-0.7,0-1.3-0.6-1.3-1.3v-11.2c0-0.7,0.6-1.3,1.3-1.3h6c0.7,0,1.3,0.6,1.3,1.3v11.2
			C219.3,644.1,218.7,644.7,218,644.7z"/>
		<rect x="213.6" y="623.1" class="st2" width="2.8" height="2.2"/>
		<g>
			<rect x="213.7" y="619.1" class="st4" width="2.7" height="3"/>
			<rect x="214.2" y="616.9" class="st4" width="1.4" height="3"/>
			<rect x="214.6" y="616.2" class="st4" width="0.7" height="1.2"/>
			<rect x="211" y="620" class="st4" width="6.3" height="2.1"/>
			<rect x="210" y="620.6" class="st4" width="1.3" height="0.9"/>
			<rect x="208.3" y="619.4" class="st5" width="1.8" height="3.4"/>
		</g>
		<rect x="214.2" y="621.7" class="st2" width="1.7" height="1.7"/>
	</g>
</g>
</svg>
