<?xml version="1.0" encoding="utf-8"?>
<!-- Generator: Adobe Illustrator 21.0.0, SVG Export Plug-In . SVG Version: 6.00 Build 0)  -->
<svg version="1.1" id="图层_1" xmlns="http://www.w3.org/2000/svg" xmlns:xlink="http://www.w3.org/1999/xlink" x="0px" y="0px"
	 viewBox="0 0 2338 1153" style="enable-background:new 0 0 2338 1153;" xml:space="preserve">
<style type="text/css">
	.st0{display:none;}
	.st1{display:inline;fill:#141A26;}
	.st2{fill:#FFFFFF;}
	.st3{font-family:'MicrosoftYaHei';}
	.st4{font-size:20px;}
	.st5{fill:#114E6D;}
</style>
<g id="图层_4" class="st0">
	<rect class="st1" width="2338" height="1153"/>
</g>
<g>
	<text transform="matrix(1 0 0 1 1856.8994 231.9341)" class="st2 st3 st4">500k V断</text>
	<text transform="matrix(1 0 0 1 1856.899 261.3297)" class="st2 st3 st4">路器电源1</text>
	<text transform="matrix(1 0 0 1 1856.899 290.7253)" class="st2 st3 st4">（起点）</text>
	<text transform="matrix(1 0 0 1 1856.8993 515.9341)" class="st2 st3 st4">500k V断</text>
	<text transform="matrix(1 0 0 1 1856.8989 545.3301)" class="st2 st3 st4">路器电源1</text>
	<text transform="matrix(1 0 0 1 1856.8994 574.7253)" class="st2 st3 st4">（终点）</text>
	<text transform="matrix(1 0 0 1 1859.8994 380.9253)" class="st2 st3 st4">铠装接地</text>
	<text transform="matrix(1 0 0 1 1859.8994 415.3253)" class="st2 st3 st4">电流合成</text>
</g>
<g>
	<text transform="matrix(1 0 0 1 1983.877 231.9341)" class="st2 st3 st4">1号主变冷</text>
	<text transform="matrix(1 0 0 1 1983.8762 261.3297)" class="st2 st3 st4">却器电源1</text>
	<text transform="matrix(1 0 0 1 1983.8762 290.7253)" class="st2 st3 st4">（起点）</text>
	<text transform="matrix(1 0 0 1 1983.877 515.9341)" class="st2 st3 st4">1号主变冷</text>
	<text transform="matrix(1 0 0 1 1983.8762 545.3301)" class="st2 st3 st4">却器电源1</text>
	<text transform="matrix(1 0 0 1 1983.8762 574.7253)" class="st2 st3 st4">（终点）</text>
	<text transform="matrix(1 0 0 1 1986.877 380.9253)" class="st2 st3 st4">铠装接地</text>
	<text transform="matrix(1 0 0 1 1986.877 415.3253)" class="st2 st3 st4">电流合成</text>
</g>
<g>
	<text transform="matrix(1 0 0 1 1982.9305 707.9341)" class="st2 st3 st4">1号主变冷</text>
	<text transform="matrix(1 0 0 1 1982.9303 737.3301)" class="st2 st3 st4">却器电源2</text>
	<text transform="matrix(1 0 0 1 1982.9308 766.7253)" class="st2 st3 st4">（终点）</text>
	<text transform="matrix(1 0 0 1 1982.9301 1000.9341)" class="st2 st3 st4">1号主变冷</text>
	<text transform="matrix(1 0 0 1 1982.9298 1030.3301)" class="st2 st3 st4">却器电源2</text>
	<text transform="matrix(1 0 0 1 1982.9303 1059.7253)" class="st2 st3 st4">（起点）</text>
	<text transform="matrix(1 0 0 1 1986.8772 868.9253)" class="st2 st3 st4">铠装接地</text>
	<text transform="matrix(1 0 0 1 1986.8772 903.3254)" class="st2 st3 st4">电流合成</text>
</g>
<g>
	<text transform="matrix(1 0 0 1 1856.3997 707.9341)" class="st2 st3 st4">500k V断</text>
	<text transform="matrix(1 0 0 1 1859.3993 737.3301)" class="st2 st3 st4">路器电源2</text>
	<text transform="matrix(1 0 0 1 1859.3998 766.7253)" class="st2 st3 st4">（终点）</text>
	<text transform="matrix(1 0 0 1 1859.4 1000.9341)" class="st2 st3 st4">500k V断</text>
	<text transform="matrix(1 0 0 1 1859.3997 1030.3301)" class="st2 st3 st4">路器电源2</text>
	<text transform="matrix(1 0 0 1 1859.4001 1059.7253)" class="st2 st3 st4">（起点）</text>
	<text transform="matrix(1 0 0 1 1865.5704 868.9253)" class="st2 st3 st4">铠装接地</text>
	<text transform="matrix(1 0 0 1 1865.5704 903.3254)" class="st2 st3 st4">电流合成</text>
</g>
<rect x="1860.4" y="923" class="st5" width="80" height="51"/>
<rect x="1981.5" y="923" class="st5" width="80" height="51"/>
<rect x="1860.4" y="785.9" class="st5" width="80" height="51"/>
<rect x="1981.5" y="785.9" class="st5" width="80" height="51"/>
<rect x="1860.4" y="630.9" class="st5" width="80" height="51"/>
<rect x="1981.5" y="630.9" class="st5" width="80" height="51"/>
<rect x="1860.4" y="435.5" class="st5" width="80" height="51"/>
<rect x="1981.5" y="435.5" class="st5" width="80" height="51"/>
<rect x="1860.4" y="305.5" class="st5" width="80" height="51"/>
<rect x="1981.5" y="305.5" class="st5" width="80" height="51"/>
<rect x="1860.4" y="158.2" class="st5" width="80" height="51"/>
<rect x="1981.5" y="158.2" class="st5" width="80" height="51"/>
</svg>
