<?xml version="1.0" encoding="utf-8"?>
<!-- Generator: Adobe Illustrator 21.0.0, SVG Export Plug-In . SVG Version: 6.00 Build 0)  -->
<svg version="1.1" id="图层_1" xmlns="http://www.w3.org/2000/svg" xmlns:xlink="http://www.w3.org/1999/xlink" x="0px" y="0px"
	 viewBox="0 0 2247 1080" style="enable-background:new 0 0 2247 1080;" xml:space="preserve">
<style type="text/css">
	.st0{display:none;}
	.st1{display:inline;fill:#141A26;}
	.st2{display:inline;fill:none;stroke:#49E2FC;stroke-width:2;stroke-miterlimit:10;}
	.st3{fill:#FFFFFF;}
	.st4{font-family:'AdobeSongStd-Light-GBpc-EUC-H';}
	.st5{font-size:22px;}
	.st6{font-family:'MicrosoftYaHei';}
	.st7{font-size:18px;}
	.st8{font-size:24px;}
</style>
<g id="图层_4" class="st0">
	<rect class="st1" width="2247" height="1080"/>
</g>
<g id="框" class="st0">
	<rect x="156" y="199" class="st2" width="65" height="46"/>
	<rect x="159" y="479" class="st2" width="65" height="46"/>
	<rect x="163" y="764" class="st2" width="65" height="46"/>
	<rect x="444.3" y="545" class="st2" width="65" height="28"/>
	<rect x="550.3" y="545" class="st2" width="65" height="28"/>
	<rect x="659.8" y="545" class="st2" width="65" height="28"/>
	<rect x="841" y="399.5" class="st2" width="55" height="28"/>
	<rect x="932.8" y="400" class="st2" width="56" height="27.5"/>
	<rect x="1026.3" y="400" class="st2" width="55" height="27.5"/>
	<rect x="1119.8" y="400" class="st2" width="55" height="27.5"/>
	<rect x="1210.3" y="400" class="st2" width="55" height="27.5"/>
	<rect x="1300.2" y="400" class="st2" width="57" height="27.5"/>
	<rect x="1396.8" y="400" class="st2" width="55" height="27.5"/>
	<polygon class="st2" points="1486.8,400 1542.8,400 1542.8,428 1486.8,427.5 	"/>
	<rect x="1613.6" y="162" class="st2" width="61" height="28"/>
	<rect x="1720.6" y="162" class="st2" width="61" height="28"/>
	<rect x="1826.8" y="162" class="st2" width="59" height="28"/>
	<rect x="1919.5" y="162" class="st2" width="64" height="28"/>
	<rect x="1613.6" y="275" class="st2" width="61" height="28"/>
	<rect x="1720.6" y="275" class="st2" width="61" height="28"/>
	<rect x="1825.3" y="275" class="st2" width="62" height="28"/>
	<rect x="1915" y="275" class="st2" width="73" height="28"/>
	<rect x="1613.6" y="396" class="st2" width="61" height="28"/>
	<rect x="1720.6" y="396" class="st2" width="61" height="28"/>
	<rect x="1825.3" y="396" class="st2" width="62" height="28"/>
	<rect x="1915" y="396" class="st2" width="73" height="28"/>
	<rect x="1611.3" y="659" class="st2" width="61" height="28"/>
	<rect x="1711.6" y="659" class="st2" width="71" height="28"/>
	<rect x="1817.3" y="659" class="st2" width="69" height="28"/>
	<rect x="1923" y="659" class="st2" width="66" height="28"/>
	<rect x="1611.3" y="760" class="st2" width="61" height="28"/>
	<rect x="1711.6" y="760" class="st2" width="71" height="28"/>
	<rect x="1815.8" y="760" class="st2" width="72" height="28"/>
	<rect x="1923.5" y="760" class="st2" width="65" height="28"/>
	<rect x="1611.3" y="863" class="st2" width="61" height="28"/>
	<rect x="1711.6" y="863" class="st2" width="71" height="28"/>
	<rect x="1815.8" y="863" class="st2" width="72" height="28"/>
	<rect x="1923.5" y="863" class="st2" width="65" height="28"/>
	<rect x="1461.2" y="660" class="st2" width="47" height="28"/>
	<rect x="1342.5" y="660" class="st2" width="47" height="28"/>
	<rect x="1216.2" y="660" class="st2" width="47" height="28"/>
	<rect x="1611.3" y="659" class="st2" width="61" height="28"/>
	<rect x="1711.6" y="659" class="st2" width="71" height="28"/>
	<rect x="1817.3" y="659" class="st2" width="69" height="28"/>
	<rect x="1923" y="659" class="st2" width="66" height="28"/>
	<rect x="1611.3" y="760" class="st2" width="61" height="28"/>
	<rect x="1711.6" y="760" class="st2" width="71" height="28"/>
	<rect x="1815.8" y="760" class="st2" width="72" height="28"/>
	<rect x="1923.5" y="760" class="st2" width="65" height="28"/>
	<rect x="1611.3" y="863" class="st2" width="61" height="28"/>
	<rect x="1711.6" y="863" class="st2" width="71" height="28"/>
	<rect x="1815.8" y="863" class="st2" width="72" height="28"/>
	<rect x="1923.5" y="863" class="st2" width="65" height="28"/>
	<rect x="1461.2" y="660" class="st2" width="47" height="28"/>
	<rect x="1342.5" y="660" class="st2" width="47" height="28"/>
	<rect x="1216.2" y="660" class="st2" width="47" height="28"/>
	<rect x="1093.3" y="660" class="st2" width="47" height="28"/>
	<rect x="975.7" y="660" class="st2" width="47" height="28"/>
	<rect x="847.7" y="660" class="st2" width="47" height="28"/>
	<rect x="71" y="84" class="st2" width="253" height="51"/>
</g>
<text transform="matrix(1 0 0 1 301 70.3341)" class="st3 st4 st5"> </text>
<text transform="matrix(1 0 0 1 452.4366 338.9341)" class="st3 st6 st7">35kV断路</text>
<text transform="matrix(1 0 0 1 469.7009 358.3253)" class="st3 st6 st7">器电源1</text>
<text transform="matrix(1 0 0 1 550.7661 338.9341)" class="st3 st6 st7">500kV断路</text>
<text transform="matrix(1 0 0 1 563.3082 357.83)" class="st3 st6 st7">器电源1</text>
<text transform="matrix(1 0 0 1 663.7638 337.9341)" class="st3 st6 st7">1#主变冷却</text>
<text transform="matrix(1 0 0 1 678.5076 357.3253)" class="st3 st6 st7">器电源1</text>
<text transform="matrix(1 0 0 1 766.5 338.9253)" class="st3 st6 st7">通信楼交流屏</text>
<text transform="matrix(1 0 0 1 757.5 358.3256)" class="st3 st6 st7">（二）输入一路</text>
<text transform="matrix(1 0 0 1 884.25 338.9253)" class="st3 st6 st7">通信楼整流屏</text>
<text transform="matrix(1 0 0 1 875.25 358.3256)" class="st3 st6 st7">（三）输入一路</text>
<text transform="matrix(1 0 0 1 1002.6917 338.9341)" class="st3 st6 st7">500kVGIS</text>
<text transform="matrix(1 0 0 1 1020.5641 358.33)" class="st3 st6 st7">电源1</text>
<text transform="matrix(1 0 0 1 1088.5488 340.9341)" class="st3 st6 st7">1#UPS电源</text>
<text transform="matrix(1 0 0 1 1182.0132 339.9253)" class="st3 st6 st7">通信楼整流屏</text>
<text transform="matrix(1 0 0 1 1188.7236 359.3256)" class="st3 st6 st7">(一)输入1路</text>
<text transform="matrix(1 0 0 1 1294.3354 340.9253)" class="st3 st6 st7">旧UPS电源1</text>
<text transform="matrix(1 0 0 1 1394.0059 340.9341)" class="st3 st6 st7">220kV断路器</text>
<text transform="matrix(1 0 0 1 1424.548 360.33)" class="st3 st6 st7">电源1</text>
<text transform="matrix(1 0 0 1 1504.9752 341.9341)" class="st3 st6 st7">2#UPS旁路</text>
<text transform="matrix(1 0 0 1 1533.4166 361.33)" class="st3 st6 st7">电源</text>
<text transform="matrix(1 0 0 1 1607.1859 211.9341)" class="st3 st6 st7">500kV断</text>
<text transform="matrix(1 0 0 1 1603.5859 231.3297)" class="st3 st6 st7">路器电源1</text>
<text transform="matrix(1 0 0 1 1607.0859 250.7253)" class="st3 st6 st7">（起点）</text>
<text transform="matrix(1 0 0 1 1709.7631 211.9341)" class="st3 st6 st7">1#主变冷</text>
<text transform="matrix(1 0 0 1 1707.5631 231.3297)" class="st3 st6 st7">却器电源1</text>
<text transform="matrix(1 0 0 1 1711.0631 250.7253)" class="st3 st6 st7">（起点）</text>
<text transform="matrix(1 0 0 1 1814.9469 211.9341)" class="st3 st6 st7">2#主变冷</text>
<text transform="matrix(1 0 0 1 1812.7469 231.3297)" class="st3 st6 st7">却器电源1</text>
<text transform="matrix(1 0 0 1 1816.2469 250.7253)" class="st3 st6 st7">（起点）</text>
<text transform="matrix(1 0 0 1 1915.2833 212.9341)" class="st3 st6 st7">3#主变冷</text>
<text transform="matrix(1 0 0 1 1912.0272 232.3297)" class="st3 st6 st7">却器电源1</text>
<text transform="matrix(1 0 0 1 1917.3051 251.7253)" class="st3 st6 st7">（起点）</text>
<text transform="matrix(1 0 0 1 1610.8323 446.9341)" class="st3 st6 st7">500kV断</text>
<text transform="matrix(1 0 0 1 1605.3739 466.33)" class="st3 st6 st7">路器电源1</text>
<text transform="matrix(1 0 0 1 1610.6517 485.7253)" class="st3 st6 st7">（终点）</text>
<text transform="matrix(1 0 0 1 1922.7405 706.9341)" class="st3 st6 st7">500kV断</text>
<text transform="matrix(1 0 0 1 1917.2821 726.3301)" class="st3 st6 st7">路器电源2</text>
<text transform="matrix(1 0 0 1 1922.5599 745.7253)" class="st3 st6 st7">（终点）</text>
<text transform="matrix(1 0 0 1 1715.7631 446.9341)" class="st3 st6 st7">1#主变冷</text>
<text transform="matrix(1 0 0 1 1713.5631 466.33)" class="st3 st6 st7">却器电源1</text>
<text transform="matrix(1 0 0 1 1717.0631 485.7253)" class="st3 st6 st7">（终点）</text>
<text transform="matrix(1 0 0 1 1814.5583 706.9341)" class="st3 st6 st7">1#主变冷</text>
<text transform="matrix(1 0 0 1 1811.3022 726.3301)" class="st3 st6 st7">却器电源2</text>
<text transform="matrix(1 0 0 1 1816.5801 745.7253)" class="st3 st6 st7">（终点）</text>
<text transform="matrix(1 0 0 1 1820.9469 446.9341)" class="st3 st6 st7">2#主变冷</text>
<text transform="matrix(1 0 0 1 1818.7469 466.33)" class="st3 st6 st7">却器电源1</text>
<text transform="matrix(1 0 0 1 1822.2469 485.7253)" class="st3 st6 st7">（终点）</text>
<text transform="matrix(1 0 0 1 1710.8752 706.9341)" class="st3 st6 st7">2#主变冷</text>
<text transform="matrix(1 0 0 1 1707.6182 726.3301)" class="st3 st6 st7">却器电源2</text>
<text transform="matrix(1 0 0 1 1712.896 745.7253)" class="st3 st6 st7">（终点）</text>
<text transform="matrix(1 0 0 1 1915.7001 440.9341)" class="st3 st6 st7">3#主变冷</text>
<text transform="matrix(1 0 0 1 1912.444 460.33)" class="st3 st6 st7">却器电源1</text>
<text transform="matrix(1 0 0 1 1917.7216 479.7253)" class="st3 st6 st7">（终点）</text>
<text transform="matrix(1 0 0 1 1606.5583 706.9341)" class="st3 st6 st7">3#主变冷</text>
<text transform="matrix(1 0 0 1 1603.3022 726.3301)" class="st3 st6 st7">却器电源2</text>
<text transform="matrix(1 0 0 1 1608.5801 745.7253)" class="st3 st6 st7">（终点）</text>
<text transform="matrix(1 0 0 1 1920.7405 909.9341)" class="st3 st6 st7">500kV断</text>
<text transform="matrix(1 0 0 1 1915.2821 929.3301)" class="st3 st6 st7">路器电源2</text>
<text transform="matrix(1 0 0 1 1920.5599 948.7253)" class="st3 st6 st7">（起点）</text>
<text transform="matrix(1 0 0 1 658.25 534.9341)" class="st3 st6 st7">共零合成</text>
<text transform="matrix(1 0 0 1 548.75 534.9341)" class="st3 st6 st7">共零合成</text>
<text transform="matrix(1 0 0 1 442.75 534.9341)" class="st3 st6 st7">共零合成</text>
<text transform="matrix(1 0 0 1 1812.5583 909.9341)" class="st3 st6 st7">1#主变冷</text>
<text transform="matrix(1 0 0 1 1809.3022 929.3301)" class="st3 st6 st7">却器电源2</text>
<text transform="matrix(1 0 0 1 1814.5801 948.7253)" class="st3 st6 st7">（起点）</text>
<text transform="matrix(1 0 0 1 1708.8752 909.9341)" class="st3 st6 st7">2#主变冷</text>
<text transform="matrix(1 0 0 1 1705.6182 929.3301)" class="st3 st6 st7">却器电源2</text>
<text transform="matrix(1 0 0 1 1710.896 948.7253)" class="st3 st6 st7">（起点）</text>
<text transform="matrix(1 0 0 1 1603.5583 909.9341)" class="st3 st6 st7">3#主变冷</text>
<text transform="matrix(1 0 0 1 1600.3022 929.3301)" class="st3 st6 st7">却器电源2</text>
<text transform="matrix(1 0 0 1 1605.5801 948.7253)" class="st3 st6 st7">（起点）</text>
<text transform="matrix(1 0 0 1 470.4366 732.9341)" class="st3 st6 st7">35kV断路器</text>
<text transform="matrix(1 0 0 1 495.7009 747.3254)" class="st3 st6 st7">电源2</text>
<text transform="matrix(1 0 0 1 577.7661 732.9341)" class="st3 st6 st7">500kV断路器</text>
<text transform="matrix(1 0 0 1 608.3082 747.3254)" class="st3 st6 st7">电源2</text>
<text transform="matrix(1 0 0 1 688.7638 732.9341)" class="st3 st6 st7">1#主变冷却器</text>
<text transform="matrix(1 0 0 1 721.5076 747.3254)" class="st3 st6 st7">电源2</text>
<text transform="matrix(1 0 0 1 824.0687 732.9341)" class="st3 st6 st7">1号UPS旁路</text>
<text transform="matrix(1 0 0 1 855.7668 747.3254)" class="st3 st6 st7">电源</text>
<text transform="matrix(1 0 0 1 955.8355 732.9341)" class="st3 st6 st7">2号UPS电源</text>
<text transform="matrix(1 0 0 1 1077.6915 732.9341)" class="st3 st6 st7">500kVGIS</text>
<text transform="matrix(1 0 0 1 1095.5641 747.3254)" class="st3 st6 st7">电源2</text>
<text transform="matrix(1 0 0 1 1197.4187 732.9341)" class="st3 st6 st7">220kV开关</text>
<text transform="matrix(1 0 0 1 1218.9613 747.3254)" class="st3 st6 st7">电源2</text>
<text transform="matrix(1 0 0 1 1322.5908 732.9253)" class="st3 st6 st7">旧UPS电源2</text>
<text transform="matrix(1 0 0 1 1436.2469 732.9253)" class="st3 st6 st7">通信楼整流屏</text>
<text transform="matrix(1 0 0 1 1430.9691 752.3257)" class="st3 st6 st7">（一）输入2路</text>
<text transform="matrix(1 0 0 1 325 447)" class="st3 st6 st8">一段</text>
<text transform="matrix(1 0 0 1 325 760)" class="st3 st6 st8">二段</text>
</svg>
